<svg width="32" height="32" viewBox="0 0 32 32" fill="none" xmlns="http://www.w3.org/2000/svg">
<rect width="32" height="32" rx="6" fill="white"/>
<path d="M18.9868 9.50553C18.2249 9.50553 17.5351 9.50142 16.8462 9.50656C15.8844 9.51376 15.5821 9.82945 15.5791 10.8125C15.5781 11.3915 15.5791 11.9694 15.5791 12.61C16.7305 12.61 17.8384 12.61 19 12.61C18.8671 13.6897 18.7545 14.7047 18.6003 15.7124C18.5841 15.8214 18.3243 15.9634 18.1742 15.9685C17.3332 15.9932 16.4901 15.9808 15.5923 15.9808C15.5923 19.3136 15.5923 22.6094 15.5923 25.9853C15.1195 25.9853 14.7025 25.9853 14.2846 25.9853C13.4233 25.9863 12.5599 25.9668 11.6996 25.9987C11.2431 26.0151 11.0889 25.8815 11.0919 25.3961C11.1142 22.4674 11.1041 19.5388 11.1051 16.6091C11.1051 16.4251 11.1051 16.241 11.1051 16.0065C10.3807 16.0065 9.71117 16.0065 9 16.0065C9 14.8733 9 13.7895 9 12.6419C9.67566 12.6419 10.3584 12.6419 11.1031 12.6419C11.1031 11.884 11.098 11.1879 11.1051 10.4927C11.1102 10.031 11.0858 9.56209 11.1548 9.1086C11.4166 7.3872 12.774 6.17379 14.5544 6.08741C15.8875 6.02365 17.2236 6.00926 18.5577 6C18.6997 5.99898 18.9635 6.17482 18.9665 6.27456C18.998 7.33167 18.9868 8.38981 18.9868 9.50553Z" fill="#1A1A1A"/>
</svg>
