<svg width="63" height="60" viewBox="0 0 63 60" fill="none" xmlns="http://www.w3.org/2000/svg">
<path d="M63 29.3757C63 29.6078 63 29.84 63 30.0721C61.8803 31.3952 60.7605 32.7299 59.6285 34.0415C59.3947 34.3084 59.3455 34.5405 59.4686 34.8771C59.9854 36.2234 60.4775 37.5698 60.9697 38.9161C61.3143 39.8562 61.1543 40.2973 60.2561 40.808C58.9764 41.5392 57.6967 42.2704 56.4047 42.9667C56.0602 43.1524 55.9371 43.373 55.9371 43.7444C55.9371 45.172 55.9125 46.5995 55.8879 48.0387C55.8633 49.0485 55.5434 49.3735 54.5098 49.5592C53.0578 49.8145 51.6182 50.1047 50.1662 50.3252C49.7602 50.3948 49.5756 50.5573 49.4402 50.9055C48.9357 52.2518 48.4066 53.5866 47.8775 54.9213C47.5207 55.8266 47.0408 56.0703 46.0318 55.9078C44.5553 55.6757 43.0787 55.4552 41.6145 55.1882C41.2576 55.1186 41.0484 55.2115 40.827 55.4552C39.9287 56.4882 39.0182 57.5095 38.0953 58.5077C37.7754 58.8442 37.3816 59.1228 37.0125 59.4246C36.8033 59.4246 36.6064 59.4246 36.3973 59.4246C34.8592 58.5889 33.3211 57.7416 31.7707 56.9176C31.6107 56.8363 31.3277 56.8363 31.1678 56.9176C29.6174 57.7416 28.0793 58.5889 26.5412 59.4246C26.332 59.4246 26.1352 59.4246 25.926 59.4246C25.5814 59.1344 25.1877 58.8791 24.8801 58.5541C23.9326 57.5327 23.0098 56.4998 22.0992 55.4552C21.8777 55.1998 21.6809 55.1186 21.324 55.1882C19.8598 55.4552 18.3832 55.6641 16.9066 55.9078C15.8854 56.0703 15.4055 55.815 15.0609 54.9213C14.5441 53.5982 14.015 52.2866 13.5105 50.9519C13.3752 50.6037 13.2152 50.3832 12.7723 50.3136C11.2957 50.093 9.84375 49.8029 8.36719 49.5359C7.40742 49.3619 7.0752 49.0137 7.05059 48.0851C7.01367 46.6576 6.98906 45.23 7.00137 43.7908C7.00137 43.373 6.87832 43.1292 6.48457 42.9203C5.20488 42.2355 3.9498 41.5043 2.68242 40.7847C1.78418 40.2741 1.62422 39.833 1.96875 38.8929C2.46094 37.5466 2.95312 36.1886 3.46992 34.8539C3.59297 34.5173 3.54375 34.2968 3.30996 34.0182C2.23945 32.7299 1.11973 31.3952 0 30.0721C0 29.84 0 29.6078 0 29.3757C1.11973 28.0526 2.23945 26.7178 3.37148 25.4063C3.60527 25.1278 3.65449 24.9072 3.51914 24.5707C2.99004 23.1895 2.48555 21.8083 1.98105 20.4156C1.68574 19.5799 1.87031 19.1273 2.67012 18.6746C3.97441 17.9434 5.26641 17.2006 6.5707 16.481C6.91523 16.2953 7.03828 16.0748 7.03828 15.6918C7.03828 14.241 7.06289 12.7902 7.0998 11.3394C7.12441 10.4109 7.45664 10.0511 8.41641 9.88862C9.88066 9.63328 11.3449 9.34312 12.8215 9.11099C13.2275 9.04135 13.4121 8.87887 13.5475 8.53067C14.0396 7.20755 14.5687 5.88442 15.0855 4.5613C15.4547 3.60958 15.9223 3.35424 16.9559 3.51673C18.4324 3.74885 19.909 3.96937 21.3732 4.23632C21.7301 4.30596 21.9393 4.22471 22.1607 3.96937C23.059 2.93641 23.9695 1.91505 24.8924 0.916902C25.2123 0.580318 25.6061 0.301765 25.9752 0C26.1844 0 26.3813 0 26.5904 0C28.1285 0.835658 29.6666 1.68292 31.2047 2.50697C31.3646 2.58822 31.6477 2.58822 31.8076 2.50697C33.3457 1.69453 34.8838 0.847264 36.4219 0.0116064C36.6311 0.0116064 36.8279 0.0116064 37.0371 0.0116064C37.3816 0.301765 37.7754 0.557105 38.083 0.882083C39.0305 1.90344 39.941 2.93641 40.8516 3.98098C41.073 4.23632 41.2699 4.31757 41.6268 4.24793C43.091 3.98098 44.5676 3.77207 46.0441 3.53994C47.09 3.37745 47.5453 3.62118 47.9145 4.57291C48.4312 5.89603 48.948 7.20755 49.4525 8.54228C49.5879 8.89047 49.7725 9.05296 50.1785 9.1226C51.6305 9.35473 53.0701 9.63328 54.5221 9.88862C55.5557 10.0743 55.8756 10.3993 55.9002 11.4091C55.9248 12.8598 55.9494 14.3106 55.9494 15.7614C55.9494 16.0864 56.0479 16.2837 56.3555 16.4462C57.6598 17.1658 58.9641 17.9086 60.2561 18.6398C61.1543 19.1505 61.3143 19.5915 60.9697 20.5317C60.4775 21.878 59.9854 23.2243 59.4686 24.5707C59.3332 24.9072 59.3947 25.1394 59.6285 25.4063C60.7605 26.7178 61.8803 28.0526 63 29.3757ZM17.2635 6.04691C17.1773 6.24422 17.1035 6.3951 17.042 6.55759C16.5621 7.78787 16.0576 9.01814 15.6023 10.26C15.3809 10.8752 14.9748 11.2117 14.2857 11.3162C12.9199 11.5367 11.5541 11.8269 10.176 12.0358C9.7207 12.1054 9.60996 12.2911 9.60996 12.6858C9.60996 14.0205 9.57305 15.3552 9.58535 16.6899C9.58535 17.3167 9.32695 17.7461 8.76094 18.0595C7.54277 18.7327 6.33691 19.429 5.11875 20.1022C4.77422 20.2879 4.70039 20.4736 4.83574 20.845C5.32793 22.1101 5.7709 23.3984 6.26309 24.6751C6.48457 25.267 6.38613 25.7545 5.96777 26.2304C5.05723 27.2517 4.1959 28.3079 3.28535 29.3293C3.02695 29.6194 3.01465 29.8167 3.28535 30.1185C4.17129 31.1166 4.9957 32.1496 5.89395 33.1245C6.41074 33.6933 6.48457 34.262 6.21387 34.9468C5.73398 36.1538 5.31562 37.3957 4.83574 38.6028C4.68809 38.9626 4.76191 39.1483 5.11875 39.3456C6.36152 40.0187 7.57969 40.7383 8.81016 41.4231C9.33926 41.7133 9.58535 42.1195 9.58535 42.6998C9.58535 44.0577 9.62226 45.4041 9.62226 46.762C9.62226 47.145 9.7207 47.3423 10.176 47.412C11.5541 47.6209 12.9076 47.8994 14.2857 48.1316C14.9625 48.2476 15.3686 48.5842 15.6023 49.1994C16.0453 50.3832 16.5498 51.5438 16.9559 52.7393C17.1527 53.2964 17.4234 53.4241 18.0141 53.308C19.2814 53.0643 20.5611 52.925 21.8285 52.6813C22.5422 52.542 23.059 52.7161 23.502 53.2384C24.4002 54.2713 25.3354 55.2695 26.2336 56.3025C26.4797 56.581 26.6766 56.6042 27.0088 56.4301C28.2023 55.757 29.4328 55.1302 30.6264 54.4454C31.2416 54.0972 31.7953 54.1088 32.4105 54.4454C33.5918 55.107 34.7977 55.7221 35.9789 56.3953C36.348 56.6042 36.5695 56.581 36.8402 56.256C37.7262 55.2231 38.6613 54.2133 39.5596 53.1919C39.9779 52.7161 40.4701 52.5536 41.1346 52.6697C42.6604 52.9366 44.1984 53.1571 45.7611 53.4009C45.8719 53.1571 45.958 52.9482 46.0441 52.7393C46.5117 51.5438 46.9793 50.3484 47.4346 49.1529C47.6437 48.5958 48.0252 48.2592 48.665 48.1548C50.0555 47.9227 51.4336 47.6325 52.824 47.4236C53.2793 47.3539 53.39 47.1566 53.39 46.7736C53.39 45.4389 53.427 44.1042 53.4146 42.7694C53.4023 42.1311 53.673 41.7133 54.2391 41.3999C55.4572 40.7267 56.6631 40.0303 57.8812 39.3572C58.2258 39.1715 58.2996 38.9858 58.152 38.6144C57.6721 37.3841 57.2414 36.1306 56.7615 34.9003C56.5154 34.262 56.5893 33.7165 57.0691 33.1826C57.9674 32.1844 58.8164 31.1283 59.7146 30.1301C59.9854 29.8283 59.973 29.631 59.7146 29.3409C58.8287 28.3427 58.0043 27.3098 57.1061 26.3348C56.5893 25.7661 56.5154 25.1974 56.7861 24.5126C57.266 23.3056 57.6844 22.0637 58.1643 20.8566C58.3119 20.4968 58.2381 20.3111 57.8936 20.1138C56.6754 19.4407 55.4695 18.7443 54.2514 18.0711C53.6854 17.7577 53.4146 17.3399 53.427 16.7016C53.4393 15.39 53.39 14.0669 53.4023 12.7554C53.4023 12.326 53.2916 12.117 52.7748 12.0358C51.3967 11.8385 50.0432 11.5367 48.6773 11.3162C48.0375 11.2117 47.6561 10.8868 47.4469 10.3181C46.9916 9.09939 46.5117 7.89232 46.0318 6.67366C45.9457 6.46474 45.8473 6.26743 45.7488 6.05852C44.1861 6.30225 42.685 6.49956 41.1961 6.77811C40.4824 6.90578 39.9656 6.74329 39.5227 6.22101C38.6367 5.19965 37.7139 4.21311 36.8402 3.19175C36.5572 2.86677 36.348 2.84356 35.9666 3.06408C34.773 3.73725 33.5426 4.36399 32.349 5.03716C31.7707 5.36214 31.2539 5.36214 30.6756 5.03716C29.4574 4.35238 28.227 3.71404 27.0088 3.02926C26.6766 2.84356 26.4797 2.87838 26.2336 3.15693C25.323 4.2015 24.3756 5.22286 23.465 6.26743C23.0467 6.74329 22.5545 6.90578 21.89 6.78972C20.3643 6.51117 18.8508 6.30225 17.2635 6.04691Z" fill="black"/>
<path d="M9.00021 29.6804C9.06102 20.0142 16.4184 11.7369 26.67 9.83277C38.7701 7.58142 50.6148 15.0635 52.6822 26.2642C54.6887 37.1177 46.9909 47.4896 35.3286 49.6065C34.003 49.8417 32.641 49.8977 31.2912 49.9873C30.3426 50.0433 29.7467 49.5841 29.7346 48.8672C29.7224 48.1616 30.3061 47.68 31.2425 47.6688C35.7056 47.6016 39.7187 46.3023 43.1845 43.7149C47.5138 40.4667 49.9703 36.2664 50.4081 31.1253C51.1742 22.1311 44.6317 14.0778 35.0367 12.1625C24.3351 10.0232 13.5849 16.7212 11.8094 26.6786C10.9581 31.4725 11.9796 35.908 14.9834 39.9291C15.105 40.0971 15.2388 40.2651 15.3604 40.4331C15.8225 41.0827 15.7252 41.766 15.105 42.158C14.4969 42.5388 13.743 42.438 13.3173 41.7884C12.4174 40.4443 11.481 39.1002 10.7635 37.6777C9.49881 35.1576 8.98805 32.4582 9.00021 29.6804Z" fill="black"/>
<path d="M29.0789 28.8924C29.2918 28.609 29.4045 28.4082 29.5547 28.2546C31.6581 26.2584 33.7615 24.274 35.8775 22.2779C36.6913 21.5101 37.3424 21.4983 38.1311 22.2542C39.571 23.6008 40.9983 24.9473 42.4256 26.3057C43.1894 27.0262 43.1894 27.6758 42.4381 28.3963C38.3815 32.2706 34.3124 36.1448 30.2433 40.0191C29.4921 40.7396 28.791 40.7396 28.0272 40.0191C25.2352 37.4205 22.4306 34.8337 19.6511 32.2352C18.7747 31.4201 18.7872 30.8532 19.6636 30.0264C21.0784 28.6916 22.4932 27.3569 23.908 26.0222C24.6718 25.3135 25.3228 25.3017 26.074 26.0104C27.0381 26.9081 27.9771 27.8294 29.0789 28.8924ZM22.4557 31.0185C24.6467 33.1801 26.8628 35.3771 28.8661 37.3496C32.5596 33.9833 36.1905 30.6642 39.7337 27.4396C38.7947 26.5301 37.8933 25.656 36.8666 24.6638C36.7539 24.8292 36.6537 25.0418 36.491 25.1835C34.4001 27.1679 32.3092 29.1405 30.2183 31.113C29.3293 31.9517 28.7158 31.9635 27.8394 31.1249C26.9254 30.2508 26.0114 29.3531 25.135 28.5026C24.1334 29.4358 23.2194 30.298 22.4557 31.0185Z" fill="black"/>
<path d="M27.9995 15.4045C27.9867 15.9774 27.6044 16.3951 26.8779 16.6099C24.3163 17.3737 22.1242 18.6984 20.3399 20.5841C19.6772 21.2762 19.1164 22.0639 18.5557 22.8277C18.0331 23.5438 17.2812 23.7825 16.6185 23.4006C15.943 23.0187 15.8028 22.2787 16.2871 21.5269C18.6066 17.9465 21.882 15.5 26.1515 14.223C27.1328 13.9366 28.025 14.5094 27.9995 15.4045Z" fill="black"/>
<path d="M31.5 16.0351C30.6409 16.0351 29.9857 15.614 30.0002 15.0739C30.0148 14.5338 30.6846 14.131 31.5437 14.1493C32.3736 14.1676 32.9998 14.5612 32.9998 15.0831C33.0143 15.6232 32.3591 16.0351 31.5 16.0351Z" fill="black"/>
</svg>
