<svg width="83" height="83" viewBox="0 0 83 83" fill="none" xmlns="http://www.w3.org/2000/svg">
<g clip-path="url(#clip0)">
<path d="M83 41.0147C83 41.339 83 41.6632 83 41.9874C81.5248 43.8354 80.0496 45.6997 78.5582 47.5315C78.2502 47.9044 78.1853 48.2286 78.3475 48.6987C79.0283 50.5792 79.6768 52.4597 80.3252 54.3401C80.7791 55.6532 80.5684 56.2692 79.385 56.9825C77.699 58.0038 76.0131 59.0251 74.3109 59.9978C73.857 60.2571 73.6949 60.5651 73.6949 61.0839C73.6949 63.0778 73.6625 65.0718 73.6301 67.0819C73.5977 68.4923 73.1762 68.9462 71.8145 69.2056C69.9016 69.5622 68.0049 69.9675 66.092 70.2755C65.557 70.3728 65.3139 70.5997 65.1355 71.086C64.4709 72.9665 63.7738 74.8308 63.0768 76.695C62.6066 77.9595 61.9744 78.2999 60.6451 78.073C58.6998 77.7487 56.7545 77.4407 54.8254 77.0679C54.3553 76.9706 54.0797 77.1003 53.7879 77.4407C52.6045 78.8835 51.4049 80.3101 50.1891 81.7042C49.7676 82.1743 49.2488 82.5634 48.7625 82.9849C48.4869 82.9849 48.2275 82.9849 47.952 82.9849C45.9256 81.8177 43.8992 80.6343 41.8566 79.4833C41.6459 79.3698 41.273 79.3698 41.0623 79.4833C39.0197 80.6343 36.9934 81.8177 34.967 82.9849C34.6914 82.9849 34.432 82.9849 34.1564 82.9849C33.7025 82.5796 33.1838 82.2229 32.7785 81.769C31.5303 80.3425 30.3145 78.8997 29.1148 77.4407C28.823 77.0841 28.5637 76.9706 28.0936 77.0679C26.1645 77.4407 24.2191 77.7325 22.2738 78.073C20.9283 78.2999 20.2961 77.9433 19.8422 76.695C19.1613 74.847 18.4643 73.0151 17.7996 71.1509C17.6213 70.6646 17.4105 70.3565 16.827 70.2593C14.8816 69.9513 12.9688 69.546 11.0234 69.1731C9.75898 68.93 9.32129 68.4437 9.28887 67.1468C9.24023 65.1528 9.20781 63.1589 9.22402 61.1487C9.22402 60.5651 9.06191 60.2247 8.54316 59.9329C6.85723 58.9765 5.20371 57.9552 3.53398 56.9501C2.35059 56.2368 2.13984 55.6208 2.59375 54.3077C3.24219 52.4272 3.89063 50.5306 4.57148 48.6663C4.73359 48.1962 4.66875 47.8882 4.36074 47.4991C2.95039 45.6997 1.4752 43.8354 0 41.9874C0 41.6632 0 41.339 0 41.0147C1.4752 39.1667 2.95039 37.3024 4.4418 35.4706C4.7498 35.0815 4.81465 34.7735 4.63633 34.3034C3.93926 32.3743 3.27461 30.4452 2.60996 28.4999C2.2209 27.3327 2.46406 26.7005 3.51777 26.0683C5.23613 25.047 6.93828 24.0095 8.65664 23.0044C9.11055 22.745 9.27266 22.437 9.27266 21.9021C9.27266 19.8757 9.30508 17.8493 9.35371 15.8229C9.38613 14.5261 9.82383 14.0235 11.0883 13.7966C13.0174 13.4399 14.9465 13.0347 16.8918 12.7104C17.4268 12.6132 17.6699 12.3862 17.8482 11.8999C18.4967 10.0519 19.1938 8.20381 19.8746 6.35576C20.3609 5.02646 20.977 4.66982 22.3387 4.89678C24.284 5.221 26.2293 5.529 28.1584 5.90186C28.6285 5.99912 28.9041 5.88564 29.1959 5.529C30.3793 4.08623 31.5789 2.65967 32.7947 1.26553C33.2162 0.79541 33.735 0.406348 34.2213 -0.0151367C34.4969 -0.0151367 34.7563 -0.0151367 35.0318 -0.0151367C37.0582 1.15205 39.0846 2.33545 41.1109 3.48643C41.3217 3.5999 41.6945 3.5999 41.9053 3.48643C43.9316 2.35166 45.958 1.16826 47.9844 0.00107422C48.26 0.00107422 48.5193 0.00107422 48.7949 0.00107422C49.2488 0.406348 49.7676 0.762988 50.1729 1.21689C51.4211 2.64346 52.6207 4.08623 53.8203 5.54521C54.1121 5.90186 54.3715 6.01533 54.8416 5.91807C56.7707 5.54521 58.716 5.25342 60.6613 4.9292C62.0393 4.70225 62.6391 5.04268 63.1254 6.37197C63.8062 8.22002 64.4871 10.0519 65.1518 11.9161C65.3301 12.4024 65.5732 12.6294 66.1082 12.7267C68.0211 13.0509 69.9178 13.4399 71.8307 13.7966C73.1924 14.056 73.6139 14.5099 73.6463 15.9202C73.6787 17.9466 73.7111 19.9729 73.7111 21.9993C73.7111 22.4532 73.8408 22.7288 74.2461 22.9558C75.9645 23.9608 77.6828 24.9983 79.385 26.0196C80.5684 26.7329 80.7791 27.3489 80.3252 28.662C79.6768 30.5425 79.0283 32.423 78.3475 34.3034C78.1691 34.7735 78.2502 35.0978 78.5582 35.4706C80.0496 37.3024 81.5248 39.1667 83 41.0147ZM22.7439 8.43076C22.6305 8.70635 22.5332 8.91709 22.4521 9.14404C21.8199 10.8624 21.1553 12.5808 20.5555 14.3153C20.2637 15.1745 19.7287 15.6446 18.8209 15.7905C17.0215 16.0985 15.2221 16.5038 13.4064 16.7956C12.8066 16.8929 12.6607 17.1522 12.6607 17.7034C12.6607 19.5677 12.6121 21.4319 12.6283 23.2962C12.6283 24.1716 12.2879 24.7714 11.5422 25.2091C9.9373 26.1493 8.34863 27.122 6.74375 28.0622C6.28984 28.3216 6.19258 28.581 6.3709 29.0997C7.01934 30.8667 7.60293 32.6661 8.25137 34.4493C8.54316 35.2761 8.41348 35.9569 7.8623 36.6216C6.6627 38.0481 5.52793 39.5233 4.32832 40.9499C3.98789 41.3552 3.97168 41.6308 4.32832 42.0522C5.49551 43.4464 6.58164 44.8892 7.76504 46.2509C8.4459 47.0452 8.54316 47.8396 8.18652 48.796C7.5543 50.4819 7.00312 52.2165 6.3709 53.9024C6.17637 54.405 6.27363 54.6644 6.74375 54.9399C8.38105 55.8802 9.98594 56.8853 11.607 57.8417C12.3041 58.247 12.6283 58.8144 12.6283 59.6249C12.6283 61.5216 12.677 63.4021 12.677 65.2987C12.677 65.8337 12.8066 66.1093 13.4064 66.2065C15.2221 66.4983 17.0053 66.8874 18.8209 67.2116C19.7125 67.3737 20.2475 67.8438 20.5555 68.703C21.1391 70.3565 21.8037 71.9776 22.3387 73.6474C22.598 74.4255 22.9547 74.6038 23.7328 74.4417C25.4025 74.1013 27.0885 73.9067 28.7582 73.5663C29.6984 73.3718 30.3793 73.6149 30.9629 74.3444C32.1463 75.7872 33.3783 77.1814 34.5617 78.6241C34.8859 79.0132 35.1453 79.0456 35.583 78.8024C37.1555 77.8622 38.7766 76.9868 40.349 76.0304C41.1596 75.544 41.8891 75.5603 42.6996 76.0304C44.2559 76.9544 45.8445 77.8136 47.4008 78.7538C47.8871 79.0456 48.1789 79.0132 48.5355 78.5593C49.7027 77.1165 50.9348 75.7062 52.1182 74.2796C52.6693 73.6149 53.3178 73.388 54.1932 73.5501C56.2033 73.923 58.2297 74.231 60.2885 74.5714C60.4344 74.231 60.5479 73.9392 60.6613 73.6474C61.2773 71.9776 61.8934 70.3079 62.4932 68.6382C62.7687 67.8601 63.2713 67.3899 64.1143 67.244C65.9461 66.9198 67.7617 66.5145 69.5936 66.2228C70.1934 66.1255 70.3393 65.8499 70.3393 65.3149C70.3393 63.4507 70.3879 61.5864 70.3717 59.7222C70.3555 58.8306 70.7121 58.247 71.4578 57.8093C73.0627 56.869 74.6514 55.8964 76.2562 54.9562C76.7102 54.6968 76.8074 54.4374 76.6129 53.9187C75.9807 52.2003 75.4133 50.4495 74.7811 48.7312C74.4568 47.8396 74.5541 47.0776 75.1863 46.3319C76.3697 44.9378 77.4883 43.4626 78.6717 42.0685C79.0283 41.647 79.0121 41.3714 78.6717 40.9661C77.5045 39.572 76.4184 38.1292 75.235 36.7675C74.5541 35.9731 74.4568 35.1788 74.8135 34.2224C75.4457 32.5364 75.9969 30.8019 76.6291 29.1159C76.8236 28.6134 76.7264 28.354 76.2725 28.0784C74.6676 27.1382 73.0789 26.1655 71.474 25.2253C70.7283 24.7876 70.3717 24.204 70.3879 23.3124C70.4041 21.4806 70.3393 19.6325 70.3555 17.8007C70.3555 17.2009 70.2096 16.9091 69.5287 16.7956C67.7131 16.52 65.9299 16.0985 64.1305 15.7905C63.2875 15.6446 62.785 15.1907 62.5094 14.3964C61.9096 12.6942 61.2773 11.0083 60.6451 9.30615C60.5316 9.01436 60.402 8.73877 60.2723 8.44697C58.2135 8.7874 56.2357 9.06299 54.2742 9.45205C53.334 9.63037 52.6531 9.40342 52.0695 8.67393C50.9023 7.24736 49.6865 5.86943 48.5355 4.44287C48.1627 3.98897 47.8871 3.95654 47.3846 4.26455C45.8121 5.20479 44.191 6.08018 42.6186 7.02041C41.8566 7.47432 41.1758 7.47432 40.4139 7.02041C38.809 6.06396 37.1879 5.17236 35.583 4.21592C35.1453 3.95654 34.8859 4.00518 34.5617 4.39424C33.3621 5.85322 32.1139 7.27979 30.9143 8.73877C30.3631 9.40342 29.7146 9.63037 28.8393 9.46826C26.8291 9.0792 24.8352 8.7874 22.7439 8.43076Z" fill="white"/>
<path d="M11.2991 41.4352C11.3802 27.4451 21.1878 15.4652 34.8536 12.7094C50.9835 9.45098 66.7729 20.2799 69.5288 36.4908C72.2036 52.1992 61.9421 67.2105 46.3958 70.2744C44.6288 70.6148 42.8132 70.6959 41.0138 70.8256C39.7493 70.9066 38.955 70.242 38.9388 69.2045C38.9225 68.1832 39.7007 67.4861 40.9489 67.4699C46.8983 67.3727 52.2479 65.4922 56.8681 61.7475C62.6391 57.0463 65.9138 50.9672 66.4974 43.5264C67.5186 30.509 58.7972 18.8533 46.0067 16.0813C31.7411 12.985 17.4106 22.6791 15.0438 37.0906C13.9091 44.0289 15.2708 50.4484 19.2749 56.2682C19.437 56.5113 19.6153 56.7545 19.7774 56.9977C20.3934 57.9379 20.2638 58.9268 19.437 59.4941C18.6265 60.0453 17.6214 59.8994 17.054 58.9592C15.8544 57.0139 14.6061 55.0686 13.6497 53.0098C11.9638 49.3623 11.2829 45.4555 11.2991 41.4352Z" fill="white"/>
<path d="M38.1282 40.1545C38.4038 39.7655 38.5497 39.4899 38.7442 39.2791C41.4677 36.5395 44.1911 33.8161 46.9308 31.0764C47.9845 30.0227 48.8274 30.0065 49.8487 31.044C51.713 32.892 53.561 34.7401 55.4091 36.6043C56.3979 37.5932 56.3979 38.4848 55.4253 39.4737C50.1729 44.7909 44.9044 50.1081 39.6358 55.4252C38.6632 56.4141 37.7554 56.4141 36.7665 55.4252C33.1515 51.8588 29.5202 48.3086 25.9214 44.7422C24.7866 43.6237 24.8028 42.8455 25.9376 41.7108C27.7694 39.8789 29.6013 38.0471 31.4331 36.2153C32.422 35.2426 33.2649 35.2264 34.2376 36.1991C35.4858 37.4311 36.7017 38.6955 38.1282 40.1545ZM29.5526 43.0725C32.3895 46.0391 35.2589 49.0543 37.8526 51.7616C42.6349 47.1414 47.336 42.5862 51.9237 38.1606C50.7079 36.9123 49.5407 35.7127 48.2114 34.351C48.0655 34.578 47.9358 34.8698 47.7251 35.0643C45.0179 37.7877 42.3106 40.495 39.6034 43.2022C38.4524 44.3532 37.6581 44.3694 36.5233 43.2184C35.3399 42.0188 34.1565 40.7868 33.0218 39.6196C31.7249 40.9002 30.5415 42.0836 29.5526 43.0725Z" fill="white"/>
<path d="M36.2801 21.6902C36.2639 22.4683 35.7776 23.0357 34.8536 23.3275C31.5952 24.365 28.8069 26.1644 26.5374 28.7257C25.6944 29.666 24.9811 30.7359 24.2678 31.7734C23.6032 32.7461 22.6467 33.0703 21.8038 32.5515C20.9446 32.0328 20.7663 31.0277 21.3823 30.0064C24.3327 25.1431 28.4989 21.8199 33.9296 20.0853C35.1778 19.6963 36.3126 20.4744 36.2801 21.6902Z" fill="white"/>
<path d="M23.2952 61.4397C24.2678 61.4235 24.9973 62.1368 25.0135 63.0932C25.0135 64.0335 24.2678 64.8116 23.3438 64.8116C22.4198 64.8116 21.6741 64.0335 21.6741 63.0932C21.6741 62.1692 22.3874 61.4559 23.2952 61.4397Z" fill="white"/>
<path d="M41.5001 22.4196C40.5436 22.4196 39.8141 21.6739 39.8303 20.7175C39.8466 19.761 40.5923 19.0477 41.5487 19.0802C42.4727 19.1126 43.1698 19.8097 43.1698 20.7337C43.186 21.6901 42.4565 22.4196 41.5001 22.4196Z" fill="white"/>
</g>
<defs>
<clipPath id="clip0">
<rect width="83" height="83" fill="white"/>
</clipPath>
</defs>
</svg>
