<svg width="17" height="34" viewBox="0 0 17 34" fill="none" xmlns="http://www.w3.org/2000/svg">
<path d="M16.9776 5.9594C15.6824 5.9594 14.5096 5.95241 13.3385 5.96115C11.7036 5.97338 11.1896 6.51006 11.1844 8.18128C11.1827 9.16548 11.1844 10.1479 11.1844 11.237C13.1419 11.237 15.0253 11.237 17 11.237C16.7741 13.0726 16.5826 14.798 16.3205 16.5111C16.2929 16.6964 15.8514 16.9377 15.5961 16.9464C14.1664 16.9884 12.7332 16.9674 11.2069 16.9674C11.2069 22.6331 11.2069 28.2359 11.2069 33.975C10.4032 33.975 9.69433 33.975 8.98377 33.975C7.51953 33.9768 6.05184 33.9436 4.58933 33.9978C3.81323 34.0257 3.55108 33.7985 3.55625 32.9733C3.5942 27.9947 3.57695 23.016 3.57867 18.0355C3.57867 17.7226 3.57867 17.4097 3.57867 17.0111C2.34727 17.0111 1.20899 17.0111 0 17.0111C0 15.0847 0 13.2421 0 11.2912C1.14863 11.2912 2.30932 11.2912 3.57522 11.2912C3.57522 10.0028 3.5666 8.81935 3.57867 7.63761C3.5873 6.8527 3.54591 6.05555 3.66318 5.28462C4.10815 2.35824 6.41574 0.295438 9.44253 0.148595C11.7087 0.0402105 13.9801 0.0157409 16.248 7.63336e-06C16.4895 -0.0017405 16.9379 0.297188 16.9431 0.466757C16.9965 2.26384 16.9776 4.06267 16.9776 5.9594Z" fill="white" fill-opacity="0.5"/>
</svg>
