<svg width="35" height="35" viewBox="0 0 35 35" fill="none" xmlns="http://www.w3.org/2000/svg">
<g clip-path="url(#clip0)">
<path d="M17.4999 35.0005C15.0916 35.0005 12.7369 35.0541 10.3286 35.0005C4.38827 34.8933 0.374509 31.3022 0.160442 25.3528C-0.107142 19.8857 -0.000108417 14.365 0.213959 8.84434C0.428026 3.96685 4.33475 0.214939 9.20479 0.107742C14.717 0.000544365 20.2828 0.000544365 25.795 0.107742C30.7721 0.214939 34.7858 4.23485 34.8929 9.21953C34.9999 14.7402 34.9999 20.3145 34.8929 25.8352C34.7858 30.7126 30.9861 34.5718 26.1161 34.8397C23.2262 35.0005 20.3363 34.8933 17.4999 34.8933C17.4999 34.8933 17.4999 34.9469 17.4999 35.0005ZM31.8424 17.4737C31.7889 14.7938 31.8959 12.1139 31.7889 9.43393C31.6283 6.00361 29.2201 3.48446 25.795 3.32367C21.4601 3.21647 17.1253 3.27007 12.7904 3.27007C11.5595 3.27007 10.2751 3.27007 9.04423 3.37727C6.20784 3.64526 4.1742 5.41402 3.532 8.20116C3.37145 8.89794 3.26442 9.64832 3.26442 10.3451C3.26442 15.1154 3.26442 19.8857 3.26442 24.6024C3.26442 25.2992 3.31793 25.9959 3.47848 26.6927C4.1742 29.9087 6.63598 31.731 10.2216 31.731C15.0381 31.731 19.8011 31.731 24.6176 31.731C29.113 31.731 31.7889 28.9975 31.7889 24.4952C31.8424 22.1904 31.8424 19.8321 31.8424 17.4737Z" fill="white" fill-opacity="0.5"/>
<path d="M8.50903 17.4205C8.50903 12.4358 12.5763 8.3623 17.4999 8.3623C22.4234 8.3623 26.4907 12.4358 26.4907 17.3669C26.4907 22.3516 22.4769 26.4251 17.4999 26.4251C12.5228 26.4251 8.50903 22.4588 8.50903 17.4205ZM23.2797 17.4741C23.2797 14.2582 20.7109 11.6318 17.4999 11.6854C14.3959 11.6854 11.7736 14.3118 11.72 17.4205C11.72 20.5828 14.2888 23.2092 17.4463 23.2092C20.6574 23.2092 23.2797 20.6364 23.2797 17.4741Z" fill="white" fill-opacity="0.5"/>
<path d="M26.919 6.16406C28.0428 6.16406 28.8991 7.07524 28.8991 8.20082C28.8991 9.37999 27.9358 10.2376 26.812 10.2376C25.6881 10.184 24.7783 9.21919 24.8318 8.14722C24.8854 7.02164 25.7951 6.16406 26.919 6.16406Z" fill="white" fill-opacity="0.5"/>
</g>
<defs>
<clipPath id="clip0">
<rect width="35" height="35" fill="white"/>
</clipPath>
</defs>
</svg>
