<svg width="39" height="38" viewBox="0 0 39 38" fill="none" xmlns="http://www.w3.org/2000/svg">
<g clip-path="url(#clip0)">
<path d="M19.4473 37.9999C15.491 37.9999 11.5347 37.9999 7.57845 37.9999C3.05951 37.9999 0.0175858 34.9879 2.34786e-06 30.4875C2.34786e-06 28.7888 -0.0175811 27.1077 2.34786e-06 25.4091C0.0527526 21.2764 2.95401 18.1769 7.08612 18.1418C15.3503 18.0543 23.6145 18.0543 31.8787 18.1418C36.0284 18.1769 38.9121 21.2764 38.9648 25.4091C38.9824 27.1953 38.9824 28.964 38.9648 30.7501C38.8945 34.9354 35.8526 37.9649 31.6501 37.9999C27.5884 38.0174 23.5266 37.9999 19.4473 37.9999ZM22.3837 33.3243C23.2277 34.0248 24.1244 34.2875 25.0564 33.8322C25.9883 33.3594 25.9883 32.4312 25.9883 31.5382C25.9883 29.787 26.0059 28.0359 25.9707 26.2847C25.9531 25.4617 25.7949 24.6211 24.9509 24.2008C24.0893 23.763 23.298 24.0082 22.5947 24.5861C22.5419 24.6386 22.4364 24.6211 22.2782 24.6561C22.2782 23.3077 22.2782 22.0119 22.2782 20.681C21.61 20.681 21.0122 20.681 20.3792 20.681C20.3792 25.1114 20.3792 29.4893 20.3792 33.8497C21.9968 34.0598 22.1199 34.0248 22.3837 33.3243ZM32.8106 29.2266C32.8106 28.5262 32.8282 27.8958 32.8106 27.2478C32.8106 26.8451 32.7931 26.4248 32.7227 26.0395C32.4766 24.5861 31.4919 23.8156 29.927 23.8506C28.4324 23.8856 27.1488 24.8312 27.0785 26.1796C26.9729 28.0709 26.9554 29.9621 27.0785 31.8534C27.184 33.587 28.8368 34.5326 30.7358 34.1124C32.2656 33.7796 33.1096 32.2912 32.67 30.6976C32.0721 30.6976 31.4567 30.6976 30.8061 30.6976C30.7885 31.0128 30.771 31.3105 30.7534 31.5907C30.7182 32.081 30.5424 32.4312 29.9797 32.4488C29.4346 32.4663 29.1181 32.2036 29.1005 31.6958C29.0654 30.8902 29.083 30.0847 29.083 29.2266C30.349 29.2266 31.5271 29.2266 32.8106 29.2266ZM18.7615 33.8847C18.7615 30.5925 18.7615 27.3879 18.7615 24.1658C18.1109 24.1658 17.5307 24.1658 16.8625 24.1658C16.8625 24.5335 16.8625 24.8488 16.8625 25.164C16.8625 27.1428 16.8625 29.1216 16.8625 31.1179C16.8625 31.8709 16.335 32.1686 15.7547 32.2211C15.0162 32.2912 15.1745 31.6432 15.1745 31.2054C15.1569 29.5769 15.1745 27.9308 15.1745 26.3022C15.1745 25.5842 15.1745 24.8663 15.1745 24.1658C14.4536 24.1658 13.8557 24.1658 13.2051 24.1658C13.2051 24.9713 13.2051 25.6893 13.2051 26.4248C13.2051 28.3861 13.1876 30.3299 13.2051 32.2912C13.2227 33.8847 14.2601 34.4801 15.6844 33.7446C16.0712 33.552 16.4053 33.2718 16.8097 32.9916C16.8625 33.3068 16.8977 33.587 16.9328 33.8672C17.5307 33.8847 18.1109 33.8847 18.7615 33.8847ZM7.8422 33.8847C8.59829 33.8847 9.26646 33.8847 10.0401 33.8847C10.0401 30.1022 10.0401 26.3547 10.0401 22.5372C10.849 22.5372 11.5523 22.5372 12.2381 22.5372C12.2381 21.8543 12.2381 21.2764 12.2381 20.681C9.98738 20.681 7.78945 20.681 5.59153 20.681C5.59153 21.3289 5.59153 21.9243 5.59153 22.5898C6.3652 22.5898 7.05095 22.5898 7.8422 22.5898C7.8422 26.3898 7.8422 30.1197 7.8422 33.8847Z" fill="white" fill-opacity="0.5"/>
<path d="M12.8007 14.6747C11.9567 14.6747 11.2182 14.6747 10.3566 14.6747C10.3566 13.0111 10.3742 11.3825 10.339 9.77149C10.3214 9.19361 10.2335 8.61573 10.0577 8.07287C9.28401 5.6913 8.47517 3.30974 7.68392 0.945681C7.596 0.70052 7.54325 0.455358 7.42017 0.0701048C8.19384 0.0701048 8.87959 0.0350818 9.54776 0.105128C9.74118 0.122639 9.96976 0.455358 10.0401 0.683008C10.4621 2.10144 10.8489 3.53739 11.2358 4.97333C11.3237 5.27103 11.4116 5.55121 11.6929 5.81388C12.1149 4.22034 12.5897 2.6443 12.9414 1.03324C13.1172 0.24522 13.4337 -0.0524758 14.2249 0.0525933C14.6821 0.122639 15.1393 0.0701048 15.7195 0.0701048C15.5613 0.577939 15.4382 0.998215 15.2975 1.40098C15.1393 1.87379 15.0162 2.3466 14.8228 2.8019C13.3458 6.42679 12.3963 10.1567 12.8183 14.1143C12.871 14.2544 12.8183 14.4296 12.8007 14.6747Z" fill="white" fill-opacity="0.5"/>
<path d="M22.366 9.28128C22.366 10.2794 22.4187 11.2601 22.3484 12.2582C22.2429 14.0269 21.0121 15.0075 19.0427 14.955C17.214 14.9025 16.0008 13.8343 15.9656 12.1532C15.9304 10.1744 15.948 8.17805 15.9656 6.19925C15.9656 5.86653 16.0535 5.49879 16.1942 5.18358C16.7393 3.95778 18.357 3.34487 20.0801 3.67759C21.4165 3.92275 22.2956 4.92091 22.366 6.28681C22.4187 7.30248 22.3836 8.30063 22.366 9.28128ZM18.2515 9.29879C18.2515 10.2094 18.269 11.1025 18.2515 12.0131C18.2339 12.6785 18.48 13.1163 19.1834 13.1163C19.8691 13.0988 20.1505 12.661 20.1505 12.0131C20.1505 10.1744 20.1505 8.33566 20.1505 6.49695C20.1505 5.84902 19.7988 5.5163 19.1834 5.49879C18.5504 5.49879 18.2339 5.83151 18.2515 6.49695C18.269 7.42506 18.2515 8.35317 18.2515 9.29879Z" fill="white" fill-opacity="0.5"/>
<path d="M24.2124 3.92285C24.9685 3.92285 25.6015 3.92285 26.34 3.92285C26.3576 4.23806 26.3928 4.53575 26.3928 4.85096C26.3928 7.14497 26.3928 9.45649 26.3928 11.7505C26.3928 12.2233 26.2521 12.8187 26.9906 12.9063C27.5708 12.9588 28.2918 12.2583 28.2918 11.6454C28.2918 9.28138 28.2918 6.91732 28.2918 4.57078C28.2918 4.39566 28.3093 4.22055 28.3269 3.97539C29.0127 3.97539 29.6984 3.97539 30.4545 3.97539C30.4545 7.51271 30.4545 11.0676 30.4545 14.6749C29.7512 14.6749 29.0654 14.6749 28.3269 14.6749C28.3093 14.3772 28.2742 14.0795 28.239 13.7293C27.7643 14.027 27.3423 14.3597 26.8675 14.5874C25.285 15.3579 24.2124 14.6924 24.1948 12.9413C24.1948 9.94681 24.2124 6.96986 24.2124 3.92285Z" fill="white" fill-opacity="0.5"/>
<path d="M22.2957 28.946C22.2957 28.1054 22.3132 27.2474 22.2957 26.4068C22.2781 25.8464 22.5418 25.6013 23.0693 25.5663C23.6144 25.5312 23.9133 25.8289 23.9133 26.3543C23.9309 28.158 23.9485 29.9792 23.8958 31.7829C23.8958 32.028 23.4034 32.5008 23.2452 32.4483C22.8935 32.3607 22.4012 32.028 22.366 31.7478C22.2253 30.8197 22.2957 29.8741 22.2957 28.946Z" fill="white" fill-opacity="0.5"/>
<path d="M30.9469 27.6515C30.1381 27.6515 29.6282 27.6515 28.8721 27.6515C29.0655 26.9511 29.171 26.3031 29.4347 25.7428C29.4875 25.6202 30.2963 25.6027 30.3491 25.7252C30.6128 26.2856 30.7359 26.916 30.9469 27.6515Z" fill="white" fill-opacity="0.5"/>
</g>
<defs>
<clipPath id="clip0">
<rect width="39" height="38" fill="white"/>
</clipPath>
</defs>
</svg>
