<svg width="228" height="50" viewBox="0 0 228 50" fill="none" xmlns="http://www.w3.org/2000/svg">
    <path fill-rule="evenodd" clip-rule="evenodd" d="M153.187 35.64C153.05 35.774 152.844 35.8409 152.639 35.8409C152.434 35.8409 152.228 35.774 152.091 35.64C151.954 35.506 151.886 35.305 151.886 35.104C151.886 34.903 151.954 34.7021 152.091 34.5681C152.228 34.4341 152.434 34.3671 152.639 34.3671C152.844 34.3671 153.05 34.4341 153.187 34.5681C153.323 34.7021 153.392 34.903 153.392 35.104C153.392 35.305 153.323 35.506 153.187 35.64ZM153.05 46.0238H152.16V37.6497H153.187V46.0238H153.05ZM159.894 37.9177C160.442 37.5827 161.058 37.4488 161.742 37.4488C162.769 37.4488 163.591 37.7837 164.138 38.3867C164.686 38.9896 165.028 39.7935 165.028 40.7984V45.9568H164.001V40.7984C164.001 40.0615 163.796 39.4585 163.385 39.0566C162.975 38.6546 162.427 38.3867 161.674 38.3867C160.853 38.3867 160.1 38.6546 159.552 39.2576C159.073 39.7935 158.799 40.5304 158.799 41.6023V46.0238H157.773V37.6497H158.799V38.9896C159.073 38.5206 159.484 38.1857 159.894 37.9177ZM176.869 39.3246V34.3671H177.896V46.0238H176.869V44.282C176.527 44.8179 176.048 45.2869 175.501 45.5549C174.884 45.8898 174.132 46.0908 173.379 46.0908C172.147 46.0908 171.051 45.6218 170.23 44.8179C169.409 44.014 168.93 42.9421 168.93 41.7363C168.93 40.5304 169.409 39.4585 170.23 38.6546C171.051 37.8507 172.147 37.3818 173.379 37.3818C174.2 37.3818 174.884 37.5827 175.501 37.9177C176.048 38.3197 176.527 38.7886 176.869 39.3246ZM170.915 44.215C171.531 44.8179 172.42 45.2199 173.379 45.2199C174.337 45.2199 175.227 44.8179 175.843 44.215C176.459 43.6121 176.869 42.7412 176.869 41.8033C176.869 40.8654 176.459 39.9945 175.843 39.3915C175.227 38.7886 174.337 38.3867 173.379 38.3867C172.42 38.3867 171.531 38.7886 170.915 39.3915C170.298 39.9945 169.888 40.8654 169.888 41.8033C169.888 42.8082 170.298 43.6121 170.915 44.215ZM188.506 42.0712V37.6497H189.532V46.0238H188.506V44.6839C188.232 45.1529 187.821 45.4879 187.41 45.7558C186.863 46.0908 186.247 46.2248 185.562 46.2248C184.536 46.2248 183.714 45.8898 183.167 45.2869C182.619 44.6839 182.277 43.88 182.277 42.8752V37.7167H183.304V42.8752C183.304 43.6121 183.509 44.215 183.92 44.617C184.33 45.0189 184.878 45.2869 185.631 45.2869C186.452 45.2869 187.205 45.0189 187.753 44.416C188.232 43.88 188.506 43.0761 188.506 42.0712ZM195.419 38.8556C195.077 39.1236 194.871 39.4585 194.871 39.9275C194.871 40.8654 195.898 41.1333 197.062 41.4013C198.431 41.7363 199.936 42.1382 199.936 43.813C199.936 44.483 199.594 45.1529 199.047 45.5549C198.499 45.9568 197.746 46.2248 196.856 46.2248C196.035 46.2248 195.35 46.0238 194.803 45.7558C194.187 45.4209 193.776 44.9519 193.571 44.349V44.282L194.461 43.813V43.88C194.597 44.282 194.871 44.6839 195.282 44.8849C195.693 45.1529 196.24 45.2869 196.788 45.2869C197.404 45.2869 197.951 45.1529 198.294 44.8849C198.636 44.617 198.841 44.282 198.841 43.813C198.841 42.8082 197.746 42.5402 196.651 42.2722C195.282 41.9373 193.776 41.5353 193.776 39.9275C193.776 39.2576 194.05 38.6546 194.597 38.1857C195.077 37.7837 195.83 37.5158 196.651 37.5158C197.335 37.5158 197.951 37.6497 198.431 37.9847C198.91 38.2527 199.32 38.7216 199.594 39.2576V39.3246L198.773 39.7935L198.704 39.7265C198.567 39.3246 198.294 39.0566 197.951 38.8556C197.609 38.6546 197.13 38.5206 196.651 38.5206C196.309 38.3867 195.761 38.5876 195.419 38.8556ZM208.219 37.7167V38.5876H205.755V43.813C205.755 44.483 205.96 44.8179 206.302 45.0189C206.713 45.1529 207.329 45.1529 208.15 45.0859H208.219V45.9568H208.15C207.055 46.0908 206.165 46.0908 205.618 45.7558C205.002 45.4209 204.728 44.8179 204.728 43.813V38.5876H202.88V37.6497H204.728V35.64L205.755 35.372V37.7167H208.219ZM213.284 37.7167V38.9896C213.558 38.5206 213.9 38.1857 214.242 37.9847C214.79 37.6497 215.406 37.5158 216.022 37.5158H216.09V38.4536H216.022C215.269 38.4536 214.516 38.7216 214.037 39.2576C213.626 39.7265 213.284 40.3964 213.284 41.3343V45.9568H212.257V37.6497H213.284V37.7167ZM223.277 44.8179L226.152 37.6497H227.247L223.619 46.6937C223.277 47.4976 222.798 48.1676 222.182 48.6365C221.634 49.1055 220.95 49.3064 220.197 49.2394H220.129V48.3015H220.197C220.676 48.3685 221.155 48.1676 221.566 47.8996C221.977 47.5646 222.387 47.0287 222.593 46.4258L222.73 46.0238L218.828 37.5827H219.923L223.277 44.8179Z" fill="white"/>
    <path d="M30.1171 11.6567H0V17.485H30.1171V11.6567Z" fill="white"/>
    <path d="M30.1171 19.6288H0V25.4571H30.1171V19.6288Z" fill="white"/>
    <path fill-rule="evenodd" clip-rule="evenodd" d="M30.1855 0.133987H22.1087V3.68459H19.097V0.133987H11.0886V3.68459H7.93996V0.133987H0C0 3.28263 0 6.29729 0 9.51293H30.1171C30.1855 6.29729 30.1855 3.28263 30.1855 0.133987Z" fill="white"/>
    <path d="M41.6848 0.669922H65.6416V5.82834H47.5713V11.2547H63.5197V16.4131H47.5713V26.194H41.6848V0.669922Z" fill="white"/>
    <path d="M100.687 13.4655C100.687 15.4752 100.276 17.284 99.5233 18.9589C98.7703 20.6337 97.6752 22.0405 96.3747 23.1794C95.0742 24.3182 93.4999 25.2561 91.7202 25.9261C89.9406 26.596 88.0925 26.864 86.1075 26.864C84.1225 26.864 82.2744 26.529 80.4948 25.9261C78.7151 25.2561 77.1408 24.3852 75.8403 23.1794C74.5398 22.0405 73.4446 20.6337 72.6917 18.9589C71.9388 17.284 71.5281 15.4752 71.5281 13.4655C71.5281 11.4557 71.9388 9.6469 72.6917 7.97209C73.4446 6.29728 74.5398 4.89044 75.8403 3.75157C77.1408 2.6127 78.7151 1.6748 80.4948 1.00488C82.2744 0.334956 84.1225 0.0669861 86.1075 0.0669861C88.0925 0.0669861 89.9406 0.401948 91.7202 1.00488C93.4999 1.6748 95.0742 2.54571 96.3747 3.75157C97.6752 4.89044 98.7703 6.36427 99.5233 7.97209C100.276 9.6469 100.687 11.4557 100.687 13.4655ZM77.3461 13.4655C77.3461 14.8053 77.5515 15.9442 78.0306 17.0161C78.5098 18.0879 79.1258 18.9589 79.8787 19.6958C80.6316 20.4327 81.5899 20.9686 82.6166 21.3706C83.7118 21.7725 84.807 21.9735 86.039 21.9735C87.2711 21.9735 88.4347 21.7725 89.4614 21.3706C90.5566 20.9686 91.4464 20.4327 92.1993 19.6958C92.9523 18.9589 93.5683 18.0879 94.0474 17.0161C94.5266 15.9442 94.7319 14.8053 94.7319 13.4655C94.7319 12.1256 94.5266 10.9868 94.0474 9.91487C93.5683 8.84299 92.9523 7.97209 92.1993 7.23518C91.4464 6.49826 90.4881 5.96232 89.4614 5.56037C88.3663 5.15841 87.2711 4.95743 86.039 4.95743C84.807 4.95743 83.6434 5.15841 82.6166 5.56037C81.5215 5.96232 80.6316 6.49826 79.8787 7.23518C79.1258 7.97209 78.5098 8.84299 78.0306 9.91487C77.5515 10.9198 77.3461 12.1256 77.3461 13.4655Z" fill="white"/>
    <path d="M122.727 0.669922C124.301 0.669922 125.67 0.937892 126.971 1.40684C128.271 1.87579 129.435 2.54571 130.393 3.41661C131.351 4.28751 132.104 5.35939 132.652 6.56526C133.2 7.77112 133.473 9.17796 133.473 10.6518C133.473 12.5946 132.994 14.3364 132.104 15.8102C131.215 17.284 129.983 18.3559 128.408 19.1598L132.447 26.194H126.013L122.932 20.4997H113.213V26.194H107.326V0.669922H122.727ZM113.281 15.2743H122.522C124.028 15.2743 125.26 14.8723 126.218 14.0684C127.176 13.2645 127.655 12.1256 127.655 10.6518C127.655 9.17796 127.176 8.03909 126.218 7.16819C125.26 6.29729 124.028 5.89533 122.522 5.89533H113.281V15.2743Z" fill="white"/>
    <path d="M164.891 0.669922V5.82834H154.282V26.194H148.395V5.82834H137.786V0.669922H164.891Z" fill="white"/>
    <path d="M194.666 0.669922V5.82834H176.869V10.6518H192.886V15.8102H176.869V20.9016H195.35V26.194H170.983V0.669922H194.666Z" fill="white"/>
    <path d="M224.441 8.17308C222.866 7.1012 221.292 6.36428 219.649 5.96233C218.007 5.49338 216.159 5.2924 214.105 5.2924C212.805 5.2924 211.778 5.3594 210.957 5.49338C210.135 5.62736 209.451 5.82834 208.972 6.09631C208.492 6.36428 208.15 6.63225 208.013 6.96721C207.808 7.30218 207.739 7.63714 207.739 7.9721C207.739 8.70902 208.082 9.17796 208.698 9.44593C209.314 9.7139 210.135 9.91488 211.162 10.0489L218.965 10.9198C221.771 11.2547 223.962 12.0586 225.604 13.1975C227.179 14.4034 228 16.1452 228 18.5569C228 20.0307 227.658 21.2366 226.973 22.2415C226.289 23.2464 225.331 24.1173 224.167 24.8542C222.935 25.5241 221.497 26.0601 219.855 26.395C218.212 26.73 216.432 26.864 214.447 26.864C211.778 26.864 209.382 26.529 207.26 25.9261C205.138 25.3231 203.017 24.2513 200.963 22.7104L203.77 18.2219C205.549 19.4278 207.397 20.3657 209.177 20.9016C210.957 21.5046 213.01 21.7725 215.132 21.7725C217.185 21.7725 218.896 21.5046 220.265 20.9686C221.634 20.4327 222.319 19.6288 222.319 18.5569C222.319 17.82 222.114 17.284 221.634 16.9491C221.224 16.6141 220.402 16.3462 219.307 16.2122L210.546 15.2743C207.876 14.9393 205.754 14.2694 204.249 13.1305C202.743 11.9916 201.99 10.2498 201.99 7.90511C201.99 6.56526 202.332 5.35939 202.948 4.4215C203.564 3.41661 204.454 2.6127 205.549 1.94278C206.644 1.27286 207.945 0.803909 209.382 0.468947C210.82 0.133985 212.394 0 214.105 0C216.569 0 218.828 0.26797 221.018 0.803909C223.14 1.40684 225.194 2.41173 227.247 3.88556L224.441 8.17308Z" fill="white"/>
</svg>
