<svg width="286" height="59" viewBox="0 0 286 59" fill="none" xmlns="http://www.w3.org/2000/svg">
<g clip-path="url(#clip0)">
<path d="M37.7784 14.8357H0V22.2965H37.7784V14.8357Z" fill="black"/>
<path d="M37.7784 25.0408H0V32.5015H37.7784V25.0408Z" fill="black"/>
<path fill-rule="evenodd" clip-rule="evenodd" d="M37.8643 0.0856934H27.7328V4.63075H23.955V0.0856934H13.9093V4.63075H9.95977V0.0856934H0C0 4.11622 0 7.97523 0 12.0915H37.7784L37.8643 0.0856934Z" fill="black"/>
<path fill-rule="evenodd" clip-rule="evenodd" d="M175.498 50.1672V48.0233H176.786V58.7428H175.498V56.5989C175.069 57.285 174.468 57.7995 173.781 58.2283C173.008 58.6571 172.064 58.9143 171.119 58.9143C169.574 58.9143 168.2 58.314 167.17 57.285C166.139 56.2559 165.538 54.8838 165.538 53.3402C165.538 51.7966 166.139 50.3387 167.17 49.3954C168.2 48.3663 169.574 47.7661 171.119 47.7661C172.149 47.7661 173.008 48.0233 173.781 48.4521C174.468 48.8809 175.069 49.4812 175.498 50.1672ZM168.114 56.5132C168.887 57.285 170.003 57.7995 171.205 57.7995C172.407 57.7995 173.523 57.285 174.296 56.5132C175.069 55.7414 175.584 54.6265 175.584 53.4259C175.584 52.2254 175.069 51.1105 174.296 50.3387C173.523 49.5669 172.407 49.0524 171.205 49.0524C170.003 49.0524 168.887 49.5669 168.114 50.3387C167.341 51.1105 166.826 52.2254 166.826 53.4259C166.826 54.6265 167.341 55.7414 168.114 56.5132ZM183.912 48.1091V49.7384C184.256 49.1382 184.685 48.7094 185.114 48.4521C185.801 48.0233 186.574 47.8518 187.347 47.8518H187.433V49.0524H187.347C186.402 49.0524 185.458 49.3954 184.857 50.0815C184.342 50.6818 183.912 51.5393 183.912 52.7399V58.6571H182.624V48.0233H183.912V48.1091ZM199.281 58.314C198.423 58.7428 197.478 59.0858 196.448 59.0858C194.817 59.0858 193.443 58.4855 192.412 57.4565C191.382 56.4274 190.781 55.0553 190.781 53.4259C190.781 51.7966 191.382 50.4245 192.412 49.3954C193.443 48.3663 194.817 47.7661 196.448 47.7661C197.478 47.7661 198.508 48.0233 199.281 48.5379C200.14 49.0524 200.741 49.7384 201.17 50.5102V50.596L200.14 51.1963L200.054 51.1105C199.796 50.4245 199.281 49.91 198.594 49.5669C197.993 49.2239 197.221 48.9666 196.362 48.9666C195.16 48.9666 194.044 49.4812 193.271 50.253C192.498 51.0248 191.983 52.1396 191.983 53.3402C191.983 54.5408 192.498 55.6556 193.271 56.4274C194.044 57.1992 195.16 57.7137 196.362 57.7137C197.221 57.7137 197.907 57.5422 198.508 57.1134C199.195 56.7704 199.711 56.1701 200.054 55.5698L200.14 55.4841L201.17 56.0844L201.084 56.1701C200.827 57.1134 200.14 57.7995 199.281 58.314ZM208.812 48.3664C209.499 47.9376 210.271 47.7661 211.13 47.7661C212.418 47.7661 213.448 48.1948 214.221 48.9666C214.994 49.7384 215.337 50.7675 215.337 52.1396V58.8286H214.049V52.1396C214.049 51.1963 213.792 50.4245 213.276 49.8242C212.761 49.3097 211.989 48.9666 211.044 48.9666C210.014 48.9666 209.069 49.3097 208.382 50.0815C207.781 50.7675 207.438 51.7108 207.438 53.0829V58.7428H206.15V43.8213H207.438V49.7384C207.781 49.1382 208.297 48.7094 208.812 48.3664ZM222.206 45.4507C222.034 45.6222 221.777 45.7079 221.519 45.7079C221.261 45.7079 221.004 45.6222 220.832 45.4507C220.66 45.2791 220.575 45.0219 220.575 44.7646C220.575 44.5073 220.66 44.2501 220.832 44.0786C221.004 43.907 221.261 43.8213 221.519 43.8213C221.777 43.8213 222.034 43.907 222.206 44.0786C222.378 44.2501 222.463 44.5073 222.463 44.7646C222.463 45.0219 222.378 45.2791 222.206 45.4507ZM222.034 58.7428H220.918V48.0233H222.206V58.7428H222.034ZM233.625 48.1091V49.2239H230.448V55.9986C230.448 56.8562 230.706 57.285 231.135 57.5422C231.651 57.7137 232.423 57.7137 233.454 57.628H233.539V58.7428H233.454C232.08 58.9143 230.964 58.9143 230.277 58.4855C229.504 58.0568 229.161 57.285 229.161 55.9986V49.2239H226.842V48.0233H229.161V45.4507L230.448 45.1076V48.0233H233.625V48.1091ZM238.949 49.3954C239.893 48.4521 241.267 47.8518 242.898 47.8518C244.444 47.8518 245.732 48.4521 246.676 49.4812C247.706 50.5102 248.222 51.9681 248.222 53.5117C248.222 53.5975 248.222 53.6832 248.222 53.769C248.222 53.8547 248.222 53.9405 248.222 54.0262H238.691C238.863 55.1411 239.292 56.0844 240.065 56.6847C240.838 57.3707 241.868 57.7137 243.07 57.7137C243.929 57.7137 244.615 57.5422 245.216 57.1992C245.817 56.8562 246.333 56.4274 246.676 55.8271L246.762 55.7414L247.878 56.4274L247.792 56.5132C247.363 57.285 246.676 57.8853 245.817 58.314C245.045 58.7428 244.1 58.9143 243.07 58.9143C241.439 58.9143 239.979 58.314 239.034 57.3707C238.004 56.3416 237.403 54.9696 237.403 53.3402C237.403 51.7966 237.918 50.4245 238.949 49.3954ZM245.732 50.0815C245.045 49.3954 244.014 48.9666 242.984 48.9666C241.782 48.9666 240.838 49.3954 240.065 50.0815C239.378 50.7675 238.863 51.7108 238.691 52.8257H246.934C246.762 51.7108 246.333 50.7675 245.732 50.0815ZM261.101 58.314C260.242 58.7428 259.297 59.0858 258.267 59.0858C256.636 59.0858 255.262 58.4855 254.232 57.4565C253.201 56.4274 252.6 55.0553 252.6 53.4259C252.6 51.7966 253.201 50.4245 254.232 49.3954C255.262 48.3663 256.636 47.7661 258.267 47.7661C259.297 47.7661 260.328 48.0233 261.101 48.5379C261.959 49.0524 262.56 49.7384 262.989 50.5102V50.596L261.959 51.1963L261.873 51.1105C261.616 50.4245 261.101 49.91 260.414 49.5669C259.813 49.2239 259.04 48.9666 258.181 48.9666C256.979 48.9666 255.863 49.4812 255.09 50.253C254.318 51.0248 253.802 52.1396 253.802 53.3402C253.802 54.5408 254.318 55.6556 255.09 56.4274C255.863 57.1992 256.979 57.7137 258.181 57.7137C259.04 57.7137 259.727 57.5422 260.328 57.1134C261.015 56.7704 261.53 56.1701 261.873 55.5698L261.959 55.4841L262.989 56.0844L262.904 56.1701C262.56 57.1134 261.873 57.7995 261.101 58.314ZM273.55 48.1091V49.2239H270.373V55.9986C270.373 56.8562 270.631 57.285 271.06 57.5422C271.575 57.7137 272.348 57.7137 273.379 57.628H273.464V58.7428H273.379C272.005 58.9143 270.889 58.9143 270.202 58.4855C269.429 58.0568 269.086 57.285 269.086 55.9986V49.2239H266.767V48.0233H269.086V45.4507L270.373 45.1076V48.0233H273.55V48.1091ZM279.646 49.5669C279.217 49.91 278.959 50.3387 278.959 50.939C278.959 52.1396 280.247 52.4826 281.707 52.8257C283.424 53.2544 285.313 53.769 285.313 55.9129C285.313 56.8562 284.884 57.628 284.197 58.1425C283.51 58.6571 282.566 59.0001 281.449 59.0001C280.419 59.0001 279.56 58.7428 278.874 58.3998C278.101 57.971 277.586 57.3707 277.328 56.5989V56.5132L278.444 55.9129V55.9986C278.616 56.5132 278.959 57.0277 279.475 57.285C279.99 57.628 280.677 57.7995 281.364 57.7995C282.136 57.7995 282.823 57.628 283.252 57.285C283.682 56.9419 283.939 56.5132 283.939 55.9129C283.939 54.6265 282.566 54.2835 281.192 53.9405C279.475 53.5117 277.586 52.9972 277.586 50.939C277.586 50.0815 277.929 49.3097 278.616 48.7094C279.217 48.1948 280.161 47.8518 281.278 47.8518C282.136 47.8518 282.909 48.0233 283.51 48.4521C284.111 48.7951 284.626 49.3954 284.97 50.0815V50.1672L283.939 50.7675L283.853 50.6818C283.682 50.1672 283.338 49.8242 282.909 49.5669C282.48 49.3097 281.879 49.1382 281.278 49.1382C280.677 49.0524 280.076 49.2239 279.646 49.5669Z" fill="black"/>
<path d="M52.2888 0.771973H82.3399V7.37517H59.6728V14.3214H79.6782V20.9246H59.6728V33.4449H52.2888V0.771973Z" fill="black"/>
<path d="M126.3 17.1512C126.3 19.7238 125.785 22.0392 124.841 24.1831C123.896 26.327 122.522 28.1279 120.891 29.5858C119.26 31.0436 117.285 32.2442 115.052 33.1017C112.82 33.9593 110.502 34.3023 108.012 34.3023C105.522 34.3023 103.204 33.8735 100.971 33.1017C98.7391 32.2442 96.7643 31.1294 95.1329 29.5858C93.5016 28.1279 92.1278 26.327 91.1834 24.1831C90.2389 22.0392 89.7238 19.7238 89.7238 17.1512C89.7238 14.5785 90.2389 12.2631 91.1834 10.1192C92.1278 7.97529 93.5016 6.17442 95.1329 4.71657C96.7643 3.25872 98.7391 2.05814 100.971 1.20058C103.204 0.343023 105.522 0 108.012 0C110.502 0 112.82 0.428779 115.052 1.20058C117.285 2.05814 119.26 3.17297 120.891 4.71657C122.522 6.17442 123.896 8.06105 124.841 10.1192C125.785 12.2631 126.3 14.5785 126.3 17.1512ZM97.0219 17.1512C97.0219 18.8663 97.2794 20.3241 97.8805 21.6962C98.4815 23.0683 99.2542 24.1831 100.199 25.1265C101.143 26.0698 102.345 26.7558 103.633 27.2703C105.007 27.7849 106.381 28.0422 107.926 28.0422C109.472 28.0422 110.931 27.7849 112.219 27.2703C113.593 26.7558 114.709 26.0698 115.654 25.1265C116.598 24.1831 117.371 23.0683 117.972 21.6962C118.573 20.3241 118.83 18.8663 118.83 17.1512C118.83 15.436 118.573 13.9782 117.972 12.6061C117.371 11.234 116.598 10.1192 115.654 9.17587C114.709 8.23256 113.507 7.54651 112.219 7.03198C110.845 6.51744 109.472 6.26017 107.926 6.26017C106.381 6.26017 104.921 6.51744 103.633 7.03198C102.259 7.54651 101.143 8.23256 100.199 9.17587C99.2542 10.1192 98.4815 11.234 97.8805 12.6061C97.2794 13.8924 97.0219 15.436 97.0219 17.1512Z" fill="black"/>
<path d="M153.947 0.771973C155.922 0.771973 157.639 1.115 159.271 1.71529C160.902 2.31558 162.361 3.17314 163.564 4.28796C164.766 5.40279 165.71 6.77488 166.397 8.31848C167.084 9.86209 167.427 11.663 167.427 13.5496C167.427 16.0365 166.826 18.2662 165.71 20.1528C164.594 22.0394 163.048 23.4115 161.074 24.4406L166.139 33.4449H158.068L154.205 26.1557H142.013V33.4449H134.629V0.771973H153.947ZM142.098 19.4667H153.69C155.579 19.4667 157.124 18.9522 158.326 17.9231C159.528 16.8941 160.129 15.4362 160.129 13.5496C160.129 11.663 159.528 10.2051 158.326 9.09029C157.124 7.97546 155.579 7.46093 153.69 7.46093H142.098V19.4667Z" fill="black"/>
<path d="M206.837 0.771973V7.37517H193.529V33.4449H186.145V7.37517H172.836V0.771973H206.837Z" fill="black"/>
<path d="M244.186 0.771973V7.37517H221.862V13.5496H241.954V20.1528H221.862V26.6702H245.045V33.4449H214.479V0.771973H244.186Z" fill="black"/>
<path d="M281.535 10.3765C279.56 9.00443 277.586 8.06111 275.525 7.54658C273.464 6.94628 271.146 6.68902 268.57 6.68902C266.939 6.68902 265.651 6.77477 264.621 6.94628C263.59 7.1178 262.732 7.37506 262.131 7.71809C261.53 8.06111 261.101 8.40413 260.929 8.83291C260.671 9.26169 260.585 9.69047 260.585 10.1193C260.585 11.0626 261.015 11.6629 261.787 12.0059C262.56 12.3489 263.59 12.6062 264.878 12.7777L274.666 13.8925C278.187 14.3213 280.934 15.3504 282.995 16.8082C284.97 18.3518 286 20.5815 286 23.6687C286 25.5553 285.571 27.0989 284.712 28.3852C283.853 29.6716 282.651 30.7864 281.192 31.7297C279.646 32.5873 277.843 33.2733 275.783 33.7021C273.722 34.1309 271.49 34.3024 269 34.3024C265.651 34.3024 262.646 33.8736 259.984 33.1018C257.323 32.33 254.661 30.9579 252.085 28.9855L255.605 23.2399C257.838 24.7835 260.156 25.9841 262.388 26.6701C264.621 27.4419 267.197 27.785 269.858 27.785C272.434 27.785 274.581 27.4419 276.298 26.7559C278.015 26.0698 278.874 25.0408 278.874 23.6687C278.874 22.7254 278.616 22.0393 278.015 21.6105C277.5 21.1818 276.469 20.8387 275.096 20.6672L264.106 19.4666C260.757 19.0379 258.095 18.1803 256.206 16.7224C254.318 15.2646 253.373 13.0349 253.373 10.0335C253.373 8.31838 253.802 6.77477 254.575 5.57419C255.348 4.28785 256.464 3.25878 257.838 2.40123C259.212 1.54367 260.843 0.943377 262.646 0.514597C264.449 0.0858183 266.424 -0.0856934 268.57 -0.0856934C271.661 -0.0856934 274.495 0.25733 277.242 0.943377C279.904 1.71518 282.48 3.00152 285.055 4.88814L281.535 10.3765Z" fill="black"/>
</g>
<defs>
<clipPath id="clip0">
<rect width="286" height="59" fill="white"/>
</clipPath>
</defs>
</svg>
