<svg width="59" height="60" viewBox="0 0 59 60" fill="none" xmlns="http://www.w3.org/2000/svg">
<path d="M0 59.3767C0 41.6342 0 23.9878 0 6.28378C1.26872 6.28378 2.47976 6.28378 3.84459 6.28378C3.84459 5.72632 3.82537 5.22654 3.84459 4.72675C3.92149 2.28547 5.80534 0.401664 8.18899 0.363218C10.5534 0.324773 12.591 2.26626 12.7064 4.68831C12.7256 5.16888 12.7064 5.64943 12.7064 6.18766C13.36 6.18766 13.9367 6.18766 14.6479 6.18766C14.5326 4.32307 14.744 2.4777 16.4356 1.34357C17.2238 0.824557 18.2426 0.459322 19.1845 0.401654C20.6262 0.305541 21.9911 0.939888 22.6639 2.22781C23.279 3.40039 23.4905 4.76519 23.9134 6.18766C24.2209 6.18766 24.7784 6.18766 25.4897 6.18766C25.4897 5.80321 25.4897 5.39955 25.4897 4.99587C25.5281 2.38159 27.412 0.363204 29.8725 0.324759C32.3715 0.286314 34.3514 2.30469 34.3899 4.95741C34.3899 5.34186 34.3899 5.72633 34.3899 6.16845C35.0243 6.16845 35.6202 6.16845 36.3122 6.16845C36.2353 4.3423 36.3314 2.4777 38.023 1.36279C38.8304 0.824552 39.8877 0.440104 40.8488 0.382436C42.2905 0.286323 43.6554 0.939888 44.3282 2.22781C44.9433 3.40039 45.1548 4.7652 45.5777 6.22612C47.2116 6.22612 49.1147 6.22612 51.1139 6.22612C51.1139 19.0476 51.1139 31.773 51.1139 44.6137C53.7667 44.6137 56.3041 44.6137 58.8415 44.6137C59.7834 50.3613 56.4386 54.4173 51.1523 54.5326C51.1523 56.1089 51.1523 57.6851 51.1523 59.3383C34.0631 59.3767 17.07 59.3767 0 59.3767ZM48.1151 44.6714C48.1151 35.7905 48.1151 27.0058 48.1151 18.1826C33.0443 18.1826 18.0119 18.1826 2.92189 18.1826C2.92189 18.4709 2.92189 18.7016 2.92189 18.9131C2.92189 27.2749 2.90267 35.6367 2.92189 43.9794C2.92189 47.9585 5.82456 51.0725 9.91905 51.5147C13.4753 51.9183 17.0508 49.3233 17.8197 45.6325C18.0119 44.7099 18.3964 44.6329 19.1461 44.6329C28.4692 44.6522 37.7731 44.6329 47.0963 44.6329C47.4231 44.6714 47.7306 44.6714 48.1151 44.6714ZM2.96034 15.0685C18.0504 15.0685 33.0635 15.0685 48.0959 15.0685C48.0959 13.1078 48.0959 11.224 48.0959 9.30175C47.1155 9.30175 46.1928 9.30175 45.2124 9.30175C45.2124 10.6089 45.2124 11.8583 45.2124 13.127C44.2128 13.127 43.3093 13.127 42.2713 13.127C42.2713 11.8199 42.2713 10.5512 42.2713 9.32096C39.5993 9.32096 37.0427 9.32096 34.4091 9.32096C34.4091 10.6281 34.4091 11.8583 34.4091 13.1078C33.3711 13.1078 32.4484 13.1078 31.4103 13.1078C31.4103 11.8007 31.4103 10.5704 31.4103 9.34018C28.7383 9.34018 26.1817 9.34018 23.5097 9.34018C23.5097 10.6665 23.5097 11.8968 23.5097 13.1078C22.4909 13.1078 21.5874 13.1078 20.607 13.1078C20.607 11.8007 20.607 10.5704 20.607 9.32096C17.9543 9.32096 15.3784 9.32096 12.7256 9.32096C12.7256 10.6473 12.7256 11.8776 12.7256 13.127C11.726 13.127 10.8033 13.127 9.74605 13.127C9.74605 11.8199 9.74605 10.5704 9.74605 9.30175C7.42007 9.30175 5.20942 9.30175 2.97956 9.30175C2.96034 11.224 2.96034 13.1078 2.96034 15.0685ZM18.0888 51.5723C18.3772 51.5723 18.7232 51.5723 19.0692 51.5723C25.6627 51.5723 32.2561 51.5723 38.8496 51.5723C43.0402 51.5723 47.2308 51.5915 51.4407 51.5531C53.9012 51.5339 55.7082 49.9384 55.9388 47.6125C55.5928 47.6125 55.2468 47.6125 54.9008 47.6125C52.3634 47.6125 49.8452 47.6125 47.3077 47.6125C38.6382 47.6125 29.9494 47.6124 21.2798 47.6317C20.9338 47.6317 20.434 47.7086 20.2802 47.92C19.5113 49.0734 18.8385 50.2844 18.0888 51.5723ZM2.96034 56.3972C18.0696 56.3972 33.0635 56.3972 48.0959 56.3972C48.0959 55.7629 48.0959 55.167 48.0959 54.4942C47.6537 54.4942 47.2693 54.4942 46.904 54.4942C34.8705 54.4942 22.8369 54.4942 10.8033 54.4942C8.07365 54.4942 5.65155 53.6484 3.57547 51.8607C3.40247 51.7069 3.21024 51.5916 2.96034 51.4185C2.96034 53.1486 2.96034 54.7441 2.96034 56.3972ZM42.2521 6.24534C42.2521 5.22654 42.5981 4.15006 41.5216 3.59261C41.0795 3.36194 40.2721 3.4196 39.8684 3.70794C38.965 4.32306 39.2917 5.32265 39.3302 6.24534C40.349 6.24534 41.2333 6.24534 42.2521 6.24534ZM20.5878 6.20688C20.5686 5.2073 20.953 4.13085 19.8766 3.57339C19.4536 3.36194 18.7039 3.38117 18.3003 3.63107C17.3391 4.22697 17.7044 5.24575 17.6851 6.18766C18.6463 6.20689 19.569 6.20688 20.5878 6.20688ZM9.72682 6.20688C9.7076 5.22653 10.0921 4.15006 9.0348 3.59261C8.61189 3.36194 7.86219 3.38117 7.45851 3.63107C6.45892 4.24619 6.78571 5.2842 6.84338 6.20688C7.84297 6.20688 8.74645 6.20688 9.72682 6.20688ZM31.4103 6.20688C31.3527 5.2073 31.7756 4.13085 30.6799 3.57339C30.2762 3.36194 29.5649 3.38116 29.1805 3.59261C28.1232 4.16929 28.5461 5.24575 28.5077 6.20688C29.4688 6.20688 30.3915 6.20688 31.4103 6.20688Z" fill="black"/>
<path d="M9.72686 44.6327C8.4197 44.6327 7.18943 44.6327 5.90149 44.6327C5.90149 43.6716 5.90149 42.7681 5.90149 41.7686C7.15098 41.7686 8.40048 41.7686 9.72686 41.7686C9.72686 42.7105 9.72686 43.6139 9.72686 44.6327Z" fill="black"/>
<path d="M11.8606 41.7686C13.0716 41.7686 14.3019 41.7686 15.6091 41.7686C15.6091 42.7105 15.6091 43.614 15.6091 44.6136C14.398 44.6136 13.1678 44.6136 11.8606 44.6136C11.8606 43.6909 11.8606 42.7682 11.8606 41.7686Z" fill="black"/>
<path d="M27.4888 22.0659C27.4888 23.0462 27.4888 23.9305 27.4888 24.8916C26.2201 24.8916 24.9898 24.8916 23.6635 24.8916C23.6635 23.9689 23.6635 23.027 23.6635 22.0659C24.9322 22.0659 26.1624 22.0659 27.4888 22.0659Z" fill="black"/>
<path d="M9.74602 29.0049C9.74602 29.966 9.74602 30.8502 9.74602 31.7922C8.43886 31.7922 7.18936 31.7922 5.8822 31.7922C5.8822 30.8502 5.8822 29.966 5.8822 29.0049C7.15092 29.0049 8.40041 29.0049 9.74602 29.0049Z" fill="black"/>
<path d="M23.6443 28.9663C24.9322 28.9663 26.1625 28.9663 27.4697 28.9663C27.4697 29.9274 27.4697 30.8309 27.4697 31.7921C26.2009 31.7921 24.9707 31.7921 23.6443 31.7921C23.6443 30.8886 23.6443 29.9659 23.6443 28.9663Z" fill="black"/>
<path d="M41.3293 28.9663C42.6173 28.9663 43.8476 28.9663 45.1547 28.9663C45.1547 29.889 45.1547 30.7925 45.1547 31.7728C43.9052 31.7728 42.6365 31.7728 41.3293 31.7728C41.3293 30.8309 41.3293 29.9274 41.3293 28.9663Z" fill="black"/>
<path d="M5.90149 35.8677C7.17021 35.8677 8.4197 35.8677 9.72686 35.8677C9.72686 36.7904 9.72686 37.6938 9.72686 38.6742C8.47737 38.6742 7.20865 38.6742 5.90149 38.6742C5.90149 37.7515 5.90149 36.8288 5.90149 35.8677Z" fill="black"/>
<path d="M23.6251 38.674C23.6251 37.7321 23.6251 36.8478 23.6251 35.8867C24.9323 35.8867 26.1818 35.8867 27.4889 35.8867C27.4889 36.8286 27.4889 37.7129 27.4889 38.674C26.2202 38.674 24.9707 38.674 23.6251 38.674Z" fill="black"/>
<path d="M41.3678 35.8677C42.6365 35.8677 43.8668 35.8677 45.1547 35.8677C45.1547 36.8096 45.1547 37.7322 45.1547 38.6933C43.9052 38.6933 42.675 38.6933 41.3678 38.6933C41.3678 37.7707 41.3678 36.848 41.3678 35.8677Z" fill="black"/>
<path d="M41.3678 22.0659C42.6557 22.0659 43.886 22.0659 45.174 22.0659C45.174 23.027 45.174 23.9304 45.174 24.9107C43.9052 24.9107 42.675 24.9107 41.3678 24.9107C41.3678 23.9497 41.3678 23.027 41.3678 22.0659Z" fill="black"/>
<path d="M29.5073 24.8724C29.5073 23.9113 29.5073 23.027 29.5073 22.0659C30.7953 22.0659 32.0448 22.0659 33.3519 22.0659C33.3519 23.0078 33.3519 23.892 33.3519 24.8724C32.1024 24.8724 30.8529 24.8724 29.5073 24.8724Z" fill="black"/>
<path d="M39.2533 24.93C37.9654 24.93 36.7735 24.93 35.4856 24.93C35.4856 23.9881 35.4856 23.0463 35.4856 22.0659C36.7351 22.0659 37.9654 22.0659 39.2533 22.0659C39.2533 23.0078 39.2533 23.9113 39.2533 24.93Z" fill="black"/>
<path d="M11.8221 28.9473C13.1293 28.9473 14.3404 28.9473 15.6091 28.9473C15.6091 29.8892 15.6091 30.7926 15.6091 31.773C14.3596 31.773 13.1101 31.773 11.8221 31.773C11.8221 30.8503 11.8221 29.9276 11.8221 28.9473Z" fill="black"/>
<path d="M21.549 29.0049C21.549 29.966 21.549 30.8502 21.549 31.7922C20.2803 31.7922 19.05 31.7922 17.7621 31.7922C17.7621 30.8695 17.7621 29.966 17.7621 29.0049C19.0308 29.0049 20.2995 29.0049 21.549 29.0049Z" fill="black"/>
<path d="M33.3135 31.8116C32.0255 31.8116 30.7953 31.8116 29.5073 31.8116C29.5073 30.8505 29.5073 29.947 29.5073 28.9858C30.7568 28.9858 31.9871 28.9858 33.3135 28.9858C33.3135 29.8893 33.3135 30.7928 33.3135 31.8116Z" fill="black"/>
<path d="M35.4856 28.9663C36.7351 28.9663 37.9654 28.9663 39.2533 28.9663C39.2533 29.9082 39.2533 30.8117 39.2533 31.7921C38.0038 31.7921 36.7928 31.7921 35.4856 31.7921C35.4856 30.8886 35.4856 29.9851 35.4856 28.9663Z" fill="black"/>
<path d="M11.8221 38.6742C11.8221 37.713 11.8221 36.8288 11.8221 35.8677C13.0909 35.8677 14.3019 35.8677 15.6091 35.8677C15.6091 36.7711 15.6091 37.6746 15.6091 38.6742C14.3788 38.6742 13.1293 38.6742 11.8221 38.6742Z" fill="black"/>
<path d="M21.5682 35.8677C21.5682 36.848 21.5682 37.7323 21.5682 38.6742C20.3187 38.6742 19.0884 38.6742 17.7812 38.6742C17.7812 37.7707 17.7812 36.848 17.7812 35.8677C19.0307 35.8677 20.261 35.8677 21.5682 35.8677Z" fill="black"/>
<path d="M29.5265 35.8481C30.8337 35.8481 32.0255 35.8481 33.3134 35.8481C33.3134 36.7901 33.3134 37.6935 33.3134 38.6739C32.0831 38.6739 30.8337 38.6739 29.5265 38.6739C29.5265 37.7512 29.5265 36.8477 29.5265 35.8481Z" fill="black"/>
<path d="M35.4856 35.8481C36.7735 35.8481 37.9654 35.8481 39.2341 35.8481C39.2341 36.7901 39.2341 37.6935 39.2341 38.6739C38.0038 38.6739 36.7928 38.6739 35.4856 38.6739C35.4856 37.7512 35.4856 36.8093 35.4856 35.8481Z" fill="black"/>
</svg>
