<svg width="64" height="65" viewBox="0 0 64 65" fill="none" xmlns="http://www.w3.org/2000/svg">
<path d="M59.8931 39.1439C59.5378 47.4844 59.1995 55.7573 58.8611 64.0471C54.0563 64.0471 49.3023 64.0471 44.4806 64.0471C44.1423 55.7573 43.8039 47.4844 43.4486 39.127C42.2812 39.4822 41.3 39.2623 40.3357 38.5518C39.9635 47.0784 39.5912 55.5374 39.219 64.0302C34.4312 64.0302 29.6602 64.0302 24.8386 64.0302C24.4664 55.5543 24.0942 47.0953 23.7389 38.5687C22.7914 39.2116 21.8102 39.4992 20.6428 39.0931C20.2876 47.4506 19.9492 55.7065 19.5939 64.0302C14.8061 64.0302 10.052 64.0302 5.21342 64.0302C4.87506 55.7742 4.5367 47.5013 4.18141 39.1777C3.99531 39.1946 3.85998 39.1946 3.72463 39.2116C1.82979 39.5837 0.0195355 38.1965 0.0195355 36.2509C0.00261726 31.5139 -0.014301 26.7769 0.0195355 22.0568C0.0364537 19.4176 2.10047 17.4043 4.94273 17.0829C6.0255 16.9645 7.10827 16.8122 8.22487 16.6769C8.30946 15.8648 8.30946 15.2388 7.56506 14.6298C5.94091 13.2594 5.19651 11.3985 5.16268 9.2668C5.16268 8.96228 5.16268 8.67467 5.16268 8.30248C4.46903 8.30248 3.80922 8.30248 3.13249 8.30248C3.13249 7.59193 3.13249 6.96596 3.13249 6.25541C3.77538 6.25541 4.43519 6.25541 5.095 6.25541C5.14576 5.52794 5.14576 4.86814 5.26418 4.22526C5.72097 1.78907 7.80191 0.0634422 10.2889 0.0465243C11.6593 0.0296064 13.0466 0.0296064 14.4169 0.0465243C17.3438 0.0634422 19.5939 2.33045 19.6108 5.25725C19.6108 5.56177 19.6108 5.84938 19.6108 6.22157C20.3045 6.22157 20.9474 6.22157 21.641 6.22157C21.641 6.93213 21.641 7.55809 21.641 8.26864C20.9981 8.26864 20.3552 8.26864 19.6785 8.26864C19.6108 9.06379 19.5939 9.77434 19.4924 10.5018C19.2555 12.1429 18.5281 13.564 17.2592 14.596C16.5486 15.1712 16.3964 15.7971 16.5656 16.6769C17.8006 16.846 19.0694 16.9983 20.3383 17.1675C21.5903 17.3367 22.6054 17.9288 23.4682 18.8254C23.6374 18.9946 23.9419 19.1469 24.1618 19.13C25.3799 19.0285 26.5981 18.8762 27.8162 18.7408C27.9008 17.9626 27.9008 17.3367 27.1902 16.7445C25.5322 15.3573 24.7878 13.4963 24.754 11.3308C24.754 11.077 24.754 10.8063 24.737 10.5526C24.737 10.5187 24.7032 10.468 24.6863 10.3834C24.0603 10.3834 23.4344 10.3834 22.7407 10.3834C22.7407 9.68975 22.7407 9.02995 22.7407 8.30248C23.3836 8.30248 24.0434 8.30248 24.7032 8.30248C24.754 7.57501 24.754 6.91521 24.8724 6.25541C25.3292 3.81923 27.427 2.11051 29.914 2.0936C31.2675 2.07668 32.6209 2.0936 33.9744 2.0936C36.952 2.11051 39.2021 4.34368 39.219 7.32124C39.219 7.62576 39.219 7.91337 39.219 8.28556C39.9127 8.28556 40.5725 8.28556 41.2492 8.28556C41.2492 8.99611 41.2492 9.62208 41.2492 10.3326C40.5894 10.3326 39.9465 10.3326 39.3713 10.3326C39.2021 11.4661 39.1006 12.532 38.8468 13.564C38.5423 14.8328 37.781 15.8479 36.8336 16.7276C36.0384 17.472 36.0215 17.4551 36.1738 18.7239C37.4088 18.8593 38.6607 19.0115 39.9296 19.13C40.0988 19.1469 40.3526 19.0285 40.471 18.8931C41.4861 17.7596 42.7719 17.2182 44.2607 17.066C45.3096 16.9645 46.3585 16.8122 47.4244 16.6769C47.5597 15.8817 47.5259 15.2558 46.7984 14.6467C45.1743 13.2764 44.4129 11.4323 44.3791 9.30064C44.3791 8.99611 44.3791 8.69159 44.3791 8.3194C43.7024 8.3194 43.0595 8.3194 42.3489 8.3194C42.3489 7.59193 42.3489 6.94904 42.3489 6.23849C42.9918 6.23849 43.6347 6.23849 44.3791 6.23849C44.3791 5.83246 44.3791 5.47718 44.3791 5.12191C44.4129 2.31353 46.68 0.0465243 49.4884 0.0126885C50.8926 -0.00422948 52.2799 -0.00422948 53.6841 0.0126885C56.5602 0.0296064 58.8103 2.29661 58.8442 5.18958C58.8442 5.51102 58.8442 5.81554 58.8442 6.18774C59.5378 6.18774 60.1807 6.18774 60.8574 6.18774C60.8574 6.88137 60.8574 7.54117 60.8574 8.23481C60.2146 8.23481 59.5717 8.23481 58.9118 8.23481C58.8442 9.01303 58.8273 9.75742 58.7088 10.5018C58.472 12.1429 57.6768 13.4963 56.4756 14.6129C55.6466 15.3911 55.6297 15.3911 55.7989 16.643C57.0847 16.8122 58.3874 16.9645 59.6732 17.1506C62.1263 17.5228 63.9873 19.6375 63.9873 22.1244C64.0042 26.7938 64.0042 31.4631 63.9873 36.1325C63.9873 38.1626 62.2109 39.5668 60.2315 39.1608C60.2146 39.1777 60.0961 39.1777 59.8931 39.1439ZM42.7211 19.536C42.7211 19.6375 42.7042 19.7221 42.7042 19.8236C42.755 19.8574 42.8057 19.8913 42.8734 19.9251C44.7006 21.0586 45.5126 22.6996 45.4957 24.8482C45.4619 28.401 45.4788 31.9538 45.4788 35.4896C45.4788 35.7095 45.4788 35.9464 45.4788 36.1663C49.6576 36.1663 53.7349 36.1663 57.8798 36.1663C57.8798 32.3767 57.8798 28.6378 57.8798 24.8821C58.6073 24.8821 59.2502 24.8821 59.9439 24.8821C59.9439 28.4517 59.9439 31.9876 59.9439 35.5065C59.9439 35.7603 59.927 36.031 59.9608 36.2847C60.0285 36.843 60.3668 37.1814 60.942 37.2152C61.4665 37.266 61.9402 36.843 62.0079 36.3017C62.0248 36.1156 62.0248 35.9126 62.0248 35.7265C62.0248 31.3955 62.0248 27.0814 62.0248 22.7504C62.0248 20.5172 60.9928 19.4176 58.7765 19.113C58.049 19.0115 57.8291 19.2484 57.5922 19.8574C56.814 21.7692 55.985 23.647 55.1222 25.6434C53.9548 24.4591 52.8382 23.3256 51.6709 22.1414C50.5204 23.3087 49.4038 24.4253 48.2534 25.5757C48.1349 25.305 48.0334 25.0851 47.9319 24.8651C47.1537 23.0718 46.3924 21.2785 45.6141 19.4852C45.5465 19.3161 45.3434 19.0623 45.225 19.0623C44.3791 19.1976 43.5501 19.3837 42.7211 19.536ZM6.22851 36.1494C10.4073 36.1494 14.5015 36.1494 18.6296 36.1494C18.6296 35.8618 18.6296 35.6419 18.6296 35.405C18.6296 31.8184 18.6296 28.2149 18.6296 24.6283C18.6296 22.6489 19.4247 21.1094 21.0996 20.0097C21.2011 19.942 21.3027 19.8574 21.5903 19.6544C20.812 19.4683 20.203 19.3161 19.5939 19.1638C19.1879 19.0623 18.9849 19.2315 18.7988 19.5867C17.9359 21.3631 17.0393 23.1226 16.1595 24.899C16.058 25.102 15.9396 25.2881 15.8212 25.508C15.5166 25.2373 15.2459 25.0174 14.9076 24.7129C15.1106 26.76 15.3136 28.6548 15.4997 30.5665C15.5335 30.8879 15.6012 31.3447 15.4151 31.5477C14.4677 32.5797 13.4357 33.561 12.4206 34.576C11.4224 33.5779 10.475 32.6474 9.56141 31.6831C9.40915 31.5308 9.34147 31.2263 9.35838 30.9894C9.44298 29.8898 9.56141 28.807 9.67983 27.7243C9.78134 26.76 9.86595 25.7956 9.96746 24.7129C9.59525 25.0512 9.34148 25.2881 9.05387 25.5588C8.03878 23.5286 7.07444 21.5831 6.09318 19.6544C5.99167 19.4514 5.72097 19.1976 5.53487 19.1976C3.5216 19.1469 2.13431 20.5341 2.13431 22.5643C2.13431 25.4234 2.13431 28.2826 2.13431 31.1417C2.13431 32.7997 2.13431 34.4576 2.13431 36.1156C2.13431 36.8092 2.55726 37.266 3.16632 37.266C3.79229 37.266 4.19833 36.7923 4.19833 36.0479C4.19833 32.5628 4.19833 29.0777 4.19833 25.5926C4.19833 25.3727 4.19833 25.1358 4.19833 24.9159C4.92581 24.9159 5.56872 24.9159 6.24545 24.9159C6.22853 28.6209 6.22851 32.3598 6.22851 36.1494ZM41.3338 29.9913C39.642 29.9913 38.0179 29.9913 36.3937 29.9913C35.6324 29.9913 35.1756 30.3804 35.1587 31.0064C35.1417 31.6323 35.6155 32.0553 36.3599 32.0553C38.3224 32.0553 40.268 32.0553 42.2305 32.0553C43.0256 32.0553 43.4148 31.6662 43.4148 30.8541C43.4148 28.7055 43.4317 26.5569 43.4148 24.4084C43.3979 22.7842 42.2982 21.5323 40.674 21.3293C39.0668 21.1263 37.4765 20.9571 35.8692 20.8048C35.5986 20.771 35.2771 20.8556 35.0402 20.9909C34.1774 21.5154 33.3315 22.0737 32.5194 22.6658C32.198 22.9027 31.9611 22.9196 31.6058 22.6827C30.7768 22.0906 29.931 21.5492 29.085 21.0079C28.882 20.8725 28.6113 20.771 28.3914 20.7879C26.6996 20.9571 25.0078 21.1263 23.3328 21.3462C21.861 21.5323 20.7444 22.7673 20.7105 24.2561C20.6767 26.4893 20.6936 28.7224 20.7105 30.9725C20.7105 31.6492 21.1165 32.0553 21.7933 32.0553C23.8065 32.0722 25.8367 32.0722 27.85 32.0553C28.5098 32.0553 28.9497 31.6154 28.9497 31.0402C28.9497 30.4311 28.5098 30.0082 27.7992 30.0082C26.3443 29.9913 24.8724 30.0082 23.4174 30.0082C23.2144 30.0082 23.0114 29.9913 22.8084 29.9744C22.8084 27.8934 22.8084 25.8633 22.8084 23.8501C23.502 23.8501 24.128 23.8501 24.8386 23.8501C24.8386 25.2204 24.8386 26.5739 24.8386 27.8935C25.566 27.8935 26.2089 27.8935 26.9195 27.8935C26.9195 26.5231 26.9195 25.1866 26.9195 23.8501C30.3708 23.8501 33.7714 23.8501 37.2565 23.8501C37.2565 25.2373 37.2565 26.5739 37.2565 27.9104C37.9671 27.9104 38.61 27.9104 39.3036 27.9104C39.3036 26.54 39.3036 25.1866 39.3036 23.867C40.0311 23.867 40.674 23.867 41.3338 23.867C41.3338 25.8971 41.3338 27.8935 41.3338 29.9913ZM45.4788 38.2811C45.8171 46.1987 46.1386 54.0655 46.46 61.9493C47.8643 61.9493 49.2346 61.9493 50.5881 61.9493C50.5881 54.0317 50.5881 46.1479 50.5881 38.2811C48.8794 38.2811 47.2044 38.2811 45.4788 38.2811ZM11.3547 61.9831C11.3547 54.0486 11.3547 46.1648 11.3547 38.298C9.62908 38.298 7.93727 38.298 6.24545 38.298C6.58381 46.2156 6.90524 54.0993 7.24361 61.9831C8.64782 61.9831 9.98437 61.9831 11.3547 61.9831ZM56.8817 61.9831C57.22 54.0486 57.5415 46.1817 57.8629 38.298C56.1034 38.298 54.4285 38.298 52.7536 38.298C52.7536 46.2156 52.7536 54.0993 52.7536 61.9831C54.1409 61.9831 55.4605 61.9831 56.8817 61.9831ZM17.6314 61.9831C17.9698 54.0655 18.2912 46.1817 18.6127 38.298C16.8532 38.298 15.1783 38.298 13.5033 38.298C13.5033 46.2156 13.5033 54.0993 13.5033 61.9831C14.8906 61.9831 16.2103 61.9831 17.6314 61.9831ZM25.9044 40.3451C26.2259 47.5859 26.5304 54.7761 26.8349 61.9493C28.273 61.9493 29.6264 61.9493 30.9799 61.9493C30.9799 54.7253 30.9799 47.5521 30.9799 40.3451C29.305 40.3451 27.647 40.3451 25.9044 40.3451ZM37.2565 61.9831C37.5611 54.7761 37.8825 47.5859 38.187 40.362C36.4614 40.362 34.8034 40.362 33.1116 40.362C33.1116 47.5859 33.1116 54.7761 33.1116 61.9831C34.5158 61.9831 35.8523 61.9831 37.2565 61.9831ZM26.9533 10.4003C26.615 12.6673 27.5455 14.7144 29.4065 15.831C31.1998 16.9137 33.4161 16.7953 35.1079 15.5603C36.7152 14.376 37.5611 12.2105 37.1212 10.4003C33.7376 10.4003 30.337 10.4003 26.9533 10.4003ZM56.7971 8.35323C53.3458 8.35323 49.9452 8.35323 46.5446 8.35323C46.1048 12.2951 49.0316 14.5283 51.7047 14.5114C54.3609 14.4944 57.2539 12.2613 56.7971 8.35323ZM7.37896 8.3194C6.87141 10.0112 7.75115 12.2951 9.35838 13.4794C11.1179 14.7821 13.4695 14.8497 15.2798 13.6316C17.0223 12.4643 17.9698 10.2142 17.4961 8.3194C14.1293 8.3194 10.7457 8.3194 7.37896 8.3194ZM28.9497 25.8971C28.9497 26.4893 28.9666 27.0476 28.9497 27.6058C28.9328 27.978 29.0512 28.1641 29.3896 28.3333C30.4554 28.9085 31.0306 29.839 31.0137 31.0571C30.9968 32.2583 30.4216 33.138 29.3896 33.7301C29.2373 33.8147 29.102 33.8993 28.8482 34.0516C31.0306 34.0516 33.0608 34.0516 35.1418 34.0516C35.0741 33.9501 35.0572 33.8993 35.0233 33.8993C32.4687 32.8504 32.4179 29.3653 34.8711 28.2149C34.9895 28.1641 35.1079 27.978 35.1248 27.8427C35.1587 27.1998 35.1418 26.5739 35.1418 25.8971C33.0777 25.8971 31.0645 25.8971 28.9497 25.8971ZM26.8687 36.1663C26.8687 35.4727 26.8687 34.8298 26.8687 34.1869C26.4965 34.1869 26.192 34.1869 25.8875 34.1869C25.8875 35.5573 25.8875 36.8769 25.8875 38.2303C30.0155 38.2303 34.0928 38.2303 38.2039 38.2303C38.2039 36.86 38.2039 35.5234 38.2039 34.1869C37.8487 34.1869 37.5441 34.1869 37.1889 34.1869C37.1889 34.8636 37.1889 35.5065 37.1889 36.1663C33.7714 36.1663 30.3708 36.1663 26.8687 36.1663ZM12.4544 31.5646C13.4188 30.7187 13.4357 30.7187 13.3173 29.6022C13.0973 27.3521 12.8774 25.1189 12.6405 22.8688C12.6236 22.6489 12.5559 22.4459 12.5052 22.2429C12.4375 22.2429 12.3867 22.2429 12.3191 22.2429C12.2852 22.4459 12.2176 22.632 12.2007 22.835C11.9638 25.102 11.7946 27.369 11.507 29.636C11.4055 30.5326 11.71 31.1079 12.4544 31.5646ZM9.49374 2.27969C7.76808 2.8549 6.97293 4.37752 7.34513 6.22157C8.25872 6.22157 9.1723 6.22157 10.1536 6.22157C10.0013 5.25725 9.84901 4.32676 9.69675 3.39628C9.64599 3.041 9.57833 2.68572 9.49374 2.27969ZM17.5299 6.23849C17.8175 4.1745 16.8701 2.49963 15.3305 2.34736C15.229 2.97333 15.1106 3.61621 15.0091 4.24217C14.9076 4.88505 14.8061 5.52794 14.7046 6.20465C14.8737 6.22157 14.9583 6.23849 15.0429 6.23849C15.855 6.23849 16.6671 6.23849 17.5299 6.23849ZM48.7609 2.27969C47.0353 2.8549 46.2232 4.3606 46.5954 6.22157C47.509 6.22157 48.4226 6.22157 49.4038 6.22157C49.1839 4.90197 48.9809 3.61621 48.7609 2.27969ZM56.814 6.22157C56.9324 3.9884 56.1034 2.5673 54.5808 2.34736C54.3778 3.63313 54.1578 4.90197 53.9548 6.22157C54.9361 6.22157 55.8496 6.22157 56.814 6.22157ZM29.1358 4.34368C27.3932 4.93581 26.5811 6.47534 26.9703 8.28556C27.8838 8.28556 28.7974 8.28556 29.7787 8.28556C29.5757 6.94904 29.3557 5.6802 29.1358 4.34368ZM37.1719 8.28556C37.375 6.1539 36.5629 4.73279 34.9557 4.39443C34.7357 5.6802 34.5327 6.96596 34.3128 8.28556C35.294 8.28556 36.2076 8.28556 37.1719 8.28556ZM53.718 16.44C52.3138 16.44 50.9772 16.44 49.573 16.44C49.6238 16.6769 49.573 17.066 49.7422 17.269C50.3174 17.9626 50.9603 18.5886 51.6201 19.2822C52.2292 18.6732 52.7198 18.1318 53.2612 17.6412C53.6841 17.2859 53.8533 16.8968 53.718 16.44ZM10.3227 16.44C10.3735 16.6938 10.3566 17.0829 10.5427 17.3197C11.101 17.9965 11.7269 18.6055 12.3867 19.3161C13.0127 18.6901 13.5034 18.1149 14.0617 17.6243C14.4846 17.2521 14.603 16.846 14.4677 16.4569C13.0973 16.44 11.7777 16.44 10.3227 16.44ZM22.7576 34.17C22.0301 34.1193 21.3873 34.0854 20.7105 34.0347C20.7105 34.7791 20.6767 35.5404 20.7274 36.2847C20.7613 36.843 21.235 37.2491 21.7594 37.2152C22.3347 37.1814 22.7069 36.86 22.7576 36.3017C22.7915 35.608 22.7576 34.8975 22.7576 34.17ZM41.3507 34.17C41.3507 34.8806 41.3338 35.5742 41.3507 36.2509C41.3846 36.8261 41.8245 37.2152 42.3658 37.2152C42.9072 37.2152 43.364 36.8261 43.3979 36.2678C43.4317 35.5234 43.4148 34.7621 43.4148 34.0347C42.7211 34.0854 42.0782 34.1193 41.3507 34.17ZM29.9817 18.504C29.8463 19.5867 31.0137 19.6037 31.5551 20.145C31.792 20.3988 32.1134 20.5849 32.4348 20.2296C32.9762 19.6375 34.2113 19.6375 34.1097 18.504C32.7225 18.504 31.3859 18.504 29.9817 18.504ZM13.9094 20.6357C14.4 21.1263 14.8061 21.5492 15.2628 22.0229C15.8042 20.9402 16.3287 19.9082 16.8362 18.8593C16.8024 18.8085 16.7686 18.7408 16.7347 18.6901C16.3795 18.7747 15.9227 18.7747 15.6689 18.9777C15.0429 19.4683 14.5015 20.0604 13.9094 20.6357ZM10.9825 20.6357C10.4412 20.1281 9.9167 19.6883 9.45991 19.1807C9.05387 18.707 8.614 18.6393 8.02186 18.8762C8.56324 19.942 9.07078 20.974 9.57833 21.9891C10.052 21.5154 10.475 21.1263 10.9825 20.6357ZM11.5916 2.14435C11.8285 3.56546 12.0653 4.90197 12.3022 6.25541C12.4037 6.25541 12.4883 6.25541 12.5898 6.25541C12.8266 4.90197 13.0466 3.54854 13.2834 2.16127C12.6913 2.14435 12.1837 2.14435 11.5916 2.14435ZM50.825 2.14435C51.0618 3.56546 51.2987 4.91889 51.5186 6.25541C51.6201 6.25541 51.7047 6.25541 51.8062 6.25541C52.0261 4.90197 52.263 3.53162 52.4998 2.14435C51.9077 2.14435 51.4171 2.14435 50.825 2.14435ZM31.1998 4.20834C31.4367 5.62944 31.6735 6.98288 31.9104 8.3194C32.0119 8.3194 32.0965 8.3194 32.198 8.3194C32.4179 6.96596 32.6548 5.59561 32.8916 4.20834C32.2826 4.20834 31.792 4.20834 31.1998 4.20834ZM47.712 18.6563C47.6612 18.7239 47.6274 18.7916 47.5766 18.8593C48.0165 19.8743 48.4564 20.8725 48.9132 21.9722C49.4038 21.5323 49.8268 21.1601 50.3005 20.7372C49.6237 20.0774 49.0993 19.536 48.5241 19.0454C48.321 18.8593 47.9996 18.7916 47.712 18.6563ZM54.4285 21.9722C54.9022 20.8894 55.3421 19.8574 55.8327 18.707C54.4116 18.8424 54.0563 20.0943 53.1258 20.6695C53.5826 21.1263 53.9548 21.5154 54.4285 21.9722Z" fill="black"/>
<path d="M52.6689 25.8465C51.9922 25.8465 51.3662 25.8465 50.6895 25.8465C50.6895 25.1867 50.6895 24.5438 50.6895 23.8333C51.3154 23.8333 51.9752 23.8333 52.6689 23.8333C52.6689 24.4931 52.6689 25.1528 52.6689 25.8465Z" fill="black"/>
<path d="M50.6726 29.9575C50.6726 29.2808 50.6726 28.6548 50.6726 27.9612C51.3324 27.9612 51.9922 27.9612 52.669 27.9612C52.669 28.621 52.669 29.2639 52.669 29.9575C52.0092 29.9575 51.3832 29.9575 50.6726 29.9575Z" fill="black"/>
</svg>
