<svg width="68" height="67" viewBox="0 0 68 67" fill="none" xmlns="http://www.w3.org/2000/svg">
<path d="M60.6471 28.7521C60.6471 32.4132 60.6471 36.0147 60.6471 39.6759C60.8461 39.5963 61.0252 39.5366 61.2043 39.457C63.2339 38.6213 65.4624 39.3575 66.5966 41.2478C67.7109 43.1182 67.3727 45.4462 65.6813 46.7993C59.8313 51.4752 53.9813 56.1313 48.1114 60.7873C47.0767 61.6031 45.8828 61.9414 44.5695 61.9414C34.9389 61.9414 25.3282 61.9414 15.6975 61.9215C14.8021 61.9215 13.9863 62.1205 13.2103 62.5781C11.4991 63.573 9.76794 64.548 8.05671 65.523C7.08171 66.0801 6.02711 66.3786 4.89292 66.3587C3.59955 66.3388 2.32609 66.3587 0.973022 66.3587C0.973022 65.6225 0.973022 64.926 0.973022 64.15C2.2266 64.15 3.48016 64.2296 4.73374 64.1301C5.52966 64.0704 6.36537 63.8715 7.0817 63.5133C8.81283 62.6179 10.5042 61.6031 12.1955 60.6282C13.2302 60.0312 14.3445 59.7328 15.5583 59.7328C25.2088 59.7527 34.8593 59.7327 44.5099 59.7526C45.4849 59.7526 46.3007 59.4542 47.0568 58.8572C52.7078 54.3405 58.3589 49.8436 64.0099 45.3467C65.1242 44.4513 65.363 43.3768 64.6665 42.3421C63.99 41.3274 62.7165 41.0488 61.7017 41.7253C61.065 42.1432 60.4482 42.5212 60.4084 43.4962C60.3686 44.4115 59.7915 45.1477 59.0553 45.7248C55.016 48.8885 50.9767 52.0523 46.9374 55.216C45.9425 55.992 44.8083 56.4099 43.5548 56.4099C40.2119 56.4099 36.869 56.4099 33.546 56.4099C33.3869 56.4099 33.2277 56.4099 33.0287 56.4099C33.0287 55.6736 33.0287 54.9971 33.0287 54.2012C33.2476 54.2012 33.5063 54.2012 33.745 54.2012C36.9088 54.2012 40.0527 54.1813 43.2165 54.2012C44.1915 54.2012 45.0073 53.9226 45.7634 53.3257C49.6634 50.2416 53.5833 47.1773 57.5033 44.1131C58.4186 43.3968 58.6175 42.4616 58.0206 41.6656C57.364 40.7901 56.389 40.6907 55.414 41.4269C52.29 43.7748 49.1461 46.1227 46.0221 48.4906C44.8481 49.3661 43.5746 49.8038 42.1022 49.7839C38.3813 49.764 34.6404 49.7839 30.9195 49.764C29.2083 49.764 27.7756 48.4706 27.6364 46.8191C27.4772 45.0482 28.5915 43.536 30.3226 43.1978C30.6211 43.1381 30.9195 43.1381 31.218 43.1381C33.566 43.1381 35.9139 43.1381 38.2619 43.1381C39.3961 43.1381 40.1721 42.4814 40.192 41.5065C40.2119 40.5116 39.416 39.8152 38.2619 39.8152C33.745 39.8152 29.2282 39.8152 24.7312 39.8152C23.8358 39.8152 23.0797 40.0738 22.3634 40.5912C17.8067 43.9141 13.2501 47.2171 8.69345 50.5599C7.38018 51.5349 5.98731 52.0721 4.33578 51.9925C3.26129 51.9328 2.1669 51.9727 1.03271 51.9727C1.03271 51.2563 1.03271 50.54 1.03271 49.764C2.1868 49.764 3.36078 49.7441 4.51487 49.764C5.52966 49.8038 6.38528 49.4855 7.2011 48.8885C11.7577 45.5457 16.3144 42.2228 20.871 38.9198C21.4481 38.5019 22.1047 38.2432 22.7215 37.8851C22.8608 37.8055 23.0598 37.6065 23.0598 37.4672C23.0797 34.6019 23.0797 31.7168 23.0797 28.7521C22.3833 28.7521 21.7266 28.7521 21.0501 28.7521C19.896 28.7521 18.7419 28.8117 17.6077 28.7122C17.2496 28.6923 16.7521 28.374 16.6129 28.0755C16.4736 27.7571 16.6725 27.2796 16.772 26.8816C16.8118 26.7424 16.971 26.6429 17.0904 26.5235C24.6715 18.5445 32.2726 10.5854 39.8537 2.60646C40.8088 1.59168 41.2267 1.59169 42.2415 2.56668C50.3798 10.5457 58.5181 18.5445 66.6364 26.5235C66.6961 26.5832 66.7757 26.6628 66.8354 26.7225C67.2135 27.0806 67.4324 27.4985 67.2135 28.0158C66.9946 28.553 66.5767 28.7521 65.9997 28.7521C64.2089 28.7322 62.4579 28.7521 60.6471 28.7521ZM42.0425 11.5803C41.744 11.7992 41.6843 11.839 41.6246 11.8788C36.2522 17.1915 30.8996 22.5042 25.5471 27.8368C25.368 28.0158 25.2685 28.3541 25.2486 28.6127C25.2287 31.3984 25.2287 34.1841 25.2287 36.9698C25.2287 37.1687 25.2486 37.3677 25.2685 37.5667C26.0047 37.5667 26.7011 37.5667 27.4374 37.5667C27.4374 35.8157 27.4374 34.0846 27.4374 32.3734C27.4374 31.3587 27.8154 30.9806 28.7904 30.9806C32.3124 30.9806 35.8343 30.9806 39.3563 30.9806C40.3114 30.9806 40.6894 31.3786 40.6894 32.3336C40.6894 34.1443 40.6695 35.9749 40.7093 37.7856C40.7093 38.0841 40.8884 38.4422 41.0874 38.6412C42.7389 40.2728 42.7389 42.76 41.0476 44.3518C40.9083 44.4911 40.7093 44.6702 40.7093 44.8294C40.6695 45.7248 40.6894 46.6003 40.6894 47.5355C42.1022 47.5952 43.3956 47.6747 44.5695 46.7793C47.4349 44.5707 50.34 42.4217 53.2252 40.2529C53.3645 40.1534 53.464 40.034 53.6828 39.8351C53.2849 39.8351 53.0461 39.8351 52.7874 39.8351C49.942 39.8351 47.0767 39.8351 44.2313 39.8351C43.2961 39.8351 42.8981 39.4371 42.8981 38.482C42.8981 36.4326 42.8981 34.3831 42.8981 32.3336C42.8981 31.3786 43.2961 30.9806 44.2313 30.9806C47.7532 30.9806 51.2752 30.9806 54.7971 30.9806C55.7721 30.9806 56.1502 31.3785 56.1502 32.3734C56.1502 34.2438 56.1502 36.0943 56.1502 37.9647C56.1502 38.2034 56.1502 38.4422 56.1502 38.6014C56.9461 38.7606 57.6425 38.8999 58.3589 39.0392C58.3589 35.6168 58.3589 32.1944 58.3788 28.7521C58.3788 28.2745 58.2196 27.9561 57.9012 27.6179C55.1354 24.9118 52.3895 22.2057 49.6634 19.4399C47.1165 16.8532 44.5894 14.2068 42.0425 11.5803ZM41.0277 4.53653C34.0435 11.8788 27.119 19.1415 20.095 26.5434C21.1894 26.5434 22.1047 26.5235 23.02 26.5633C23.4976 26.5832 23.8358 26.424 24.1542 26.0857C29.646 20.6338 35.1379 15.1818 40.6297 9.74976C41.6246 8.75488 42.0027 8.75485 43.0175 9.76963C48.5094 15.2216 54.0012 20.6537 59.4931 26.1057C59.6522 26.2648 59.8313 26.5235 60.0104 26.5235C61.0849 26.5633 62.1793 26.5434 63.413 26.5434C55.8915 19.1216 48.4696 11.8589 41.0277 4.53653ZM29.7256 33.1892C29.7256 34.6815 29.7256 36.1341 29.7256 37.5468C32.6705 37.5468 35.5558 37.5468 38.4808 37.5468C38.4808 36.0744 38.4808 34.6417 38.4808 33.1892C35.5359 33.1892 32.6506 33.1892 29.7256 33.1892ZM45.1665 37.5468C48.1313 37.5468 51.0364 37.5468 53.9216 37.5468C53.9216 36.0545 53.9216 34.6219 53.9216 33.2091C50.9767 33.2091 48.0915 33.2091 45.1665 33.2091C45.1665 34.6617 45.1665 36.0744 45.1665 37.5468ZM38.4808 45.3268C35.894 45.3268 33.367 45.3069 30.8399 45.3268C30.2231 45.3268 29.8052 45.8044 29.8052 46.4013C29.7853 47.0181 30.2231 47.4957 30.8797 47.5155C31.8149 47.5354 32.77 47.5156 33.7052 47.5355C35.2971 47.5355 36.869 47.5355 38.4808 47.5355C38.4808 46.7794 38.4808 46.1028 38.4808 45.3268Z" fill="black"/>
<path d="M19.6771 0C23.9751 0 28.2929 0 32.5909 0C33.2077 0 33.7649 0.0795811 34.0036 0.736205C34.2623 1.39283 33.8644 1.81066 33.4067 2.20862C31.4965 3.84023 29.6062 5.47186 27.6761 7.10347C26.7409 7.87948 26.3031 8.85445 26.323 10.0682C26.3429 10.7646 26.3628 11.4611 26.2832 12.1376C26.124 13.4707 25.5072 14.5651 24.572 15.5202C20.9904 19.0819 17.4286 22.6436 13.8669 26.2053C12.7725 27.2996 12.7128 28.0558 13.5883 29.2894C15.2796 31.6771 14.8817 34.8807 12.6332 36.7511C9.76788 39.1388 6.86277 41.4867 3.97756 43.8545C3.51991 44.2326 3.04236 44.3917 2.52501 44.0336C2.00766 43.6953 1.94797 43.2178 2.08725 42.6407C2.5847 40.5913 3.04236 38.5219 3.55971 36.4725C3.97757 34.8408 3.75868 33.3286 2.90307 31.896C1.5699 29.6873 0.773983 27.3195 0.754085 24.7129C0.734187 22.2058 1.33113 19.8778 2.6245 17.7487C3.55971 16.1967 3.53981 14.7641 2.42552 13.3315C1.94797 12.7345 1.53011 12.0978 1.09235 11.481C-0.55918 9.11314 -0.320404 6.30753 1.68929 4.23817C2.86328 3.02441 4.05716 1.85048 5.21124 0.636717C5.6291 0.198967 6.06685 0.0198686 6.66379 0.0198686C11.0215 0.0198686 15.3592 0 19.6771 0ZM5.649 16.5747C5.17145 17.5298 4.77348 18.3855 4.33573 19.2212C3.08215 21.6288 2.70409 24.1757 3.22144 26.842C3.55971 28.5731 4.45512 30.0455 5.25104 31.5776C5.43012 31.9358 5.6291 32.0751 6.02706 32.0552C6.88267 32.0353 7.75819 32.0552 8.5939 32.0552C8.5939 32.8511 8.5939 33.5475 8.5939 34.2837C7.71839 34.2837 6.88267 34.2837 6.20614 34.2837C5.82808 36.2337 5.45002 38.0842 5.05206 40.1137C7.26074 38.2832 9.42962 36.5918 11.4791 34.7812C12.6531 33.7465 12.7128 31.9358 11.8373 30.6026C11.5786 30.2047 11.2602 29.8068 11.1209 29.3491C10.9618 28.8318 10.7031 28.6925 10.1857 28.7124C8.95207 28.7521 7.71838 28.7323 6.48471 28.7323C6.48471 27.9563 6.48471 27.2797 6.48471 26.5236C7.67859 26.5236 8.85258 26.4838 10.0266 26.5435C10.6832 26.5634 11.1408 26.4639 11.3995 25.7675C11.5786 25.3497 11.9567 24.9915 12.2949 24.6532C15.8567 21.0716 19.4184 17.51 23 13.9483C23.6567 13.2916 24.1143 12.5355 24.1342 11.5805C24.1541 10.6851 24.1342 9.78963 24.1342 8.81464C20.8312 8.81464 17.5281 8.81464 14.2449 8.81464C14.2449 8.03863 14.2449 7.34224 14.2449 6.60603C14.5633 6.60603 14.8419 6.60603 15.1204 6.60603C18.2444 6.60603 21.3883 6.60603 24.5123 6.60603C24.771 6.60603 25.0893 6.54634 25.2485 6.40705C26.6613 5.19329 28.0342 3.91985 29.4271 2.68619C29.5664 2.5668 29.7654 2.48719 29.9246 2.36781C29.7256 2.20863 29.646 2.18875 29.5863 2.18875C22.1245 2.18875 14.6628 2.18872 7.20104 2.20862C6.94237 2.20862 6.6439 2.36781 6.44492 2.56678C5.48982 3.50198 4.55461 4.45708 3.6194 5.41217C1.90817 7.16316 1.80868 8.57589 3.22144 10.6254C4.03726 11.7993 4.79338 13.033 5.66889 14.386C7.95716 14.386 10.4643 14.386 13.0113 14.386C13.0113 15.1421 13.0113 15.8385 13.0113 16.5747C10.524 16.5747 8.03676 16.5747 5.649 16.5747Z" fill="black"/>
<path d="M62.8556 6.64583C62.8556 5.88972 62.8556 5.21317 62.8556 4.43716C63.2138 4.43716 63.552 4.45706 63.8903 4.43716C64.5867 4.39736 65.0444 3.95964 65.0444 3.32291C65.0444 2.68618 64.5668 2.24843 63.8704 2.22853C61.9602 2.20863 60.05 2.22853 58.1398 2.22853C57.901 2.22853 57.6423 2.22853 57.3638 2.22853C57.3638 1.49231 57.3638 0.815764 57.3638 0.11934C57.3837 0.0994425 57.4036 0.0397684 57.4434 0.0397684C59.7117 0.0397684 62 -0.0398228 64.2684 0.0397684C65.9796 0.0994619 67.2929 1.67137 67.2531 3.40248C67.2133 5.11369 65.8204 6.56622 64.1092 6.62592C63.7112 6.64581 63.3133 6.64583 62.8556 6.64583Z" fill="black"/>
<path d="M62.8559 15.4802C62.8559 14.744 62.8559 14.0476 62.8559 13.2716C63.1941 13.2716 63.5125 13.2915 63.8508 13.2716C64.5472 13.2517 65.0248 12.8139 65.0248 12.1772C65.0248 11.5405 64.5671 11.0828 63.8707 11.0629C63.1742 11.043 62.4977 11.0629 61.7615 11.0629C61.7615 10.3267 61.7615 9.63026 61.7615 8.81445C62.7763 8.87415 63.7911 8.81448 64.7661 8.99356C66.3579 9.31192 67.3927 10.8838 67.2335 12.4955C67.0743 14.1271 65.7013 15.4205 64.0498 15.4802C63.6717 15.5001 63.2737 15.4802 62.8559 15.4802Z" fill="black"/>
<path d="M50.6185 2.18869C49.8822 2.18869 49.2057 2.18869 48.4894 2.18869C48.4894 1.47237 48.4894 0.795796 48.4894 0.0595703C49.1659 0.0595703 49.8623 0.0595703 50.6185 0.0595703C50.6185 0.736102 50.6185 1.43257 50.6185 2.18869Z" fill="black"/>
<path d="M55.0358 2.18869C54.2996 2.18869 53.6231 2.18869 52.9067 2.18869C52.9067 1.47237 52.9067 0.795796 52.9067 0.0595703C53.5833 0.0595703 54.2797 0.0595703 55.0358 0.0595703C55.0358 0.736102 55.0358 1.43257 55.0358 2.18869Z" fill="black"/>
<path d="M55.0359 11.043C54.3196 11.043 53.6431 11.043 52.9268 11.043C52.9268 10.3267 52.9268 9.63027 52.9268 8.89404C53.6033 8.89404 54.2997 8.89404 55.0359 8.89404C55.0359 9.61037 55.0359 10.3267 55.0359 11.043Z" fill="black"/>
<path d="M59.4731 8.89404C59.4731 9.61036 59.4731 10.2869 59.4731 11.0231C58.7767 11.0231 58.0802 11.0231 57.344 11.0231C57.344 10.3267 57.344 9.63026 57.344 8.89404C58.0404 8.89404 58.717 8.89404 59.4731 8.89404Z" fill="black"/>
<path d="M51.2752 24.8722C50.718 25.4095 50.2007 25.887 49.6833 26.3844C47.0568 23.6187 44.47 20.9126 41.8435 18.1667C39.217 20.9126 36.6302 23.6187 34.0037 26.3844C33.4864 25.887 32.969 25.4094 32.4119 24.8921C32.5512 24.7329 32.6506 24.5937 32.7899 24.4544C35.4165 21.6886 38.0629 18.9228 40.6894 16.157C41.5848 15.2218 42.0823 15.2218 42.9777 16.1371C45.7037 19.0422 48.4496 21.9274 51.2752 24.8722Z" fill="black"/>
</svg>
