<svg width="65" height="57" viewBox="0 0 65 57" fill="none" xmlns="http://www.w3.org/2000/svg">
<path d="M12.4536 0.0265248C13.0239 0.318297 13.2095 0.782481 13.2095 1.43234C13.1963 16.7769 13.1963 32.1348 13.1963 47.4794C13.1963 48.4342 12.8382 48.7791 11.8965 48.7923C11.6843 48.7923 11.4722 48.7923 11.2069 48.7923C11.2069 49.4687 11.2069 50.1318 11.2069 50.8215C25.4244 50.8215 39.6154 50.8215 53.8462 50.8215C53.8462 50.1451 53.8462 49.4952 53.8462 48.7923C53.5677 48.7923 53.3289 48.7923 53.0769 48.7923C52.2149 48.7791 51.8435 48.421 51.8435 47.5457C51.8435 44.0974 51.8435 40.6492 51.8435 37.1877C51.8435 25.3046 51.8435 13.4348 51.8302 1.5517C51.8302 0.88858 51.9364 0.33156 52.5862 0.0265248C54.191 0.0265248 55.809 0.0265248 57.4138 0.0265248C57.4801 0.0663119 57.5464 0.132624 57.6127 0.159149C59.1777 0.742694 59.9204 1.80368 59.9337 3.48801C59.9337 3.67368 59.9337 3.85935 59.9337 4.11134C60.6366 4.11134 61.2732 4.11134 61.9231 4.11134C61.9231 4.81425 61.9231 5.43758 61.9231 6.14049C61.2467 6.14049 60.5968 6.14049 59.9867 6.14049C59.9867 18.3817 59.9867 30.5433 59.9867 42.7579C60.6631 42.7579 61.2865 42.7579 61.9364 42.7579C61.9364 43.4343 61.9364 44.0577 61.9364 44.7606C61.26 44.7606 60.6101 44.7606 59.9072 44.7606C60.0398 45.9807 59.8276 47.0152 58.992 47.8772C58.13 48.7525 57.0424 48.8719 55.9284 48.8189C55.9284 49.5483 55.9284 50.1849 55.9284 50.8878C58.9788 50.8878 61.9761 50.8878 64.9868 50.8878C64.9868 51.5642 64.9868 52.1875 64.9868 52.8639C64.7082 52.8639 64.4562 52.8639 64.2042 52.8639C47.9045 52.8639 31.6048 52.8639 15.305 52.8639C10.1989 52.8639 5.1061 52.8771 0 52.8771C0 52.2008 0 51.5244 0 50.848C3.03714 50.848 6.07425 50.848 9.12464 50.848C9.12464 50.1318 9.12464 49.4952 9.12464 48.7658C7.94427 48.8984 6.9098 48.6995 6.04773 47.8507C5.1724 46.9886 5.02651 45.9144 5.09283 44.6942C4.37665 44.6942 3.74005 44.6942 3.11671 44.6942C3.11671 43.9913 3.11671 43.368 3.11671 42.6916C3.7931 42.6916 4.41644 42.6916 5.06631 42.6916C5.06631 30.477 5.06631 18.3154 5.06631 6.07417C4.38991 6.07417 3.75332 6.07417 3.11671 6.07417C3.11671 5.37127 3.11671 4.74793 3.11671 4.07155C3.7931 4.07155 4.41645 4.07155 5.1061 4.07155C5.1061 3.76652 5.1061 3.5278 5.1061 3.27581C5.09284 2.04241 5.67638 1.14057 6.68434 0.477446C6.97612 0.291773 7.32096 0.159149 7.626 0C9.23077 0.0265248 10.8488 0.0265248 12.4536 0.0265248ZM11.1538 46.7897C11.1538 31.8297 11.1538 16.9626 11.1538 2.05567C10.053 2.05567 9.00529 2.04241 7.94429 2.05567C7.42704 2.06893 7.13526 2.38723 7.10874 2.90446C7.09547 3.22276 7.09549 3.54106 7.09549 3.85935C7.09549 15.1191 7.09549 26.3789 7.09549 37.6387C7.09549 40.3044 7.09549 42.9701 7.09549 45.6359C7.09549 46.4051 7.32094 46.7632 7.90449 46.7764C8.97876 46.8162 10.053 46.7897 11.1538 46.7897ZM53.8727 46.803C54.8276 46.803 55.7427 46.803 56.6446 46.803C57.7188 46.803 57.9576 46.5642 57.9576 45.5033C57.9576 31.5114 57.9576 17.5329 57.9576 3.54106C57.9576 3.30233 58.0239 3.03709 57.931 2.85141C57.7851 2.55964 57.5332 2.12198 57.2944 2.10872C56.1671 2.02915 55.0265 2.06893 53.8859 2.06893C53.8727 16.9891 53.8727 31.843 53.8727 46.803Z" fill="black"/>
<path d="M38.1168 0.026446C38.2495 0.0927579 38.3688 0.15907 38.5014 0.212119C39.841 0.742615 40.6367 1.9097 40.6367 3.3553C40.6367 17.4134 40.6367 31.4716 40.6367 45.5297C40.6367 47.3599 39.2044 48.8055 37.3741 48.779C36.711 48.7657 35.9816 48.7259 35.398 48.4607C34.1911 47.9037 33.5413 46.8957 33.5413 45.5297C33.5413 31.4318 33.5413 17.3339 33.5413 3.22268C33.5413 1.81687 34.284 0.888501 35.5041 0.278431C35.6898 0.185595 35.8755 0.10602 36.0611 0.0131836C36.7641 0.026446 37.4405 0.026446 38.1168 0.026446ZM38.6473 24.4823C38.6473 22.0022 38.6473 19.5354 38.6473 17.0553C38.6473 12.44 38.6473 7.82473 38.6473 3.20942C38.6473 2.30758 38.3688 2.04233 37.467 2.04233C37.2946 2.04233 37.1222 2.04233 36.963 2.04233C35.7694 2.04233 35.5572 2.24126 35.5572 3.43488C35.5572 17.2941 35.5572 31.1533 35.5572 45.0257C35.5572 46.7498 35.597 46.8029 37.3344 46.8029C38.4086 46.8029 38.6341 46.5774 38.6341 45.5032C38.6341 38.5006 38.6341 31.4848 38.6473 24.4823Z" fill="black"/>
<path d="M47.2678 0.0266113C47.4402 0.106186 47.5994 0.18576 47.7718 0.265334C49.045 0.875404 49.7877 1.84356 49.7877 3.28916C49.7877 17.3871 49.7877 31.485 49.7877 45.5962C49.7877 47.3601 48.3686 48.7526 46.6047 48.7924C45.61 48.8189 44.6551 48.7394 43.8726 48.0364C43.1431 47.3866 42.7188 46.6041 42.7188 45.5962C42.7188 31.4717 42.7188 17.3473 42.7188 3.23611C42.7188 1.84356 43.4615 0.901929 44.6816 0.291859C44.8673 0.199022 45.053 0.119448 45.2386 0.0266113C45.9018 0.0266113 46.5914 0.0266113 47.2678 0.0266113ZM47.7851 24.4161C47.7851 17.5993 47.7851 10.7824 47.7851 3.96554C47.7851 2.04249 47.7585 2.01597 45.8355 2.04249C44.9734 2.05576 44.6949 2.321 44.6949 3.18306C44.6949 17.3208 44.6949 31.4585 44.6949 45.5962C44.6949 46.5378 44.9601 46.7898 45.9018 46.8031C46.0742 46.8031 46.2466 46.8031 46.4058 46.8031C47.5596 46.8031 47.7718 46.5909 47.7718 45.437C47.7851 38.4212 47.7851 31.4187 47.7851 24.4161Z" fill="black"/>
<path d="M28.9656 0.0266113C29.0982 0.0929233 29.2176 0.159235 29.3502 0.212285C30.703 0.756043 31.4855 1.89661 31.4855 3.35547C31.4855 17.4136 31.4855 31.4717 31.4855 45.5299C31.4855 47.3733 30.0796 48.7526 28.2361 48.8057C27.0823 48.8322 26.0478 48.6333 25.2521 47.7314C24.7083 47.1213 24.4165 46.4317 24.4165 45.5962C24.4165 31.5115 24.4165 17.4401 24.4165 3.35547C24.4165 1.87008 25.2255 0.716255 26.6181 0.18576C26.7375 0.145973 26.8303 0.0796609 26.9497 0.0266113C27.6128 0.0266113 28.2892 0.0266113 28.9656 0.0266113ZM26.4059 24.3498C26.4059 31.2065 26.4059 38.0631 26.4059 44.9198C26.4059 46.7633 26.4457 46.8163 28.2759 46.8031C29.2308 46.7898 29.4961 46.5378 29.4961 45.6094C29.4961 31.4717 29.4961 17.334 29.4961 3.19632C29.4961 2.33427 29.2176 2.06902 28.3555 2.05576C28.1698 2.05576 27.9709 2.05576 27.7852 2.05576C26.6181 2.05576 26.4059 2.26795 26.4059 3.40852C26.4059 10.3845 26.4059 17.3605 26.4059 24.3498Z" fill="black"/>
<path d="M19.8277 0.0266113C20.199 0.212285 20.5969 0.371433 20.9284 0.610156C21.8436 1.26001 22.3476 2.14859 22.3476 3.30242C22.3476 17.3605 22.3476 31.4187 22.3476 45.4768C22.3476 47.1744 21.1141 48.62 19.5359 48.7924C17.3475 49.0179 15.756 48.0762 15.3449 46.2991C15.2918 46.0604 15.2786 45.7951 15.2786 45.5431C15.2786 31.5513 15.2786 17.5595 15.2786 3.55441C15.2786 1.80377 15.9947 0.782567 17.6526 0.145973C17.7056 0.119448 17.7454 0.0663985 17.7985 0.0266113C18.4616 0.0266113 19.138 0.0266113 19.8277 0.0266113ZM17.268 24.3498C17.268 30.7821 17.268 37.2143 17.268 43.6466C17.268 44.3893 17.2547 45.132 17.268 45.8747C17.2812 46.4184 17.5597 46.8163 18.1168 46.7765C18.8727 46.7102 19.8276 47.2274 20.3051 46.1665C20.3581 46.0604 20.3449 45.9145 20.3449 45.7951C20.3582 45.6094 20.3449 45.4105 20.3449 45.2248C20.3449 32.9306 20.3449 20.6364 20.3449 8.34213C20.3449 6.60475 20.3582 4.86738 20.3449 3.13001C20.3449 2.34753 20.0531 2.06902 19.2706 2.05576C19.0849 2.05576 18.886 2.05576 18.7003 2.05576C17.4536 2.05576 17.268 2.24143 17.268 3.47483C17.2547 10.4243 17.268 17.3871 17.268 24.3498Z" fill="black"/>
<path d="M1.65796e-10 54.9062C5.33157 54.9062 10.6764 54.9195 16.008 54.9195C32.1485 54.9195 48.2759 54.9195 64.4165 54.9195C64.6021 54.9195 64.7878 54.9195 65 54.9195C65 55.6092 65 56.2325 65 56.9089C64.695 56.9089 64.4297 56.9089 64.1645 56.9089C43.0769 56.9089 21.9894 56.9089 0.901831 56.9089C0.610054 56.9089 0.30502 56.9221 0.0132432 56.9221C-1.94278e-05 56.259 1.65796e-10 55.5826 1.65796e-10 54.9062Z" fill="black"/>
</svg>
