<svg width="69" height="62" viewBox="0 0 69 62" fill="none" xmlns="http://www.w3.org/2000/svg">
<path d="M30.2241 34.2224C31.2326 34.2224 32.2411 34.2224 33.3525 34.2224C33.3525 33.8108 33.3525 33.4403 33.3525 33.0493C33.3525 31.197 34.505 30.065 36.3985 30.065C40.9676 30.065 45.5162 30.065 50.0853 30.065C55.313 30.065 60.5201 30.065 65.7479 30.065C67.8883 30.065 68.9792 31.1558 68.9792 33.2757C68.9792 40.9113 68.9586 48.5675 68.9997 56.2032C69.0203 58.0555 67.7649 59.4345 65.8096 59.4139C56.0539 59.3521 46.2983 59.3933 36.5426 59.3727C35.9046 59.3727 35.2048 59.2287 34.6697 58.9405C33.7641 58.4671 33.373 57.6027 33.373 56.5531C33.373 53.5276 33.373 50.5228 33.373 47.4973C33.373 47.2503 33.373 47.0034 33.373 46.6947C32.344 46.6947 31.3972 46.674 30.4505 46.7152C30.327 46.7152 30.1417 47.1063 30.1417 47.3121C30.1212 49.0615 30.08 50.8109 30.1417 52.5603C30.2035 54.7419 29.8124 56.7589 28.4129 58.5083C26.8898 60.3812 24.9552 61.5132 22.506 61.5749C19.357 61.6367 16.208 61.6573 13.0384 61.5749C9.33376 61.472 5.87606 58.0967 5.73198 54.392C5.58791 50.9344 5.64966 47.4562 5.64966 43.9779C5.62908 39.8205 5.67024 35.6837 5.62908 31.5263C5.62908 31.1764 5.42326 30.7442 5.17628 30.4766C1.4716 26.5867 -0.257255 21.9765 0.0308874 16.6254C0.483682 8.47522 6.98746 1.37468 15.0966 0.201543C24.276 -1.13624 32.7762 4.29724 35.1431 13.1883C36.8719 19.6509 35.2871 25.3931 30.7592 30.2914C30.3064 30.7853 30.0594 31.2381 30.1212 31.8967C30.1829 32.5965 30.1417 33.2963 30.1623 33.996C30.1417 34.0784 30.1829 34.1401 30.2241 34.2224ZM8.09887 52.0046C8.09887 52.478 8.09887 52.8485 8.09887 53.2395C8.09887 56.8412 10.4452 59.2081 14.0469 59.2081C16.6196 59.2081 19.1718 59.2287 21.7444 59.2081C22.4031 59.2081 23.0617 59.1463 23.6791 58.9611C26.1695 58.2201 27.6514 56.1003 27.6514 53.363C27.6514 47.1886 27.6514 41.0142 27.6308 34.8604C27.6308 34.2636 27.6308 33.6461 27.6308 32.967C21.1064 36.7539 14.6232 36.7539 8.11945 32.9875C8.11945 38.5445 8.11945 44.0191 8.11945 49.576C10.6716 49.576 13.1825 49.576 15.714 49.576C15.714 50.4199 15.714 51.1814 15.714 52.0252C13.1825 52.0046 10.6716 52.0046 8.09887 52.0046ZM17.834 33.3168C26.3341 33.358 33.3319 26.4221 33.3525 17.9426C33.3936 9.46315 26.4165 2.42436 17.978 2.40378C9.41609 2.3832 2.45951 9.29846 2.41835 17.9014C2.37719 26.3192 9.33376 33.2757 17.834 33.3168ZM51.1761 56.9853C56.0128 56.9853 60.8289 56.9853 65.6655 57.0058C66.3241 57.0058 66.53 56.8001 66.53 56.162C66.5094 48.5676 66.5094 40.9731 66.53 33.358C66.53 32.6994 66.3036 32.5141 65.6655 32.5141C55.9716 32.5347 46.2983 32.5347 36.6043 32.5141C35.9663 32.5141 35.7399 32.6994 35.7605 33.358C35.7811 40.9525 35.7811 48.547 35.7605 56.162C35.7605 56.8206 35.9663 57.0058 36.6249 57.0058C41.4822 56.9853 46.3394 56.9853 51.1761 56.9853ZM30.1623 36.6921C30.1623 39.1619 30.1623 41.5287 30.1829 43.8956C30.1829 44.0191 30.4505 44.2455 30.5945 44.2661C31.356 44.3072 32.1381 44.3072 32.8997 44.2661C33.0437 44.2661 33.3113 44.0191 33.3113 43.8956C33.3319 41.6316 33.3319 39.3677 33.3113 37.1038C33.3113 36.9597 33.0643 36.7333 32.9202 36.7127C32.0558 36.6716 31.1708 36.6921 30.1623 36.6921Z" fill="black"/>
<path d="M28.7629 17.5104C28.9481 23.1085 24.7906 28.2949 18.575 28.7683C12.5858 29.2211 7.41979 24.5903 6.98758 18.4365C6.57595 12.7973 11.2685 7.40498 16.8873 7.0551C23.3293 6.62289 28.3513 11.0273 28.7629 17.5104ZM26.3137 17.9014C26.3754 13.2912 22.6296 9.48368 17.9987 9.42194C13.3061 9.36019 9.51911 13.0648 9.41621 17.7985C9.3133 22.3675 13.1826 26.2985 17.7929 26.3397C22.4649 26.3808 26.2725 22.6351 26.3137 17.9014Z" fill="black"/>
<path d="M61.1786 55.2564C60.7053 55.2564 60.3142 55.2564 59.9026 55.2564C52.8431 55.2564 45.8042 55.2564 38.7447 55.2564C37.798 55.2564 37.798 55.2564 37.798 54.2891C37.798 47.8883 37.798 41.5081 37.798 35.1073C37.798 34.8604 37.798 34.6134 37.798 34.3047C45.619 34.3047 53.3782 34.3047 61.1786 34.3047C61.1786 41.2612 61.1786 48.197 61.1786 55.2564ZM40.2883 52.7866C40.5353 52.8072 40.6794 52.8072 40.844 52.8072C46.6069 52.8072 52.3697 52.8072 58.1326 52.8278C58.7089 52.8278 58.7912 52.6014 58.7912 52.1075C58.7706 47.1886 58.7912 42.2696 58.7706 37.3301C58.7706 37.1243 58.7294 36.9391 58.7294 36.7127C52.555 36.7127 46.4422 36.7127 40.2883 36.7127C40.2883 42.0844 40.2883 47.4149 40.2883 52.7866Z" fill="black"/>
<path d="M65.2745 35.1279C65.2745 36.0335 65.2745 36.7538 65.2745 37.5771C64.4513 37.5771 63.6486 37.577 62.8459 37.5565C62.7636 37.5565 62.6401 37.4124 62.5783 37.3095C62.5372 37.2478 62.5578 37.1243 62.5578 37.0419C62.5989 36.4451 62.6401 35.8277 62.6607 35.2308C63.5251 35.2103 64.3689 35.1691 65.2745 35.1279Z" fill="black"/>
<path d="M65.2745 40.1499C65.2745 40.932 65.2745 41.6729 65.2745 42.5168C64.4718 42.5168 63.6691 42.5374 62.8665 42.4962C62.7636 42.4962 62.5989 42.2698 62.5783 42.1463C62.5577 41.4877 62.5577 40.8497 62.5577 40.1499C63.4839 40.1499 64.3483 40.1499 65.2745 40.1499Z" fill="black"/>
<path d="M65.2951 45.0483C65.2951 45.7893 65.2746 46.4067 65.2951 47.0241C65.3157 47.374 65.1511 47.5181 64.8218 47.4975C64.2249 47.4769 63.6486 47.5181 63.0518 47.477C62.8665 47.4564 62.599 47.1888 62.5784 47.0241C62.352 45.0689 62.3726 45.0689 64.3484 45.0483C64.6365 45.0483 64.9247 45.0483 65.2951 45.0483Z" fill="black"/>
<path d="M17.7927 13.3323C17.7927 14.1144 17.7927 14.8553 17.7927 15.3904C17.1135 15.9461 16.4549 16.3578 16.0227 16.934C15.7552 17.2633 15.7552 17.8808 15.7963 18.3542C15.9198 19.3009 16.8254 20.0007 17.8133 20.0418C18.9659 20.0624 19.7068 19.3832 20.0773 17.9425C20.4478 17.9425 20.8182 17.9425 21.2093 17.9425C21.6003 17.9425 21.9708 17.9425 22.3413 17.9425C22.7117 20.0212 20.7153 22.2029 18.225 22.4704C15.714 22.7585 13.4089 20.6798 13.306 18.0454C13.2236 15.4934 15.3024 13.2706 17.7927 13.3323Z" fill="black"/>
</svg>
