<svg width="68" height="68" viewBox="0 0 68 68" fill="none" xmlns="http://www.w3.org/2000/svg">
<path d="M43.232 63.1481C33.7674 63.1481 24.3548 63.1481 14.8729 63.1481C14.8729 55.9025 14.8729 48.6742 14.8729 41.3765C11.926 41.3765 9.06586 41.3765 6.13635 41.3765C6.13635 35.3962 6.13635 29.4853 6.13635 23.453C4.83627 24.3197 3.64019 25.1171 2.39211 25.9318C1.99342 25.3425 1.61207 24.7704 1.19604 24.1464C1.40406 23.9904 1.59474 23.8517 1.80275 23.713C5.963 20.9396 10.1406 18.1488 14.3182 15.3927C14.7169 15.1327 14.9075 14.8553 14.8729 14.3526C14.8382 13.2606 14.8729 12.1685 14.8555 11.0938C14.8382 10.6258 14.9769 10.2965 15.3062 9.96711C18.5131 6.79497 21.6853 3.58816 24.9095 0.416023C25.1348 0.190679 25.5162 0.0173299 25.8282 0.0173299C37.9623 -4.23222e-06 50.0964 0 62.2304 0C62.3865 0 62.5425 0 62.7678 0C62.7678 2.91213 62.7678 5.78958 62.7678 8.63237C65.628 9.1524 67.1534 10.7471 67.1361 13.1219C67.1188 15.4273 65.524 17.0394 62.8198 17.4728C62.8198 22.5343 62.8198 27.6132 62.8198 32.6921C62.8545 32.7095 62.8718 32.7615 62.9065 32.7788C65.8533 33.7495 67.1361 35.5522 67.1361 38.6551C67.1361 46.3687 67.1361 54.0824 67.1361 61.7961C67.1361 65.1936 64.8133 67.5163 61.3984 67.5163C57.4115 67.5163 53.4072 67.4297 49.4203 67.551C46.3695 67.6203 44.064 66.1123 43.232 63.1481ZM43.1799 60.964C43.1799 60.6347 43.1799 60.3573 43.1799 60.0973C43.1799 52.8343 43.1799 45.5714 43.1799 38.3257C43.1799 35.0149 45.5201 32.6748 48.8483 32.6748C52.5232 32.6748 56.1981 32.6748 59.873 32.6748C60.1157 32.6748 60.341 32.6748 60.5663 32.6748C60.5663 27.5439 60.5663 22.517 60.5663 17.4381C60.2543 17.4381 59.9943 17.4381 59.717 17.4381C52.1592 17.4381 44.6014 17.4381 37.0609 17.4208C36.6449 17.4208 36.2115 17.3168 35.8302 17.1434C33.2993 15.9127 30.8032 14.6473 28.2897 13.3819C28.1164 13.2952 27.9603 13.1912 27.735 13.0526C30.4738 11.6832 33.0913 10.3484 35.7435 9.06572C36.1595 8.85771 36.6449 8.73639 37.0956 8.73639C44.6707 8.71906 52.2458 8.71904 59.821 8.71904C60.0636 8.71904 60.3063 8.71904 60.549 8.71904C60.549 6.50028 60.549 4.3682 60.549 2.2361C49.2817 2.2361 38.0663 2.2361 26.8163 2.2361C26.8163 5.51225 26.8163 8.71905 26.8163 11.9952C23.5401 11.9952 20.2985 11.9952 17.0917 11.9952C17.0917 12.5325 17.0917 12.9832 17.0917 13.7113C17.9237 12.4632 18.5651 13.1393 19.2411 13.5899C24.3028 16.9701 29.3471 20.3329 34.4087 23.6957C34.6168 23.8344 34.8074 23.9731 35.0501 24.1464C34.6341 24.7531 34.2527 25.3425 33.854 25.9491C32.5886 25.1171 31.3926 24.3197 30.0925 23.453C30.0925 29.52 30.0925 35.4136 30.0925 41.3938C25.7069 41.3938 21.3906 41.3938 17.0917 41.3938C17.0917 47.9635 17.0917 54.4637 17.0917 60.964C25.7935 60.964 34.4261 60.964 43.1799 60.964ZM27.8737 39.1751C27.9083 39.0711 27.9257 39.0191 27.9257 38.9844C27.9257 33.4548 27.943 27.9252 27.9083 22.3783C27.9083 22.153 27.683 21.8583 27.475 21.7196C24.5281 19.7262 21.564 17.7675 18.5998 15.774C18.2531 15.5314 18.0104 15.514 17.6464 15.7567C14.7169 17.7328 11.77 19.6915 8.82318 21.6329C8.44182 21.893 8.30315 22.1703 8.30315 22.621C8.32048 27.9252 8.32048 33.2295 8.32048 38.5337C8.32048 38.7244 8.33781 38.9324 8.35515 39.1404C9.81124 39.1404 11.2327 39.1404 12.6887 39.1404C12.6887 37.2856 12.6714 35.4656 12.6887 33.6628C12.7234 30.9414 14.7515 28.7053 17.473 28.3239C20.0385 27.9772 22.5867 29.624 23.3147 32.1721C23.4881 32.7441 23.5401 33.3682 23.5574 33.9748C23.5921 35.6909 23.5747 37.407 23.5747 39.1577C25.0482 39.1751 26.4349 39.1751 27.8737 39.1751ZM45.3467 50.0609C45.3467 53.9611 45.3467 57.8612 45.3467 61.7614C45.3467 64.0148 46.6815 65.3322 48.9523 65.3322C53.0432 65.3322 57.1168 65.3322 61.2077 65.3322C63.6692 65.3322 64.9519 64.0668 64.9519 61.6227C64.9519 53.8917 64.9519 46.1607 64.9519 38.4124C64.9519 36.1589 63.6172 34.8416 61.3464 34.8416C57.2208 34.8416 53.0952 34.8416 48.9696 34.8416C46.6815 34.8416 45.3641 36.1763 45.3641 38.4817C45.3467 42.3472 45.3467 46.1954 45.3467 50.0609ZM37.7543 15.202C44.6707 15.202 51.5178 15.202 58.3649 15.202C58.3649 13.7459 58.3649 12.3245 58.3649 10.9378C51.4658 10.9378 44.636 10.9378 37.7543 10.9378C37.7543 12.3592 37.7543 13.7459 37.7543 15.202ZM21.3906 39.1751C21.3906 37.3897 21.3906 35.6389 21.3906 33.9055C21.3906 33.7322 21.3906 33.5415 21.3733 33.3682C21.1653 31.7561 19.7959 30.5254 18.1838 30.4907C16.5717 30.4734 15.0462 31.6347 14.9249 33.2642C14.7862 35.2229 14.8902 37.1817 14.8902 39.1751C17.057 39.1751 19.1718 39.1751 21.3906 39.1751ZM24.5975 9.75909C24.5975 7.76567 24.5975 5.82425 24.5975 4.00417C22.6907 5.89359 20.7319 7.835 18.7731 9.75909C20.6972 9.75909 22.6214 9.75909 24.5975 9.75909ZM60.6183 15.2367C61.4157 15.2367 62.1438 15.254 62.8718 15.2367C63.9639 15.202 64.8479 14.3353 64.9519 13.2606C65.0559 12.1512 64.2932 11.0765 63.2012 10.9378C62.3691 10.8338 61.5024 10.9205 60.6357 10.9205C60.6184 12.3766 60.6183 13.7633 60.6183 15.2367ZM35.5181 11.5792C34.4954 12.0819 33.5767 12.5499 32.5366 13.0699C33.6114 13.6073 34.5301 14.058 35.5181 14.5606C35.5181 13.5379 35.5181 12.6192 35.5181 11.5792Z" fill="black"/>
<path d="M10.9033 11.1284C11.3887 11.7351 11.8047 12.2552 12.2554 12.8272C10.21 14.4566 8.19917 16.0687 6.13638 17.7154C4.10826 16.086 2.08013 14.4739 0.017334 12.8099C0.485362 12.2205 0.918726 11.6831 1.38675 11.1111C2.84284 12.2725 4.26426 13.3992 5.65101 14.5433C6.01503 14.8553 6.25772 14.8553 6.62174 14.5433C8.02583 13.4166 9.44725 12.2898 10.9033 11.1284Z" fill="black"/>
<path d="M10.9033 50.9451C9.44725 49.7838 8.02583 48.657 6.62174 47.513C6.25772 47.201 6.01503 47.201 5.65101 47.513C4.26426 48.6744 2.84285 49.7838 1.36942 50.9451C0.918727 50.3731 0.485363 49.8358 0 49.2464C2.04546 47.5996 4.05625 46.0049 6.11904 44.3408C8.12983 45.9529 10.1406 47.565 12.2554 49.2291C11.8221 49.8011 11.3714 50.3558 10.9033 50.9451Z" fill="black"/>
<path d="M7.21111 0.034668C7.21111 0.728034 7.21111 1.40406 7.21111 2.1321C6.53507 2.1321 5.84169 2.1321 5.11365 2.1321C5.11365 1.45606 5.11365 0.762703 5.11365 0.034668C5.78969 0.034668 6.44839 0.034668 7.21111 0.034668Z" fill="black"/>
<path d="M5.09631 4.3855C5.80703 4.3855 6.48307 4.3855 7.19379 4.3855C7.19379 5.07885 7.19379 5.77221 7.19379 6.50023C6.50041 6.50023 5.82436 6.50023 5.09631 6.50023C5.09631 5.80688 5.09631 5.13085 5.09631 4.3855Z" fill="black"/>
<path d="M5.07898 10.8338C5.07898 10.1231 5.07898 9.46436 5.07898 8.771C5.77235 8.771 6.46572 8.771 7.19376 8.771C7.19376 9.44703 7.19376 10.1231 7.19376 10.8338C6.48305 10.8338 5.77235 10.8338 5.07898 10.8338Z" fill="black"/>
<path d="M7.21111 51.2222C7.21111 51.9156 7.21111 52.5916 7.21111 53.3197C6.51773 53.3197 5.84169 53.3197 5.11365 53.3197C5.11365 52.6436 5.11365 51.9502 5.11365 51.2222C5.78969 51.2222 6.44839 51.2222 7.21111 51.2222Z" fill="black"/>
<path d="M5.11365 55.5557C5.82436 55.5557 6.48307 55.5557 7.19378 55.5557C7.19378 56.2664 7.19378 56.9597 7.19378 57.6705C6.5004 57.6705 5.82436 57.6705 5.11365 57.6705C5.11365 56.9944 5.11365 56.3184 5.11365 55.5557Z" fill="black"/>
<path d="M7.21112 59.9238C7.21112 60.6345 7.21112 61.3105 7.21112 62.0212C6.5004 62.0212 5.82437 62.0212 5.09631 62.0212C5.09631 61.3279 5.09631 60.6345 5.09631 59.9238C5.7897 59.9238 6.46574 59.9238 7.21112 59.9238Z" fill="black"/>
<path d="M40.9611 43.5952C40.9611 44.3059 40.9611 44.9646 40.9611 45.6926C33.7327 45.6926 26.5215 45.6926 19.2584 45.6926C19.2584 45.0166 19.2584 44.3232 19.2584 43.5952C26.4869 43.5952 33.7153 43.5952 40.9611 43.5952Z" fill="black"/>
<path d="M19.2411 54.3943C19.2411 53.6836 19.2411 53.0076 19.2411 52.2969C26.4695 52.2969 33.6806 52.2969 40.9264 52.2969C40.9264 52.9729 40.9264 53.6489 40.9264 54.3943C33.7326 54.3943 26.5215 54.3943 19.2411 54.3943Z" fill="black"/>
<path d="M58.3822 19.6396C58.3822 20.3677 58.3822 21.0264 58.3822 21.7371C51.5178 21.7371 44.6707 21.7371 37.7716 21.7371C37.7716 21.0611 37.7716 20.3677 37.7716 19.6396C44.6187 19.6396 51.4831 19.6396 58.3822 19.6396Z" fill="black"/>
<path d="M36.6102 56.665C36.6102 57.3757 36.6102 58.0518 36.6102 58.7625C30.8205 58.7625 25.0481 58.7625 19.2411 58.7625C19.2411 58.0691 19.2411 57.3931 19.2411 56.665C25.0134 56.665 30.7858 56.665 36.6102 56.665Z" fill="black"/>
<path d="M23.6095 50.0437C23.6095 49.333 23.6095 48.657 23.6095 47.9463C29.3992 47.9463 35.1369 47.9463 40.9439 47.9463C40.9439 48.6223 40.9439 49.2983 40.9439 50.0437C35.1889 50.0437 29.4165 50.0437 23.6095 50.0437Z" fill="black"/>
<path d="M58.3995 23.9902C58.3995 24.7183 58.3995 25.377 58.3995 26.0704C52.9739 26.0704 47.5829 26.0704 42.1226 26.0704C42.1226 25.3943 42.1226 24.7183 42.1226 23.9902C47.5309 23.9902 52.9392 23.9902 58.3995 23.9902Z" fill="black"/>
<path d="M54.0312 28.3584C54.0312 29.0864 54.0312 29.7451 54.0312 30.4559C48.6056 30.4559 43.2319 30.4559 37.7889 30.4559C37.7889 29.7798 37.7889 29.0864 37.7889 28.3584C43.1626 28.3584 48.5709 28.3584 54.0312 28.3584Z" fill="black"/>
<path d="M19.2759 47.9287C19.9692 47.9287 20.6453 47.9287 21.356 47.9287C21.356 48.6394 21.356 49.3154 21.356 50.0434C20.6626 50.0434 20.0039 50.0434 19.2759 50.0434C19.2759 49.3848 19.2759 48.6914 19.2759 47.9287Z" fill="black"/>
<path d="M37.7543 26.0877C37.7543 25.3596 37.7543 24.7009 37.7543 23.9902C38.4477 23.9902 39.1237 23.9902 39.8518 23.9902C39.8518 24.6663 39.8518 25.3596 39.8518 26.0877C39.1757 26.0877 38.4997 26.0877 37.7543 26.0877Z" fill="black"/>
<path d="M58.3821 28.3413C58.3821 29.052 58.3821 29.7107 58.3821 30.4387C57.6888 30.4387 57.0127 30.4387 56.2673 30.4387C56.2673 29.7454 56.2673 29.0693 56.2673 28.3413C56.9607 28.3413 57.6367 28.3413 58.3821 28.3413Z" fill="black"/>
<path d="M40.9439 58.7798C40.2505 58.7798 39.5745 58.7798 38.8638 58.7798C38.8638 58.0691 38.8638 57.3757 38.8638 56.665C39.5572 56.665 40.2159 56.665 40.9439 56.665C40.9439 57.3237 40.9439 58.0171 40.9439 58.7798Z" fill="black"/>
<path d="M18.2011 19.6049C18.8771 19.6049 19.5532 19.6049 20.2465 19.6049C21.5639 19.6223 22.4653 20.5236 22.5 21.8237C22.5173 22.517 22.5173 23.2277 22.5 23.9211C22.4827 25.1864 21.5813 26.1225 20.3159 26.1398C18.8598 26.1571 17.421 26.1571 15.9649 26.1398C14.7342 26.1225 13.8155 25.2211 13.7808 24.0077C13.7635 23.2624 13.7635 22.517 13.7808 21.7717C13.8155 20.5583 14.7342 19.6569 15.9649 19.6223C16.693 19.5876 17.4384 19.6049 18.2011 19.6049ZM20.2639 23.9384C20.2639 23.193 20.2639 22.4997 20.2639 21.8237C18.8078 21.8237 17.4037 21.8237 15.9996 21.8237C15.9996 22.5517 15.9996 23.245 15.9996 23.9384C17.4384 23.9384 18.8078 23.9384 20.2639 23.9384Z" fill="black"/>
<path d="M47.5309 47.9463C52.6272 47.9463 57.6542 47.9463 62.7505 47.9463C62.7678 48.1543 62.7852 48.3796 62.7852 48.605C62.7852 52.6438 62.7852 56.6827 62.7852 60.7215C62.7852 62.2989 61.9184 63.1656 60.3583 63.1656C56.8915 63.1656 53.4246 63.1656 49.9404 63.1656C48.4149 63.1656 47.5309 62.2816 47.5309 60.7562C47.5309 56.7 47.5309 52.6438 47.5309 48.5703C47.5309 48.3623 47.5309 48.1716 47.5309 47.9463ZM51.8298 52.2278C51.8298 51.4824 51.8298 50.8064 51.8298 50.1304C51.1018 50.1304 50.4084 50.1304 49.7324 50.1304C49.7324 50.8584 49.7324 51.5171 49.7324 52.2278C50.4431 52.2278 51.1191 52.2278 51.8298 52.2278ZM56.1981 52.2278C56.1981 51.4824 56.1981 50.8064 56.1981 50.1304C55.47 50.1304 54.7767 50.1304 54.1006 50.1304C54.1006 50.8584 54.1006 51.5171 54.1006 52.2278C54.794 52.2278 55.47 52.2278 56.1981 52.2278ZM60.5664 50.1477C59.821 50.1477 59.1276 50.1477 58.4516 50.1477C58.4516 50.8757 58.4516 51.5344 58.4516 52.2278C59.1623 52.2278 59.8557 52.2278 60.5664 52.2278C60.5664 51.5171 60.5664 50.8584 60.5664 50.1477ZM49.767 54.4639C49.767 55.1746 49.767 55.868 49.767 56.5787C50.4777 56.5787 51.1538 56.5787 51.8298 56.5787C51.8298 55.8506 51.8298 55.1573 51.8298 54.4639C51.1191 54.4639 50.4777 54.4639 49.767 54.4639ZM56.2154 54.4812C55.47 54.4812 54.794 54.4812 54.118 54.4812C54.118 55.2093 54.118 55.8853 54.118 56.5787C54.846 56.5787 55.5394 56.5787 56.2154 56.5787C56.2154 55.8506 56.2154 55.1919 56.2154 54.4812ZM60.5664 56.596C60.5664 55.8506 60.5664 55.1746 60.5664 54.4986C59.8383 54.4986 59.1623 54.4986 58.4689 54.4986C58.4689 55.2266 58.4689 55.92 58.4689 56.596C59.1796 56.596 59.8557 56.596 60.5664 56.596ZM49.7324 60.9468C50.4777 60.9468 51.1538 60.9468 51.8298 60.9468C51.8298 60.2188 51.8298 59.5428 51.8298 58.8494C51.1018 58.8494 50.4084 58.8494 49.7324 58.8494C49.7324 59.5775 49.7324 60.2361 49.7324 60.9468ZM54.0833 60.9468C54.8287 60.9468 55.5047 60.9468 56.1807 60.9468C56.1807 60.2188 56.1807 59.5428 56.1807 58.8494C55.4527 58.8494 54.7593 58.8494 54.0833 58.8494C54.0833 59.5601 54.0833 60.2361 54.0833 60.9468ZM60.5664 58.8494C59.8383 58.8494 59.1449 58.8494 58.4689 58.8494C58.4689 59.5775 58.4689 60.2708 58.4689 60.9468C59.1969 60.9468 59.8557 60.9468 60.5664 60.9468C60.5664 60.2361 60.5664 59.5775 60.5664 58.8494Z" fill="black"/>
<path d="M47.5656 45.6929C47.5656 42.8155 47.5656 39.9553 47.5656 37.0605C52.6099 37.0605 57.6542 37.0605 62.7331 37.0605C62.7331 39.9207 62.7331 42.7808 62.7331 45.6929C57.6888 45.6929 52.6619 45.6929 47.5656 45.6929ZM49.7324 43.5262C53.3552 43.5262 56.9435 43.5262 60.549 43.5262C60.549 42.0701 60.549 40.666 60.549 39.262C56.9088 39.262 53.3206 39.262 49.7324 39.262C49.7324 40.7007 49.7324 42.0874 49.7324 43.5262Z" fill="black"/>
</svg>
