<svg width="80" height="49" viewBox="0 0 80 49" fill="none" xmlns="http://www.w3.org/2000/svg">
<path d="M56.978 41.1938C49.2719 41.1938 41.6557 41.1938 33.9676 41.1938C33.5724 43.6547 32.4408 45.6485 30.375 47.0676C28.7943 48.1633 27.034 48.5944 25.1119 48.5046C21.3757 48.3249 18.4837 45.6126 17.4239 41.1579C15.3402 41.1579 13.2206 41.1579 11.0111 41.1579C11.0111 35.3021 11.0111 29.5541 11.0111 23.7163C10.0591 23.7163 9.19689 23.7163 8.28079 23.7163C8.28079 22.7823 8.28079 21.9201 8.28079 20.9501C9.16097 20.9501 10.0412 20.9501 10.9573 20.9501C10.9573 19.3694 10.9573 17.9144 10.9573 16.3697C9.14303 16.3697 7.36468 16.3697 5.53247 16.3697C5.53247 15.4356 5.53247 14.5734 5.53247 13.5855C7.32875 13.5855 9.12506 13.5855 10.9932 13.5855C10.9932 9.23856 10.9932 5.03533 10.9932 0.760254C25.4173 0.760254 39.7516 0.760254 54.1937 0.760254C54.1937 3.47259 54.1937 6.149 54.1937 8.93319C54.5889 8.95115 54.8943 8.96912 55.2176 8.96912C58.4868 8.96912 61.7381 8.95116 65.0073 8.98709C65.4205 8.98709 65.9594 9.18466 66.2468 9.47206C70.6836 13.801 75.1025 18.148 79.4854 22.5128C79.7548 22.7823 79.9704 23.2852 79.9704 23.6624C80.0063 27.7579 80.0063 31.8713 79.9883 35.9667C79.9703 38.9665 77.725 41.1759 74.7252 41.122C73.8451 41.104 73.4678 41.2836 73.2343 42.2357C72.3362 46.0257 68.9951 48.5405 65.0972 48.5046C61.3609 48.4686 58.0917 45.8102 57.2115 42.1099C57.1397 41.8405 57.0678 41.5531 56.978 41.1938ZM13.7954 13.6214C15.6276 13.6214 17.4239 13.6214 19.2202 13.6214C19.2202 14.6093 19.2202 15.4536 19.2202 16.4056C17.37 16.4056 15.5916 16.4056 13.7954 16.4056C13.7954 17.9504 13.7954 19.4053 13.7954 20.9681C19.0046 20.9681 24.1599 20.9681 29.3153 20.9681C29.3153 21.938 29.3153 22.7823 29.3153 23.7522C24.106 23.7522 18.9507 23.7522 13.7954 23.7522C13.7954 28.6919 13.7954 33.5238 13.7954 38.3917C15.1066 38.3917 16.3461 38.3917 17.6035 38.3917C17.8011 37.7989 17.9807 37.2421 18.2142 36.5595C17.2802 36.5595 16.4539 36.5595 15.6276 36.5595C15.6276 35.5895 15.6276 34.7453 15.6276 33.8112C16.9928 33.8112 18.3041 33.8472 19.6153 33.7933C20.1542 33.7753 20.729 33.6137 21.1781 33.3263C23.9623 31.548 27.483 31.548 30.2493 33.3622C30.6445 33.6137 31.1834 33.7933 31.6504 33.7933C37.2728 33.8292 42.9131 33.8112 48.5355 33.8112C48.8768 33.8112 49.236 33.8112 49.5773 33.8112C49.5773 34.7992 49.5773 35.6434 49.5773 36.5954C44.1166 36.5954 38.7098 36.5954 33.285 36.5954C33.5904 38.4276 33.5904 38.4276 35.2609 38.4276C40.3803 38.4276 45.4997 38.4276 50.6191 38.4276C50.8706 38.4276 51.14 38.3917 51.3915 38.3737C51.3915 26.7161 51.3915 15.1123 51.3915 3.50852C38.8355 3.50852 26.3334 3.50852 13.7954 3.50852C13.7954 6.86751 13.7954 10.1726 13.7954 13.6214ZM57.1576 38.3917C57.7324 36.308 58.8282 34.6196 60.6244 33.4161C65.0972 30.3804 71.2045 32.3742 73.0367 37.4756C73.1445 37.7989 73.2523 38.248 73.5038 38.3737C75.0845 39.1641 77.1682 37.8169 77.1861 36.0206C77.2041 32.2485 77.2041 28.4764 77.1682 24.7043C77.1682 24.363 76.9885 23.9319 76.755 23.6984C72.893 19.8544 69.0131 16.0284 65.1151 12.2383C64.8098 11.9509 64.2888 11.7533 63.8757 11.7353C60.9657 11.6994 58.0737 11.7174 55.1637 11.7174C54.8763 11.7174 54.5889 11.7533 54.3015 11.7713C54.3015 20.6986 54.3015 29.5182 54.3015 38.3737C55.2894 38.3917 56.2235 38.3917 57.1576 38.3917ZM70.7734 40.2777C70.7734 37.2241 68.2586 34.7094 65.2409 34.7273C62.2411 34.7453 59.7622 37.2421 59.7442 40.2418C59.7263 43.2775 62.2591 45.8102 65.2948 45.7922C68.2766 45.7743 70.7734 43.2775 70.7734 40.2777ZM31.2193 40.2957C31.2193 37.2421 28.7404 34.7273 25.7047 34.7273C22.7049 34.7453 20.2261 37.2241 20.2081 40.2418C20.1902 43.2775 22.7049 45.8102 25.7406 45.7922C28.7404 45.7743 31.2013 43.2954 31.2193 40.2957Z" fill="black"/>
<path d="M6.35882 21.0039C6.35882 21.902 6.35882 22.7283 6.35882 23.6444C4.25717 23.6444 2.15554 23.6444 0 23.6444C0 22.7822 0 21.938 0 21.0039C2.10165 21.0039 4.18532 21.0039 6.35882 21.0039Z" fill="black"/>
<path d="M9.07117 31.0273C7.29286 31.0273 5.55046 31.0273 3.71826 31.0273C3.71826 30.1471 3.71826 29.2849 3.71826 28.3508C5.49657 28.3508 7.23897 28.3508 9.07117 28.3508C9.07117 29.231 9.07117 30.0932 9.07117 31.0273Z" fill="black"/>
<path d="M49.6313 5.39453C49.6313 6.29265 49.6313 7.11892 49.6313 8.01705C38.2967 8.01705 26.9981 8.01705 15.6277 8.01705C15.6277 7.17281 15.6277 6.32858 15.6277 5.39453C26.9263 5.39453 38.2428 5.39453 49.6313 5.39453Z" fill="black"/>
<path d="M57.9658 24.5606C57.9658 20.8963 57.9658 17.3038 57.9658 13.6394C58.846 13.6394 59.6723 13.6394 60.6243 13.6394C60.6243 16.3517 60.6243 19.0461 60.6243 21.8483C64.3785 21.8483 68.007 21.8483 71.7074 21.8483C71.7074 22.8003 71.7074 23.6445 71.7074 24.5606C67.1628 24.5606 62.6002 24.5606 57.9658 24.5606Z" fill="black"/>
<path d="M61.4864 29.177C60.3368 29.177 59.1872 29.177 57.9836 29.177C57.9836 28.2968 57.9836 27.4526 57.9836 26.5186C59.1153 26.5186 60.2649 26.5186 61.4864 26.5186C61.4864 27.3628 61.4864 28.2429 61.4864 29.177Z" fill="black"/>
<path d="M68.9231 40.2418C68.9231 42.2536 67.2885 43.9061 65.2946 43.9241C63.3007 43.942 61.5403 42.1817 61.5762 40.2058C61.6121 38.212 63.2827 36.5774 65.2766 36.5774C67.2705 36.5774 68.9231 38.2479 68.9231 40.2418ZM65.0431 41.3015C65.1868 41.3015 65.3305 41.3015 65.4562 41.3015C65.6897 40.9602 66.1388 40.583 66.1029 40.2777C66.067 39.9364 65.5999 39.4873 65.2407 39.3975C64.7198 39.2718 64.2886 39.7029 64.3785 40.2597C64.4683 40.619 64.8275 40.9423 65.0431 41.3015Z" fill="black"/>
<path d="M29.3871 40.2779C29.3691 42.2717 27.7165 43.9243 25.7406 43.9422C23.7468 43.9602 22.0044 42.2178 22.0224 40.2419C22.0403 38.2301 23.7648 36.5596 25.7766 36.5955C27.7704 36.6135 29.405 38.284 29.3871 40.2779ZM26.7645 40.4216C26.7645 40.2958 26.7645 40.1701 26.7466 40.0444C26.3873 39.8108 26.0101 39.3797 25.6868 39.4157C25.3634 39.4516 24.8605 39.9725 24.8784 40.2779C24.8784 40.5832 25.4173 41.0682 25.7406 41.1042C26.064 41.1221 26.4232 40.6731 26.7645 40.4216Z" fill="black"/>
</svg>
