<svg width="71" height="65" viewBox="0 0 71 65" fill="none" xmlns="http://www.w3.org/2000/svg">
<path d="M63.7155 64.3924C63.7155 51.3929 63.7155 38.5632 63.7155 25.6392C44.848 25.6392 26.1126 25.6392 7.24512 25.6392C7.24512 38.5821 7.24512 51.4684 7.24512 64.4867C4.81122 64.4867 2.52824 64.4867 0.0943375 64.4867C0.07547 63.9207 0.0188629 63.3736 0.0188629 62.8264C0.0188629 47.4874 0.037735 32.1484 0 16.8094C0 15.6396 0.339619 15.0925 1.3962 14.6397C12.3016 10.0172 23.1881 5.33816 34.0747 0.640236C35.0558 0.225158 35.886 0.206296 36.8671 0.621374C47.7914 5.33816 58.7345 10.0361 69.6777 14.6963C70.5078 15.0547 70.9795 15.4321 70.9606 16.4698C70.9229 32.0163 70.9229 47.5629 70.9229 63.1094C70.9229 63.5056 70.8663 63.9018 70.8286 64.3924C68.489 64.3924 66.2249 64.3924 63.7155 64.3924ZM68.4135 62.034C68.4513 61.6189 68.489 61.317 68.489 61.0152C68.489 46.6572 68.4701 32.2993 68.5267 17.9414C68.5267 16.9415 68.0739 16.6207 67.3004 16.2811C57.0742 11.9039 46.848 7.50789 36.6029 3.16844C35.9426 2.88543 34.9615 2.92317 34.3011 3.20618C24.1504 7.48902 14.0374 11.8662 3.8867 16.1679C2.84899 16.6019 2.43391 17.1301 2.43391 18.3188C2.49051 32.5257 2.47164 46.7139 2.47164 60.9208C2.47164 61.317 2.54713 61.7132 2.58486 62.0906C3.35843 62.0906 3.9999 62.0906 4.83007 62.0906C4.83007 49.1289 4.83007 36.2426 4.83007 23.2997C25.339 23.2997 45.6593 23.2997 66.1494 23.2997C66.1494 36.2614 66.1494 49.0911 66.1494 62.0151C66.9419 62.034 67.6022 62.034 68.4135 62.034Z" fill="black"/>
<path d="M33.3955 46.3552C35.9803 46.3552 38.2444 46.3552 40.6783 46.3552C40.6783 47.0344 40.6783 47.5816 40.6783 48.1476C40.6783 52.6569 40.6783 57.1473 40.6783 61.6565C40.6783 62.4489 40.6783 63.0527 39.584 63.0527C29.8484 63.0149 20.1128 63.0338 10.3772 63.0149C10.1885 63.0149 9.98094 62.9395 9.7168 62.8829C9.7168 57.3925 9.7168 51.9211 9.7168 46.3175C12.0375 46.3175 14.3016 46.3175 16.6978 46.3175C16.6978 41.5441 16.6978 36.9028 16.6978 32.1294C22.2825 32.1294 27.7352 32.1294 33.3955 32.1294C33.3955 36.7896 33.3955 41.4686 33.3955 46.3552ZM30.9804 46.2232C30.9804 42.2799 30.9804 38.431 30.9804 34.4878C29.4144 34.4878 27.9428 34.4878 26.3768 34.4878C26.3202 35.5255 26.2636 36.4877 26.2258 37.4688C25.3957 37.4688 24.7164 37.4688 23.9995 37.4688C23.9617 36.4311 23.9051 35.5255 23.8674 34.5444C22.2637 34.5444 20.7543 34.5444 19.2637 34.5444C19.2637 38.5065 19.2637 42.3177 19.2637 46.2232C23.1882 46.2232 27.056 46.2232 30.9804 46.2232ZM23.8674 48.8268C22.3014 48.8268 20.8297 48.8268 19.3015 48.8268C19.2449 49.8834 19.1883 50.8456 19.1317 51.8078C18.3015 51.8078 17.6411 51.8078 16.8864 51.8078C16.8298 50.789 16.7921 49.8268 16.7355 48.7891C15.1884 48.7891 13.7167 48.7891 12.1507 48.7891C12.1507 52.7512 12.1507 56.6001 12.1507 60.5433C16.094 60.5433 19.943 60.5433 23.8485 60.5433C23.8674 56.6001 23.8674 52.7323 23.8674 48.8268ZM38.1878 60.5433C38.1878 56.5812 38.1878 52.7323 38.1878 48.808C36.6218 48.808 35.169 48.808 33.603 48.808C33.5464 49.8645 33.5087 50.8268 33.4709 51.789C32.6219 51.789 31.9238 51.789 31.0748 51.789C31.0748 50.7324 31.0748 49.7702 31.0748 48.8834C29.4333 48.8834 27.9616 48.8834 26.49 48.8834C26.49 52.8455 26.49 56.6567 26.49 60.5622C30.3955 60.5434 34.2068 60.5433 38.1878 60.5433Z" fill="black"/>
<path d="M44.8103 46.3552C50.3385 46.3552 55.7157 46.3552 61.225 46.3552C61.225 51.8833 61.225 57.3736 61.225 62.9583C55.7535 62.9583 50.3385 62.9583 44.8103 62.9583C44.8103 57.4302 44.8103 51.9588 44.8103 46.3552ZM47.1499 48.808C47.1499 52.8078 47.1499 56.6756 47.1499 60.5433C51.1121 60.5433 54.9799 60.5433 58.8666 60.5433C58.8666 56.5812 58.8666 52.7323 58.8666 48.8457C57.2817 48.8457 55.8101 48.8457 54.1497 48.8457C54.1497 49.9023 54.1497 50.8456 54.1497 51.8267C53.3196 51.8267 52.6592 51.8267 51.9234 51.8267C51.8479 50.789 51.7913 49.8457 51.7158 48.8268C50.1875 48.808 48.7347 48.808 47.1499 48.808Z" fill="black"/>
<path d="M35.3954 21.5641C32.5841 21.5263 30.2823 19.1679 30.32 16.3567C30.3578 13.5455 32.6973 11.2249 35.5086 11.2249C38.301 11.2249 40.6782 13.6021 40.6782 16.3756C40.6594 19.2811 38.2821 21.6018 35.3954 21.5641ZM35.4142 13.6587C33.9048 13.6776 32.6785 14.9605 32.6973 16.451C32.7162 17.9416 33.9992 19.2057 35.4708 19.2245C36.9991 19.2245 38.3198 17.8661 38.2632 16.319C38.2066 14.8096 36.9425 13.6398 35.4142 13.6587Z" fill="black"/>
<path d="M17.6599 17.5452C17.6599 16.7905 17.6599 16.0924 17.6599 15.3188C19.1693 15.3188 20.641 15.3188 22.2259 15.3188C22.2259 16.0547 22.2259 16.7339 22.2259 17.5452C20.6788 17.5452 19.2259 17.5452 17.6599 17.5452Z" fill="black"/>
<path d="M11.3206 15.2812C12.8111 15.2812 14.2262 15.2812 15.7922 15.2812C15.7922 16.0171 15.7922 16.7529 15.7922 17.5642C14.3016 17.5642 12.8677 17.5642 11.3206 17.5642C11.3206 16.8472 11.3206 16.1491 11.3206 15.2812Z" fill="black"/>
<path d="M24.0183 17.5262C24.0183 16.6583 24.0183 16.0357 24.0183 15.3376C25.5277 15.3376 26.9994 15.3376 28.5843 15.3376C28.5843 16.0169 28.5843 16.7149 28.5843 17.5262C27.0749 17.5262 25.5843 17.5262 24.0183 17.5262Z" fill="black"/>
<path d="M46.9424 15.3C46.9424 16.1113 46.9424 16.7717 46.9424 17.5452C45.4141 17.5452 43.9424 17.5452 42.3953 17.5452C42.3953 16.7906 42.3953 16.0925 42.3953 15.3C43.9047 15.3 45.3764 15.3 46.9424 15.3Z" fill="black"/>
<path d="M53.244 15.3567C53.244 16.0736 53.244 16.7717 53.244 17.5641C51.7157 17.5641 50.3007 17.5641 48.6781 17.5641C48.6403 16.8661 48.6215 16.168 48.5837 15.3567C50.1686 15.3567 51.678 15.3567 53.244 15.3567Z" fill="black"/>
<path d="M59.6402 15.3376C59.6402 16.0735 59.6402 16.7716 59.6402 17.564C58.1308 17.564 56.7157 17.564 55.112 17.564C55.0742 16.847 55.0365 16.1678 54.9988 15.3376C56.5836 15.3376 58.093 15.3376 59.6402 15.3376Z" fill="black"/>
</svg>
