<svg width="57" height="62" viewBox="0 0 57 62" fill="none" xmlns="http://www.w3.org/2000/svg">
<g clip-path="url(#clip0)">
<path d="M3.24324 50.8185C5.99999 53.5546 8.59459 56.1298 11.2703 58.7855C11.9189 58.3026 12.6486 57.8198 13.5405 57.176C11.9189 55.7274 10.3784 54.4398 8.83783 53.0718C7.94594 52.267 7.94594 51.1404 8.83783 50.8989C9.32432 50.738 10.054 50.9794 10.4595 51.3013C12.1622 52.5889 13.7027 54.1179 15.3243 55.4055C15.8108 55.8079 16.4595 56.0493 17.027 56.0493C20.6757 56.3712 24.4054 56.5322 28.054 56.7736C28.8649 56.8541 29.5946 57.0955 29.5946 58.0612C29.5946 59.0269 28.8649 59.3488 27.973 59.2683C24.4054 59.0269 20.8378 58.7855 17.2703 58.5441C16.2973 58.4636 15.4865 58.6245 14.6757 59.3488C13.8649 60.0731 12.8919 60.6364 12 61.2802C11.2703 61.8435 10.6216 61.763 9.89188 61.1192C6.8108 58.0612 3.72972 54.9227 0.567561 51.8646C-0.162169 51.1404 -0.162169 50.4161 0.567561 49.7723C3.4054 47.358 6.08107 44.7828 8.99999 42.5295C10.2162 41.5638 11.9189 41.1615 13.4595 40.4372C13.2162 39.8739 12.8919 39.1496 12.6486 38.4253C9.89188 30.9411 13.2973 22.4108 20.5135 18.8699C20.8378 18.709 21.3243 18.4675 21.6486 18.4675C22.054 18.548 22.6216 18.7894 22.7838 19.1113C22.9459 19.4332 22.7838 20.077 22.5405 20.3989C22.2973 20.7208 21.8108 20.8818 21.4054 21.1232C14.5946 24.6641 12.0811 33.1944 15.973 39.7934C16.2973 40.2762 16.7838 40.6786 17.1081 41.1615C17.3513 41.5638 17.6757 42.1272 17.5946 42.4491C17.4324 42.8514 16.9459 43.1733 16.4595 43.3343C16.1351 43.4952 15.6486 43.3343 15.2432 43.2538C13.5405 43.0929 11.8378 43.3343 10.4595 44.4609C8.1081 46.5533 5.67567 48.7261 3.24324 50.8185Z" fill="#050505"/>
<path d="M19.5404 28.9293C19.135 29.0902 18.9728 29.1707 18.8107 29.2512C18.0809 29.6536 17.3512 29.734 16.9458 28.8488C16.5404 27.9636 17.0269 27.4003 17.7566 26.9979C19.7836 25.9517 21.9728 24.986 23.9188 23.6984C26.2701 22.0889 28.2971 22.0084 30.6485 23.6984C32.5134 24.986 34.6215 25.8712 36.5674 26.9174C37.3782 27.3198 38.189 27.8026 37.7025 28.8488C37.2161 29.9755 36.3242 29.5731 35.5134 29.1707C35.4323 29.0902 35.2701 29.1707 35.0269 29.0902C35.0269 31.9069 35.0269 34.643 35.0269 37.3792C35.0269 39.2301 34.7836 39.4715 32.9998 39.4715C29.108 39.4715 25.2971 39.4715 21.4052 39.4715C19.7025 39.4715 19.4593 39.2301 19.4593 37.4596C19.5404 34.643 19.5404 31.8264 19.5404 28.9293ZM23.9188 36.8963C23.9188 35.7697 23.9188 34.804 23.9188 33.8383C23.9998 31.6654 25.2971 30.2169 27.2431 30.2169C29.2701 30.1364 30.6485 31.585 30.7296 33.8383C30.7296 34.8844 30.7296 35.8501 30.7296 36.8963C31.4593 36.8963 31.9458 36.8963 32.5944 36.8963C32.5944 33.9187 32.5944 30.9412 32.5944 28.0441C32.5944 27.7222 32.2701 27.3198 31.9458 27.1588C30.4052 26.3541 28.9458 24.986 27.4052 24.9055C25.9458 24.8251 24.4863 26.1931 23.0269 26.9174C22.9458 26.9979 22.7836 26.9979 22.7025 27.0784C22.4593 27.4807 22.0539 27.8026 22.0539 28.205C21.9728 29.5731 22.0539 30.8607 22.0539 32.2288C22.0539 33.7578 22.0539 35.2868 22.0539 36.8158C22.7025 36.8963 23.189 36.8963 23.9188 36.8963ZM28.2161 36.8158C28.2161 35.6087 28.2971 34.5625 28.135 33.5164C28.135 33.1945 27.5674 32.8726 27.2431 32.5507C26.9188 32.8726 26.4323 33.114 26.3512 33.5164C26.2701 34.5625 26.2701 35.6892 26.2701 36.8158C27.0809 36.8158 27.5674 36.8158 28.2161 36.8158Z" fill="#050505"/>
<path d="M53.5946 11.7077C50.8378 8.97154 48.2432 6.39634 45.5676 3.74067C44.9189 4.14304 44.1892 4.70637 43.3784 5.35017C44.5946 6.39634 45.8919 7.52299 47.1081 8.56916C47.5135 8.89106 48 9.13249 48.1621 9.53486C48.4054 10.0177 48.4865 10.8225 48.2432 11.2248C47.8378 11.8686 47.1081 11.7882 46.5405 11.3053C45 10.0177 43.3784 8.64964 41.9189 7.28157C41.1892 6.55729 40.3784 6.23539 39.3243 6.23539C35.8378 6.07444 32.2703 5.75254 28.7838 5.59159C27.8919 5.51112 27.1621 5.26969 27.2432 4.30399C27.3243 3.33829 28.054 3.09687 28.9459 3.17734C32.4324 3.41877 35.9189 3.66019 39.4054 3.90162C40.4594 3.98209 41.3513 3.82114 42.1621 3.09687C42.973 2.37259 43.9459 1.80927 44.8378 1.16547C45.5676 0.682621 46.2162 0.682621 46.7838 1.32642C49.8649 4.38447 53.027 7.52299 56.1081 10.581C56.8378 11.3053 56.8378 12.1101 56.027 12.7539C53.2703 15.1681 50.5946 17.5824 47.7567 19.9161C45.4865 21.7671 42.8108 22.0085 39.973 21.6061C39.1621 21.4452 38.6757 20.9623 39 20.238C39.1621 19.7552 39.8108 19.2723 40.3784 19.1919C41.027 19.0309 41.7567 19.4333 42.4054 19.3528C43.6216 19.1114 45 18.9504 45.8919 18.3066C48.5676 16.1338 51.0811 13.8 53.5946 11.7077Z" fill="#050505"/>
<path d="M28.5404 13.5585C26.5134 13.4781 24.4863 13.3976 22.3782 13.3171C21.162 13.2366 20.2701 13.7195 19.9458 14.9266C19.7026 15.7314 19.4593 16.3752 18.4863 16.4556C18.162 16.4556 17.9188 16.858 17.6755 17.0994C14.5945 20.1575 11.5134 23.2155 8.43229 26.1931C7.78364 26.8369 6.97283 27.4002 6.16202 27.8026C5.75661 27.9636 4.86472 27.7221 4.62148 27.3198C4.45932 26.9174 4.62148 26.1126 4.9458 25.7907C9.08094 21.6865 13.5404 17.9042 17.4323 13.639C19.3782 11.4662 21.2431 10.6615 23.9999 10.9029C27.5674 11.2248 31.2161 11.2248 34.7836 11.3857C35.2701 11.3857 35.8377 11.6271 36.162 11.949C36.4053 12.1905 36.4053 12.9147 36.2431 13.1562C35.9188 13.4781 35.2701 13.8 34.7836 13.8C32.7566 13.7195 30.6485 13.639 28.5404 13.5585Z" fill="#050505"/>
<path d="M28.2971 48.9674C30.3242 49.0479 32.3512 49.1284 34.4593 49.2089C35.6755 49.2893 36.5674 48.8065 36.8917 47.5994C37.135 46.7946 37.3782 46.1508 38.3512 46.0703C38.6755 46.0703 38.9188 45.668 39.162 45.4265C42.2431 42.3685 45.3242 39.23 48.4863 36.1719C49.135 35.5281 49.8647 34.9648 50.6755 34.6429C51.0809 34.482 51.9728 34.8039 52.135 35.1258C52.2971 35.5281 52.135 36.3329 51.8106 36.7353C47.3512 41.1614 42.8106 45.5875 38.3512 50.0136C37.2971 51.0598 36.0809 51.7036 34.5404 51.7036C30.2431 51.5426 26.0269 51.3012 21.7296 51.1403C20.8377 51.1403 20.1079 50.8184 20.189 49.7722C20.2701 48.726 21.0809 48.6455 21.8917 48.6455C24.0809 48.8065 26.189 48.887 28.2971 48.9674Z" fill="#050505"/>
<path d="M43.7836 33.1139C43.7025 37.5401 42.162 41.2419 38.9998 44.3804C38.3511 45.0242 37.7025 45.668 36.8106 44.8633C35.9998 44.0585 36.5674 43.3342 37.216 42.6904C42.3241 37.5401 42.6484 29.8949 38.0268 24.4226C37.2971 23.5374 36.3241 22.8131 35.4322 22.0084C34.7836 21.4451 34.3782 20.8817 35.0268 20.1575C35.5944 19.4332 36.3241 19.5941 36.9728 20.077C41.189 22.9741 43.8647 28.1245 43.7836 33.1139Z" fill="#050505"/>
<path d="M20.9999 4.62602C20.7567 4.78697 20.4323 5.18935 19.9459 5.43077C18.8918 6.15505 17.6756 6.6379 16.8648 7.52312C12.3242 11.9492 7.78369 16.4558 3.24315 20.9624C2.83775 21.3648 2.43234 21.8477 2.10802 22.3305C1.62153 22.9743 0.972883 23.2157 0.405316 22.6524C0.0809914 22.3305 -0.0811708 21.5258 -8.97367e-05 21.1234C0.162072 20.4796 0.72964 19.9163 1.21613 19.4334C5.91883 14.8463 10.6215 10.1788 15.4053 5.59172C16.4594 4.54555 17.9188 3.82128 19.2972 3.097C20.1891 2.61415 21.081 3.33843 20.9999 4.62602Z" fill="#050505"/>
<path d="M35.8377 57.9004C35.9998 57.7395 36.4052 57.4176 36.8106 57.0957C37.9458 56.2909 39.2431 55.7276 40.216 54.7619C44.4323 50.7382 48.5674 46.5535 52.7025 42.4492C53.4323 41.725 54.0809 40.8397 54.8917 40.1155C55.2971 39.7936 56.0268 39.5521 56.4323 39.7131C57.162 39.9545 57.2431 40.6788 56.8377 41.3226C56.5133 41.8859 56.1079 42.4492 55.6214 42.9321C50.8377 47.6801 46.216 52.3477 41.5133 56.8543C40.3782 57.9004 38.9187 58.6247 37.5404 59.349C36.6485 59.8318 35.7566 59.1076 35.8377 57.9004Z" fill="#050505"/>
<path d="M5.75668 38.0231C4.94587 38.0231 4.13506 38.0231 3.24316 38.0231C3.24316 37.1379 3.24316 36.4136 3.24316 35.6089C4.05397 35.5284 4.86479 35.5284 5.6756 35.4479V35.3674C5.6756 36.2527 5.6756 37.1379 5.75668 38.0231C5.6756 38.0231 5.75668 38.0231 5.75668 38.0231Z" fill="#050505"/>
<path d="M51.162 22.1695C51.162 21.3648 51.162 20.56 51.162 19.6748C52.0539 19.6748 52.7026 19.6748 53.5134 19.6748C53.5134 20.3991 53.5134 21.1234 53.5134 21.9281C52.7026 22.0891 51.8917 22.0891 51.162 22.1695C51.0809 22.1695 51.162 22.1695 51.162 22.1695Z" fill="#050505"/>
<path d="M51.1621 22.1695C51.1621 22.1695 51.0811 22.1695 51.1621 22.1695C51.1621 22.9742 51.2432 23.779 51.2432 24.5837L51.3243 24.5033C50.5135 24.5033 49.7027 24.5033 48.8108 24.5033C48.8108 23.618 48.8108 22.9742 48.8108 22.0085C49.5405 22.089 50.3513 22.1695 51.1621 22.1695Z" fill="#050505"/>
<path d="M51.3243 24.5837C51.3243 24.5837 51.2432 24.5837 51.3243 24.5837C51.9729 24.6642 52.7026 24.6642 53.5945 24.6642C53.5945 25.3885 53.5945 26.1128 53.5945 26.998C52.7837 27.0785 51.9729 27.0785 51.1621 27.1589L51.2432 27.2394C51.1621 26.2737 51.2432 25.3885 51.3243 24.5837Z" fill="#050505"/>
<path d="M5.67557 40.2764C5.67557 41.0811 5.67557 41.8859 5.67557 42.7711C4.78368 42.7711 4.13503 42.7711 3.32422 42.7711C3.32422 42.0468 3.32422 41.3225 3.32422 40.5178C4.13503 40.4373 4.86476 40.3568 5.67557 40.2764C5.67557 40.3568 5.67557 40.2764 5.67557 40.2764Z" fill="#050505"/>
<path d="M51.1621 27.0785C51.1621 27.0785 51.0811 27.0785 51.1621 27.0785C51.0811 27.7223 51.0811 28.4466 51.0811 29.3318C50.3513 29.3318 49.6216 29.3318 48.8108 29.3318C48.8108 28.6075 48.8108 27.8833 48.8108 26.998C49.5405 26.998 50.3513 27.0785 51.1621 27.0785Z" fill="#050505"/>
<path d="M5.67554 35.3674C5.67554 35.3674 5.67554 35.4479 5.67554 35.3674C5.67554 34.7236 5.67554 33.9993 5.67554 33.1946C6.40527 33.1946 7.135 33.1946 7.94581 33.1946C7.94581 33.9189 7.94581 34.6431 7.94581 35.5284C7.21608 35.4479 6.40527 35.4479 5.67554 35.3674Z" fill="#050505"/>
<path d="M5.67554 40.2764C5.67554 40.2764 5.67554 40.3569 5.67554 40.2764C5.75662 39.5521 5.75662 38.7474 5.75662 37.9426L5.67554 38.0231C6.40527 38.0231 7.135 38.0231 7.94581 38.0231C7.94581 38.7474 7.94581 39.4716 7.94581 40.3569C7.21608 40.3569 6.40527 40.3569 5.67554 40.2764Z" fill="#050505"/>
<path d="M29.8377 43.4952C29.4323 43.8171 28.8648 44.4609 28.5405 44.2999C28.054 44.2195 27.4864 43.5757 27.4053 43.0928C27.3242 42.7709 28.135 42.0466 28.5405 42.0466C29.0269 42.0466 29.4323 42.61 29.9188 42.9319C29.8378 43.0928 29.8377 43.2538 29.8377 43.4952Z" fill="#050505"/>
<path d="M29.6756 19.5138C29.2702 19.8357 28.8648 20.3185 28.3783 20.4795C27.6486 20.6404 26.9999 20.1576 27.1621 19.3528C27.2432 18.87 27.8107 18.2262 28.2161 18.1457C28.7026 18.0652 29.1891 18.6286 29.6756 18.9505C29.6756 19.1919 29.6756 19.3528 29.6756 19.5138Z" fill="#050505"/>
<path d="M25.4595 4.30409C24.973 4.62599 24.4866 5.18932 24.0812 5.18932C23.6757 5.18932 23.0271 4.54552 23.0271 4.06267C23.0271 3.6603 23.5947 2.93602 24.0001 2.93602C24.4866 2.85555 24.973 3.41887 25.4595 3.6603C25.4595 3.90172 25.4595 4.06267 25.4595 4.30409Z" fill="#050505"/>
<path d="M34.0538 58.705C33.6484 59.0269 33.1619 59.5097 32.7565 59.5902C32.0268 59.6707 31.4592 59.1878 31.6214 58.4636C31.7024 57.9807 32.3511 57.4174 32.7565 57.3369C33.243 57.3369 33.7295 57.9002 34.1349 58.2221C34.0538 58.3831 34.0538 58.544 34.0538 58.705Z" fill="#050505"/>
<path d="M2.02699 24.4226C2.35131 24.9055 2.91888 25.3883 2.8378 25.7907C2.75672 26.1931 2.18915 26.8369 1.78375 26.9173C0.972935 27.0783 0.405367 26.515 0.567529 25.7102C0.64861 25.2274 1.1351 24.825 1.45942 24.4226C1.62158 24.4226 1.78375 24.4226 2.02699 24.4226Z" fill="#050505"/>
<path d="M56.8376 36.6548C56.0268 37.2181 55.6214 37.7815 55.216 37.7815C54.8106 37.7815 54.1619 37.2181 53.9998 36.7353C53.7565 36.011 54.4052 35.4477 55.1349 35.5282C55.5403 35.6086 56.0268 36.0915 56.8376 36.6548Z" fill="#050505"/>
</g>
<defs>
<clipPath id="clip0">
<rect width="57" height="61" fill="white" transform="translate(0 0.763184)"/>
</clipPath>
</defs>
</svg>
