<svg width="66" height="52" viewBox="0 0 66 52" fill="none" xmlns="http://www.w3.org/2000/svg">
<g clip-path="url(#clip0)">
<path d="M14.5305 32.6604C15.0557 32.0384 15.4934 31.3276 16.0186 30.7057C16.6313 29.906 17.4191 29.7283 18.1194 30.2614C18.8197 30.7945 18.9072 31.5942 18.2945 32.4827C17.1565 34.082 15.9311 35.6813 14.7056 37.2806C14.5305 37.4583 14.3555 37.7248 14.3555 37.9914C14.3555 39.6795 14.3555 41.3677 14.3555 43.0558C17.2441 43.0558 20.0451 43.0558 22.9337 43.0558C22.9337 42.7893 22.9337 42.5227 22.9337 42.345C22.9337 38.3468 22.9337 34.3485 22.9337 30.3503C22.9337 29.906 23.1088 29.3729 23.2839 29.0175C25.0345 25.8189 26.8727 22.6203 28.6234 19.5105C29.0611 18.7997 29.5863 18.4443 30.3741 18.4443C37.7268 18.4443 45.1672 18.4443 52.5199 18.4443C53.4828 18.4443 54.008 18.7997 54.4457 19.5994C56.1963 22.798 58.1221 25.9966 59.8727 29.2841C60.0478 29.5506 60.1353 29.906 60.1353 30.2614C60.1353 34.9705 60.1353 39.7684 60.1353 44.4774C60.1353 45.6325 59.6101 46.1656 58.4722 46.1656C41.4032 46.1656 24.3343 46.1656 7.35283 46.1656C6.30243 46.1656 5.6897 45.6325 5.6897 44.744C5.6897 43.8555 6.30243 43.3224 7.35283 43.3224C8.66582 43.3224 9.97882 43.3224 11.3794 43.3224C11.3794 43.0558 11.3794 42.8781 11.3794 42.7004C11.3794 39.9461 11.3794 37.1917 11.3794 34.4374C11.3794 34.082 11.2043 33.7266 10.9417 33.46C9.45362 32.305 7.87803 31.1499 6.38996 29.906C5.60216 29.2841 5.51463 28.4844 6.03983 27.7736C6.56503 27.0628 7.35283 26.974 8.14063 27.5071C9.19102 28.3067 10.2414 29.1064 11.5544 30.0837C11.4669 29.4618 11.4669 28.9287 11.3794 28.4844C11.0292 27.2405 10.5916 26.0855 10.2414 24.9304C9.97882 23.953 10.2414 23.2422 11.1168 22.8868C11.9046 22.6203 12.6924 23.0645 12.9549 23.953C13.2175 24.6638 13.3926 25.2858 13.6552 25.9966C13.6552 25.9966 13.7427 26.0855 13.8303 26.1743C15.1433 25.197 16.3687 24.2196 17.6817 23.2422C18.0319 22.9757 18.4695 22.798 18.8197 22.798C19.4324 22.798 19.8701 23.1534 20.1327 23.7753C20.3077 24.3973 20.1327 25.0193 19.6075 25.3747C18.2945 26.352 16.9815 27.4182 15.6685 28.3956C14.7056 29.0175 14.3555 29.7283 14.443 30.7945C14.5305 31.4165 14.443 32.0384 14.443 32.6604C14.443 32.5715 14.443 32.5715 14.5305 32.6604ZM57.3343 38.6133C57.3343 36.1255 57.3343 33.7266 57.3343 31.4165C50.5942 31.4165 43.9417 31.4165 37.3767 31.4165C37.3767 35.3259 37.3767 39.1464 37.3767 42.967C44.0292 42.967 50.7693 42.967 57.3343 42.967C57.3343 42.4339 57.3343 41.9896 57.3343 41.5454C56.9841 41.5454 56.7215 41.5454 56.4589 41.5454C51.9947 41.5454 47.6181 41.5454 43.1539 41.5454C42.191 41.5454 41.4908 40.9234 41.5783 40.1238C41.5783 39.2353 42.191 38.7022 43.2414 38.7022C45.8674 38.7022 48.4934 38.7022 51.0319 38.7022C53.1327 38.6133 55.2335 38.6133 57.3343 38.6133ZM32.6499 21.1987C32.825 21.5541 32.9125 21.7318 33 21.9095C34.138 23.8642 35.2759 25.8189 36.3263 27.8625C36.5889 28.3067 36.8515 28.4844 37.3767 28.4844C43.4165 28.4844 49.4563 28.4844 55.4961 28.4844C55.7587 28.4844 55.9337 28.4844 56.2839 28.4844C56.1088 28.2179 56.0213 28.0402 55.9337 27.8625C54.7958 25.8189 53.6579 23.8642 52.5199 21.8206C52.3449 21.2875 52.0823 21.1987 51.6446 21.1987C48.4059 21.1987 45.2547 21.1987 42.016 21.1987C38.9523 21.1987 35.8886 21.1987 32.6499 21.1987ZM25.8223 42.967C26.7852 42.967 27.7481 42.967 28.6234 42.967C28.6234 41.1011 28.6234 39.2353 28.6234 37.3694C28.6234 36.3921 29.2361 35.7701 30.1115 35.7701C30.9868 35.7701 31.512 36.3921 31.512 37.4583C31.512 38.1691 31.512 38.9687 31.512 39.6795C31.512 40.7457 31.512 41.9008 31.512 42.967C32.5624 42.967 33.4377 42.967 34.313 42.967C34.313 39.0576 34.313 35.237 34.313 31.4165C31.4244 31.4165 28.6234 31.4165 25.7348 31.4165C25.8223 35.3259 25.8223 39.1464 25.8223 42.967ZM26.8727 28.3956C29.0611 28.3956 31.1618 28.3956 33.3502 28.3956C32.2998 26.4409 31.2494 24.575 30.1115 22.6203C29.0611 24.6638 28.0107 26.5297 26.8727 28.3956Z" fill="#050505"/>
<path d="M25.2095 3.69526C18.6446 3.69526 12.1671 3.69526 5.60211 3.69526C5.33951 3.69526 5.07691 3.69526 4.90185 3.69526C4.20158 3.51756 3.76392 2.98446 3.76392 2.27365C3.76392 1.56285 4.28911 0.940901 4.98938 0.852051C5.16445 0.852051 5.42705 0.852051 5.60211 0.852051C18.7321 0.852051 31.8621 0.852051 45.0796 0.852051C45.2546 0.852051 45.4297 0.852051 45.6923 0.852051C46.3926 0.940901 46.9178 1.56285 46.9178 2.27365C46.9178 2.98446 46.4801 3.60641 45.6923 3.78411C45.4297 3.78411 45.1671 3.78411 44.9045 3.78411C38.252 3.69526 31.7745 3.69526 25.2095 3.69526Z" fill="#050505"/>
<path d="M40.703 51.7631C34.138 51.7631 27.573 51.7631 21.008 51.7631C20.8329 51.7631 20.5703 51.7631 20.3953 51.7631C19.695 51.6743 19.1698 51.0523 19.1698 50.3415C19.1698 49.6307 19.6075 49.0088 20.3953 48.9199C20.6579 48.9199 20.8329 48.9199 21.0955 48.9199C34.138 48.9199 47.2679 48.9199 60.3104 48.9199C60.573 48.9199 60.8356 48.9199 61.0106 48.9199C61.7109 49.0088 62.2361 49.6307 62.2361 50.3415C62.2361 51.0523 61.7109 51.6743 61.0106 51.852C60.748 51.852 60.4855 51.852 60.2229 51.852C53.7454 51.7631 47.1804 51.7631 40.703 51.7631Z" fill="#050505"/>
<path d="M66 22.2649C66 27.596 66 33.0158 66 38.3468C66 38.5245 66 38.7911 66 38.9688C65.9125 39.6796 65.2997 40.2127 64.5995 40.2127C63.8992 40.2127 63.2865 39.6796 63.1989 38.9688C63.1989 38.7022 63.1989 38.4357 63.1989 38.1691C63.1989 27.5959 63.1989 17.1116 63.1989 6.53846C63.1989 4.4949 62.4111 3.6064 60.3103 3.6064C59.7851 3.6064 59.2599 3.6064 58.7347 3.6064C57.947 3.51755 57.4218 2.8956 57.4218 2.1848C57.4218 1.474 57.947 0.763196 58.6472 0.763196C59.6101 0.674345 60.6605 0.674345 61.6233 0.852046C64.2493 1.20745 66.0875 3.4287 66.0875 6.09421C66 11.5141 66 16.8451 66 22.2649Z" fill="#050505"/>
<path d="M0 30.2615C0 24.8417 0 19.4218 0 14.002C0 13.0246 0.437666 12.4915 1.13793 12.3138C2.1008 12.1361 2.88859 12.7581 2.88859 13.8243C2.88859 15.9567 2.88859 18.1779 2.88859 20.3103C2.88859 28.8399 2.88859 37.4584 2.88859 45.988C2.88859 48.0316 3.76393 48.8312 5.77719 48.8312C6.30239 48.8312 6.82759 48.8312 7.35278 48.8312C8.14058 48.9201 8.66578 49.542 8.66578 50.2528C8.66578 50.9636 8.14058 51.6744 7.44032 51.6744C6.38992 51.6744 5.33952 51.7633 4.37666 51.5856C1.75066 51.2302 0 49.0978 0 46.4323C0 41.0124 0 35.6814 0 30.2615Z" fill="#050505"/>
<path d="M14.443 13.9129C13.9178 13.824 13.3926 13.824 12.8674 13.7352C11.1167 13.2909 9.89125 11.6916 10.0663 9.82579C10.2414 8.04878 11.7294 6.53833 13.5676 6.53833C15.4934 6.53833 17.4191 6.53833 19.3448 6.53833C21.183 6.62718 22.321 7.60453 22.8462 9.38154C23.3714 9.47039 23.8966 9.47039 24.4218 9.55924C26.1724 10.0035 27.3979 11.6028 27.2228 13.4686C27.0477 15.2456 25.5597 16.7561 23.7215 16.7561C21.7958 16.7561 19.87 16.7561 17.9443 16.7561C16.1061 16.7561 14.9682 15.6899 14.443 13.9129ZM20.7454 13.9129C21.183 13.9129 21.6207 13.9129 22.1459 13.9129C22.5836 13.9129 23.1088 13.9129 23.5464 13.9129C23.9841 13.9129 24.3342 13.6463 24.3342 13.2021C24.3342 12.669 23.9841 12.4913 23.5464 12.4913C22.8462 12.4913 22.2334 12.4913 21.5332 12.4913C20.3952 12.4913 19.87 11.7805 20.0451 10.6254C20.1326 9.91464 19.87 9.55924 19.2573 9.55924C17.4191 9.55924 15.6684 9.55924 13.8302 9.55924C13.305 9.55924 12.9549 9.82579 12.9549 10.3589C12.9549 10.892 13.305 11.0697 13.8302 11.0697C14.5305 11.0697 15.2308 11.0697 15.931 11.0697C16.9814 11.0697 17.5066 11.8693 17.3316 12.8467C17.244 13.6463 17.4191 13.9129 18.2069 13.9129C19.0822 13.9129 19.87 13.9129 20.7454 13.9129Z" fill="#050505"/>
<path d="M46.5676 12.4025C45.4297 12.4025 44.2918 12.4025 43.2414 12.4025C42.2785 12.4025 41.6658 11.7806 41.6658 10.8921C41.6658 10.0924 42.2785 9.47046 43.2414 9.47046C45.5172 9.47046 47.7931 9.47046 50.1565 9.47046C51.1194 9.47046 51.7321 10.0924 51.7321 10.9809C51.7321 11.7806 51.1194 12.4025 50.1565 12.4025C48.931 12.4025 47.7056 12.4025 46.5676 12.4025Z" fill="#050505"/>
<path d="M55.3209 12.4026C56.0212 12.4026 56.7214 12.4026 57.4217 12.4026C58.297 12.4026 58.9098 13.0245 58.9098 13.913C58.9098 14.7127 58.297 15.3346 57.5092 15.3346C56.1087 15.3346 54.6207 15.3346 53.2201 15.3346C52.3448 15.3346 51.7321 14.7127 51.7321 13.8242C51.7321 13.0245 52.3448 12.4026 53.2201 12.4026C53.9204 12.4026 54.6207 12.4026 55.3209 12.4026Z" fill="#050505"/>
<path d="M66 45.6325C66 46.4322 65.3873 47.0541 64.5995 47.143C63.8117 47.143 63.1115 46.521 63.1115 45.7214C63.1115 44.9217 63.7242 44.2109 64.512 44.2109C65.3873 44.2109 66 44.8329 66 45.6325Z" fill="#050505"/>
<path d="M52.0822 3.69524C51.2944 3.69524 50.6816 3.07329 50.6816 2.27364C50.6816 1.47399 51.2944 0.763184 52.0822 0.763184C52.87 0.763184 53.4827 1.47399 53.4827 2.27364C53.4827 3.07329 52.87 3.69524 52.0822 3.69524Z" fill="#050505"/>
<path d="M2.88859 6.89398C2.88859 7.69363 2.27586 8.31558 1.48806 8.31558C0.700265 8.40443 0 7.69363 0 6.89398C0 6.09433 0.700265 5.38352 1.48806 5.47237C2.27586 5.47237 2.88859 6.09433 2.88859 6.89398Z" fill="#050505"/>
<path d="M13.9178 48.8311C14.7055 48.8311 15.3183 49.5419 15.3183 50.2527C15.3183 51.0523 14.618 51.7631 13.8302 51.7631C13.0424 51.7631 12.4297 51.0523 12.4297 50.2527C12.5172 49.453 13.13 48.8311 13.9178 48.8311Z" fill="#050505"/>
</g>
<defs>
<clipPath id="clip0">
<rect width="66" height="51" fill="white" transform="translate(0 0.763184)"/>
</clipPath>
</defs>
</svg>
