<svg width="67" height="63" viewBox="0 0 67 63" fill="none" xmlns="http://www.w3.org/2000/svg">
<path d="M46.2009 52.8404C46.0622 53.0488 45.9513 53.2311 45.8404 53.4134C44.7588 54.8461 43.3167 55.4451 41.4587 55.2628C41.1814 55.2368 40.7931 55.367 40.5713 55.5493C38.8241 57.1643 37.0493 58.7532 35.4131 60.4723C32.9449 63.051 29.0902 62.2175 27.8977 59.6909C27.87 59.6648 27.8422 59.6388 27.7313 59.5606C26.6497 60.5765 25.3463 61.1235 23.7933 60.8891C22.2403 60.6546 21.1033 59.8732 20.41 58.4927C19.2175 59.222 17.9696 59.5346 16.583 59.1699C15.2518 58.8313 14.3089 58.0238 13.6711 56.8517C12.5064 57.7894 11.2029 58.2322 9.70541 57.9457C8.04148 57.6331 6.87673 56.6954 6.37755 55.1847C5.87837 53.6479 6.18343 52.2153 7.40364 51.0692C9.15076 49.4021 10.9256 47.7872 12.6727 46.1723C12.8114 46.042 12.9501 45.8857 13.1165 45.7294C13.0055 45.6253 12.9223 45.5211 12.8391 45.4429C11.4248 44.401 10.5651 43.0726 10.26 41.4056C10.2323 41.2493 10.1491 41.067 10.0382 40.9628C7.4591 38.5664 4.88002 36.1961 2.30093 33.8258C1.4967 33.0704 1.4967 32.4192 2.30093 31.6378C7.87509 26.3241 13.477 21.0365 19.0789 15.7488C19.8831 14.9935 20.6041 14.9935 21.3806 15.7228C23.7379 17.9368 26.1228 20.1509 28.4801 22.3909C28.7296 22.6254 28.9238 22.9379 29.1734 23.2505C29.6171 22.9379 30.0885 22.6254 30.56 22.2868C32.7785 20.6718 35.219 20.4113 37.7981 21.4011C38.2972 21.5835 38.5468 21.5053 38.9073 21.1667C41.2091 18.9787 43.5386 16.7907 45.8404 14.6288C46.7555 13.7692 47.4211 13.7692 48.364 14.6288C53.8827 19.8122 59.4291 24.9957 64.9478 30.2052C65.8907 31.0908 65.8907 31.6899 64.9201 32.6015C62.6738 34.7114 60.4275 36.7952 58.2089 38.905C57.5988 39.4781 57.0164 39.9209 55.9903 39.4781C56.0181 41.4056 54.576 42.3433 53.4112 43.4633C52.6347 44.1926 51.886 44.948 51.1372 45.6774C51.5255 46.0681 51.9414 46.4588 52.3574 46.8495C54.0768 48.4644 54.1877 50.9129 52.6625 52.5539C51.0817 54.247 48.5027 54.4293 46.5337 52.9967C46.395 52.9967 46.3118 52.9185 46.2009 52.8404ZM20.9924 31.8722C18.441 34.2165 16.0283 36.5087 13.5047 38.6966C12.7837 39.3478 12.5064 39.9469 12.9501 40.8065C13.2551 41.4056 13.366 42.187 13.8375 42.6298C18.0528 46.6932 22.3513 50.7045 26.622 54.7419C27.3985 55.4712 28.2859 55.6014 29.007 55.0544C29.728 54.5074 29.8112 53.6739 29.2011 52.8144C28.6742 52.059 28.7296 51.3817 29.312 50.9129C29.9221 50.418 30.6986 50.4961 31.3919 51.1473C32.3348 52.0329 33.2777 52.9185 34.2206 53.8042C34.9139 54.4293 35.8568 54.5074 36.4946 53.9865C37.1602 53.4395 37.188 52.632 36.5778 51.8506C36.0232 51.1473 36.0509 50.444 36.661 49.9491C37.2434 49.4803 38.0476 49.5324 38.6855 50.1315C39.462 50.8347 40.2108 51.5641 40.9873 52.2674C41.6806 52.8664 42.568 52.8925 43.2336 52.3455C43.8991 51.7985 43.9546 50.991 43.3722 50.2617C43.2058 50.0273 43.0117 49.7928 42.9562 49.5324C42.8176 48.9593 43.0394 48.4644 43.6218 48.1519C44.2042 47.8393 44.7866 47.9435 45.258 48.3602C46.2286 49.2198 47.1715 50.1054 48.1421 50.965C49.085 51.7985 50.5271 51.4859 50.8876 50.3919C51.1095 49.6887 50.8322 49.1156 50.2775 48.5947C48.0312 46.563 45.8126 44.5052 43.5941 42.4475C39.767 38.879 35.9677 35.3105 32.1684 31.7159C31.7802 31.3513 31.4751 31.2731 30.976 31.4294C30.1717 31.6638 29.3398 31.8722 28.5355 32.0285C25.9564 32.5494 23.3773 32.9662 20.9924 31.8722ZM49.0573 44.1145C50.4162 42.76 51.6364 41.5619 52.8566 40.3376C52.9675 40.2074 53.0507 40.0511 53.1062 39.8948C53.3003 39.2176 53.5222 38.5404 53.6608 37.8371C53.7163 37.6287 53.6331 37.3161 53.4667 37.1859C48.9464 32.9141 44.426 28.6944 39.9057 24.4487C39.767 24.3185 39.4897 24.1361 39.4065 24.1882C38.4914 24.7092 37.7149 24.1622 36.9384 23.8756C35.3299 23.2505 33.7769 23.2245 32.3348 24.2664C31.8634 24.605 31.3919 24.9436 30.8928 25.2562C30.0053 25.8553 29.0624 26.3502 27.9809 26.4543C27.0935 26.5585 26.206 26.5846 25.3186 26.7669C24.1816 27.0013 23.0723 27.3139 21.9907 27.7046C21.6302 27.8349 21.1588 28.3037 21.1865 28.5381C21.242 28.8768 21.6857 29.2935 22.0462 29.3977C22.8504 29.6582 23.7101 29.8405 24.5698 29.8405C26.8161 29.8926 28.9238 29.1893 31.0591 28.6163C32.0575 28.3558 32.7231 28.5121 33.4441 29.1893C38.4082 33.9039 43.4277 38.5664 48.3917 43.2549C48.6413 43.4894 48.7523 43.7238 49.0573 44.1145ZM56.7114 36.4305C58.5417 34.7374 60.3443 33.0443 62.0637 31.4294C57.0719 26.7409 52.0246 22.0002 47.0883 17.3377C45.3412 18.9787 43.5386 20.6718 41.736 22.3649C46.7001 27.0534 51.7473 31.7941 56.7114 36.4305ZM25.6791 23.6933C23.7656 21.87 21.963 20.1509 20.2991 18.588C15.2518 23.2505 10.1491 27.9651 5.07414 32.6276C6.93219 34.3728 8.73478 36.0658 10.5374 37.7589C10.5374 37.7589 10.5928 37.7329 10.6206 37.7068C13.2274 35.2323 15.8619 32.7578 18.441 30.2573C18.552 30.127 18.6074 29.8405 18.5242 29.6582C18.025 28.486 18.2469 27.4441 19.1066 26.5325C19.6058 26.0115 20.2436 25.4906 20.9369 25.2041C22.0462 24.7613 23.2387 24.5268 24.3757 24.1622C24.8749 24.058 25.3186 23.8236 25.6791 23.6933ZM21.547 53.7C19.3839 51.6683 17.2208 49.6366 14.8359 47.4225C13.0887 49.1417 11.3139 50.9129 9.53901 52.632C8.76251 53.3874 8.67932 54.3511 9.34489 54.9763C10.0382 55.6275 11.0088 55.5754 11.8408 54.82C12.7282 54.0386 13.5879 53.2311 14.4753 52.4497C15.1686 51.8506 15.8897 51.7985 16.4998 52.3455C17.0544 52.8404 17.0822 53.5176 16.5275 54.1949C15.9174 54.9763 15.9451 55.7838 16.6107 56.3308C17.2763 56.8778 18.2192 56.8517 18.9125 56.2266C19.8276 55.393 20.6873 54.5335 21.547 53.7ZM32.0575 55.7317C31.6415 56.1745 31.2255 56.7215 30.6709 57.1643C30.2549 57.4768 30.1995 57.8155 30.2826 58.2322C30.5045 59.3002 31.8356 59.8472 32.7508 59.1699C33.5828 58.5448 34.2483 57.7113 34.9139 57.0861C33.971 56.6433 33.0281 56.2005 32.0575 55.7317ZM23.4883 55.5754C22.6563 56.487 22.6286 57.4508 23.4051 58.0238C24.2093 58.5969 25.1799 58.4146 25.8178 57.6071C25.0413 56.9298 24.2648 56.2526 23.4883 55.5754Z" fill="#050505"/>
<path d="M40.9316 8.97659C40.9316 10.5134 40.9316 11.9981 40.9316 13.4828C40.9316 14.5247 40.9316 15.5926 40.9316 16.6345C40.9039 17.6503 40.4047 18.1192 39.2954 18.1192C38.0197 18.1192 36.744 18.1192 35.4406 18.1192C34.3036 18.1192 33.8322 17.6503 33.8322 16.5824C33.8322 15.8791 33.8322 15.1498 33.8322 14.4465C33.8322 13.7693 33.3884 13.3265 32.8338 13.3525C32.3069 13.3786 31.9464 13.7953 31.9186 14.4465C31.9186 15.2019 31.9186 15.9573 31.9186 16.7126C31.8909 17.5982 31.364 18.1192 30.4211 18.1192C29.0345 18.1452 27.6202 18.1192 26.2336 18.1192C25.1797 18.1192 24.6806 17.5982 24.6806 16.5564C24.6806 14.2121 24.6806 11.8678 24.6806 9.52359C24.6806 9.3673 24.6528 9.18497 24.6528 8.97659C24.5419 8.95055 24.4587 8.95054 24.3755 8.95054C23.7099 8.9245 23.2662 8.58588 23.0721 7.98679C22.878 7.4398 23.1276 6.97095 23.599 6.60629C24.8747 5.61649 26.1781 4.65274 27.4538 3.68899C28.8404 2.6471 30.1993 1.63125 31.5859 0.589362C32.6397 -0.192057 33.0279 -0.192057 34.054 0.563314C36.6608 2.51686 39.2399 4.47041 41.819 6.39791C42.3737 6.81467 42.7896 7.25747 42.5678 7.98679C42.3459 8.71612 41.7635 8.95055 40.9316 8.97659ZM38.1306 15.5145C38.1306 13.3265 38.1306 11.1646 38.1306 9.00264C34.5532 9.00264 31.0312 9.00264 27.4815 9.00264C27.4815 11.1906 27.4815 13.3525 27.4815 15.4884C28.0639 15.4884 28.6185 15.4884 29.2009 15.4884C29.2009 15.0977 29.2009 14.7591 29.2009 14.4205C29.2009 12.3627 30.8094 10.7739 32.8893 10.7739C34.9692 10.7739 36.5776 12.3367 36.6054 14.3944C36.6054 14.7591 36.6054 15.1498 36.6054 15.5145C37.16 15.5145 37.6037 15.5145 38.1306 15.5145ZM28.3689 6.31977C31.364 6.31977 34.2204 6.31977 37.2432 6.31977C35.6902 5.14764 34.2481 4.0797 32.8061 2.98571C31.3363 4.0797 29.9219 5.14764 28.3689 6.31977Z" fill="#050505"/>
<path d="M55.9902 7.12712C55.9902 4.65258 58.1811 2.62085 60.8156 2.62085C63.4502 2.62085 65.6133 4.65258 65.6133 7.15317C65.6133 9.62772 63.4224 11.6594 60.7879 11.6594C58.1533 11.6594 55.9902 9.60167 55.9902 7.12712ZM60.7879 5.19959C59.6786 5.19959 58.7357 6.08521 58.7357 7.15317C58.7357 8.19509 59.6786 9.08071 60.8156 9.08071C61.9526 9.08071 62.8678 8.19509 62.8678 7.12712C62.8678 6.05916 61.9249 5.19959 60.7879 5.19959Z" fill="#050505"/>
<path d="M10.6201 15.5145C10.6201 17.6504 8.76208 19.3956 6.46031 19.3956C4.21401 19.3956 2.35596 17.6504 2.35596 15.5405C2.35596 13.4046 4.21401 11.6594 6.51577 11.6594C8.76208 11.6594 10.6201 13.4046 10.6201 15.5145ZM7.87465 15.5666C7.90238 14.8893 7.29227 14.2902 6.57124 14.2642C5.82247 14.2381 5.1569 14.8112 5.12917 15.5145C5.10144 16.2178 5.73928 16.8169 6.51577 16.8169C7.23681 16.8169 7.84692 16.2438 7.87465 15.5666Z" fill="#050505"/>
<path d="M60.7597 55.5758C59.2621 55.5758 57.7369 55.5758 56.2393 55.5758C55.241 55.5758 54.6309 55.0548 54.6309 54.2734C54.6309 53.492 55.2687 52.9971 56.2671 52.9971C59.3176 52.9971 62.3404 52.9971 65.3909 52.9971C66.3893 52.9971 66.9994 53.518 66.9994 54.2995C66.9994 55.0809 66.3616 55.5758 65.3632 55.5758C63.8379 55.5758 62.3127 55.5758 60.7597 55.5758Z" fill="#050505"/>
<path d="M60.7878 59.4307C59.2625 59.4307 57.7095 59.4307 56.1842 59.4307C55.2414 59.4307 54.6312 58.9358 54.6035 58.1544C54.6035 57.373 55.2136 56.8521 56.212 56.8521C59.2902 56.8521 62.3408 56.8521 65.419 56.8521C66.3619 56.8521 66.972 57.373 66.9998 58.1283C66.9998 58.9098 66.3897 59.4307 65.3913 59.4307C63.866 59.4567 62.3408 59.4307 60.7878 59.4307Z" fill="#050505"/>
<path d="M4.29766 42.6563C3.65982 42.6563 3.02198 42.6823 2.38414 42.6563C1.57991 42.6302 1.02526 42.0832 0.997532 41.4059C0.9698 40.6766 1.55217 40.1035 2.38414 40.1035C3.68755 40.0775 4.99096 40.0775 6.29437 40.1035C7.07087 40.1296 7.65324 40.6766 7.68098 41.3538C7.70871 42.0571 7.0986 42.6302 6.29437 42.6563C5.6288 42.6823 4.96323 42.6563 4.29766 42.6563Z" fill="#050505"/>
<path d="M4.32517 43.9324C4.93527 43.9324 5.57311 43.9324 6.18322 43.9324C7.07065 43.9584 7.68075 44.4794 7.68075 45.2087C7.68075 45.9381 7.09838 46.5111 6.21095 46.5111C4.96301 46.5372 3.68733 46.5372 2.43938 46.5111C1.60742 46.5111 1.02505 45.9641 0.997314 45.2348C0.997314 44.5054 1.57969 43.9584 2.46712 43.9324C3.07722 43.9324 3.68733 43.9324 4.32517 43.9324Z" fill="#050505"/>
<path d="M56.6838 29.7361C57.599 29.7361 58.32 30.4394 58.32 31.2989C58.32 32.1585 57.599 32.8618 56.6838 32.8618C55.741 32.8618 54.9922 32.1845 54.9922 31.2729C55.0477 30.4133 55.7687 29.7361 56.6838 29.7361ZM57.7654 31.325C57.7931 30.804 57.294 30.3352 56.7393 30.3091C56.1569 30.2831 55.63 30.7519 55.6023 31.2989C55.6023 31.8199 56.0737 32.2887 56.6284 32.3148C57.183 32.3408 57.7377 31.8459 57.7654 31.325Z" fill="#050505"/>
<path d="M12.3951 32.8099C12.4228 33.6955 11.6463 34.3988 10.7034 34.4248C9.76052 34.4509 8.98402 33.7476 8.95629 32.888C8.92855 31.9763 9.70506 31.2209 10.6757 31.2209C11.6186 31.2209 12.3951 31.9242 12.3951 32.8099ZM10.6757 31.8721C10.0933 31.8721 9.62186 32.341 9.64959 32.8619C9.67732 33.3829 10.121 33.7736 10.6757 33.7736C11.2303 33.7736 11.674 33.3569 11.7018 32.8619C11.7295 32.3149 11.2581 31.8721 10.6757 31.8721Z" fill="#050505"/>
</svg>
