<svg width="59" height="61" viewBox="0 0 59 61" fill="none" xmlns="http://www.w3.org/2000/svg">
<path d="M0.686035 30.6222C0.686035 21.1732 0.686035 11.7241 0.686035 2.25825C0.686035 0.759208 1.1408 0.304441 2.623 0.304441C15.8281 0.304441 29.0163 0.304441 42.2214 0.287598C42.9625 0.287598 43.5352 0.506559 44.0573 1.0287C47.2744 4.27944 50.5083 7.51334 53.759 10.7304C54.2643 11.2188 54.4664 11.7578 54.4664 12.4484C54.4496 16.6929 54.4664 20.9542 54.4496 25.1987C54.4496 25.6535 54.5843 25.8556 55.0054 26.0409C56.9424 27.0009 58.0709 28.5505 58.0709 30.7401C58.1045 39.0775 58.0877 47.4149 58.0709 55.7691C58.0709 58.7335 55.696 60.9568 52.6473 60.9568C42.2214 60.9568 31.7954 60.9568 21.3695 60.9568C15.1207 60.9568 8.85499 60.9568 2.60616 60.9568C1.17449 60.9568 0.702878 60.4852 0.702878 59.0704C0.686035 49.6214 0.686035 40.1218 0.686035 30.6222ZM29.6564 28.4831C29.589 28.4831 29.37 28.4831 29.1511 28.4831C26.5404 28.4831 23.9297 28.4831 21.319 28.4831C20.46 28.4831 19.8368 27.8431 19.8368 27.0515C19.8368 26.2767 20.4263 25.6535 21.2516 25.5861C21.4369 25.5693 21.6221 25.5861 21.7906 25.5861C31.4249 25.5861 41.0592 25.5861 50.7104 25.5861C50.963 25.5861 51.2325 25.5861 51.502 25.5861C51.502 21.9985 51.502 18.4951 51.502 14.9243C51.2325 14.9243 51.0135 14.9243 50.7946 14.9243C47.9144 14.9243 45.0511 14.9243 42.1709 14.9243C40.9582 14.9243 40.436 14.3854 40.436 13.1727C40.436 10.0903 40.436 7.02488 40.436 3.94257C40.436 3.72361 40.436 3.50465 40.436 3.26885C28.1236 3.26885 15.8955 3.26885 3.6336 3.26885C3.6336 21.5437 3.6336 39.7849 3.6336 58.043C12.3752 58.043 21.0832 58.043 29.8753 58.043C29.2184 56.7629 29.3363 55.4323 29.3363 54.1185C29.3363 52.8216 29.3363 51.5078 29.3363 50.1603C28.9995 50.1603 28.7805 50.1603 28.5616 50.1603C26.2877 50.1603 24.0307 50.1603 21.7569 50.1603C20.5273 50.1603 19.8536 49.6551 19.8368 48.7118C19.8199 47.7686 20.5105 47.2465 21.7906 47.2465C24.1149 47.2465 26.4393 47.2465 28.7805 47.2296C28.9658 47.2296 29.3195 47.0612 29.3195 46.977C29.3532 45.6464 29.3363 44.3158 29.3363 42.9346C29.05 42.9346 28.831 42.9346 28.6121 42.9346C26.2372 42.9346 23.8791 42.9346 21.5042 42.9346C20.5105 42.9346 19.8368 42.3451 19.8368 41.4861C19.8368 40.6271 20.5105 40.0207 21.5042 40.0207C23.2223 40.0207 24.9403 40.0207 26.6751 40.0207C27.551 40.0207 28.41 40.0207 29.3027 40.0207C29.3027 38.5722 29.3027 37.1742 29.3027 35.7257C29.0332 35.7257 28.8142 35.7257 28.5952 35.7257C26.254 35.7257 23.896 35.7257 21.5548 35.7257C20.5273 35.7257 19.8368 35.1025 19.8705 34.2267C19.8873 33.3677 20.5442 32.8118 21.5716 32.8118C23.9465 32.8118 26.3046 32.8118 28.6795 32.8118C28.8984 32.8118 29.1005 32.795 29.2521 32.795C29.3532 31.3128 29.5048 29.9148 29.6564 28.4831ZM55.157 43.3388C55.157 39.2628 55.157 35.2036 55.157 31.1275C55.157 29.4264 54.2306 28.4831 52.5463 28.4831C46.6512 28.4831 40.756 28.4831 34.8778 28.4831C33.1766 28.4831 32.2671 29.4095 32.2671 31.1275C32.2671 39.2291 32.2671 47.3307 32.2671 55.4154C32.2671 57.1166 33.1934 58.0598 34.8778 58.0598C40.7729 58.0598 46.668 58.0598 52.5463 58.0598C54.2306 58.0598 55.157 57.1166 55.157 55.4154C55.157 51.3899 55.157 47.3644 55.157 43.3388ZM43.3836 4.66683C43.3836 7.07541 43.3836 9.50083 43.3836 11.9431C45.8427 11.9431 48.2681 11.9431 50.6598 11.9431C48.2344 9.50083 45.809 7.09226 43.3836 4.66683Z" fill="white"/>
</svg>
