<svg width="77" height="77" viewBox="0 0 77 77" fill="none" xmlns="http://www.w3.org/2000/svg">
<path d="M44.2417 75.8081C44.08 75.9995 43.9991 76.0952 43.9183 76.1909C43.2391 76.9726 42.3174 77.1162 41.5736 76.5419C40.8621 75.9995 40.7489 75.1061 41.3472 74.2606C43.4978 71.2615 45.6646 68.2942 47.8153 65.311C47.977 65.0717 48.1387 64.8324 48.3489 64.5453C47.314 63.8593 46.3438 63.2052 45.3574 62.5671C44.6944 62.1364 44.1285 61.6578 44.2093 60.7963C44.2902 59.9349 44.9208 59.5679 45.6646 59.2808C47.5889 58.5469 49.5132 57.7653 51.5506 56.9517C50.0629 54.3673 48.6076 51.8307 47.0714 49.1666C45.9072 50.3312 44.8076 51.416 43.708 52.5167C42.7378 53.4739 41.7838 54.447 40.7812 55.3883C40.377 55.7711 40.2314 56.17 40.2314 56.7124C40.2476 62.7745 40.2476 68.8366 40.2314 74.8988C40.2314 76.2229 39.5846 76.9407 38.5012 76.9248C37.5149 76.9088 36.8842 76.2229 36.9004 75.2178C36.9489 69.1397 36.9651 63.0457 37.0297 56.9676C37.0297 56.2497 36.8357 55.7233 36.3021 55.2287C34.1838 53.2665 32.114 51.2564 29.9634 49.1985C28.5242 51.6872 27.0366 54.2716 25.5004 56.9357C25.8561 57.0952 26.1634 57.2388 26.4706 57.3664C28.1361 58.0365 29.8178 58.6905 31.4995 59.3446C32.1949 59.6158 32.7446 60.0146 32.8417 60.7963C32.9387 61.578 32.4859 62.0885 31.8553 62.4873C30.8204 63.1574 29.8017 63.8433 28.7021 64.5612C28.8961 64.8324 29.0417 65.0717 29.2034 65.311C31.2893 68.1826 33.3591 71.07 35.4451 73.9416C35.6229 74.1809 35.8008 74.4202 35.9302 74.6754C36.2697 75.3773 36.0595 76.1431 35.4289 76.5898C34.8144 77.0364 33.9897 77.0045 33.4076 76.526C33.2136 76.3505 33.0519 76.1431 32.7932 75.8719C32.3566 76.8291 31.5642 76.9248 30.6425 76.9248C23.1557 76.9088 15.6527 76.9248 8.16591 76.9407C6.25783 76.9407 4.33357 76.9248 2.42549 76.9088C1.22889 76.8929 0.50123 76.3186 0.50123 75.3454C0.485059 74.3563 1.24506 73.7342 2.474 73.7182C3.46038 73.7182 4.46293 73.7182 5.49783 73.7182C5.77272 71.0541 6.04761 68.4697 6.30634 65.8853C6.56506 63.3169 6.69442 60.7325 7.11485 58.196C7.81017 53.8568 10.3489 50.9055 14.6178 49.5654C18.9514 48.1935 23.3012 46.9332 27.651 45.6091C27.748 45.5772 27.8612 45.5612 27.9583 45.5134C29.7046 44.5243 30.9012 45.2262 32.1625 46.5503C34.2485 48.7359 36.4961 50.7619 38.8085 52.9953C39.3583 52.4051 39.9889 51.7031 40.6357 51.0491C42.4468 49.2304 44.2902 47.4437 46.1174 45.625C46.6349 45.1145 47.1846 44.8752 47.9285 45.0826C52.6502 46.327 57.388 47.5713 62.1259 48.7997C66.4919 49.9323 69.6936 53.8887 70.0332 58.3555C70.3566 62.6469 70.8417 66.9223 71.2459 71.2136C71.3268 72.0272 71.4076 72.8408 71.5046 73.7342C72.6527 73.7342 73.7523 73.7023 74.8519 73.7501C75.7412 73.782 76.3719 74.3564 76.4851 75.138C76.5821 75.8559 76.1455 76.6217 75.434 76.8291C75.1268 76.9248 74.8034 76.9248 74.48 76.9248C69.3378 76.9407 64.1795 76.9567 59.0374 76.9567C54.7523 76.9567 50.4672 76.9248 46.1821 76.9407C45.3574 76.9088 44.6783 76.7014 44.2417 75.8081ZM68.2706 73.6704C68.1412 72.3144 68.0119 71.0541 67.8987 69.7778C67.5429 66.0289 67.1387 62.2799 66.8315 58.515C66.5727 55.3723 64.3412 52.6443 61.2366 51.8307C59.2638 51.3203 57.291 50.7938 55.3021 50.2833C53.8468 49.9004 52.3753 49.5335 50.7583 49.1187C52.2298 51.6712 53.6204 54.0642 54.9949 56.4731C55.8842 58.0205 55.5932 58.8022 53.9115 59.4722C52.4076 60.0625 50.9038 60.6687 49.2706 61.3068C49.9497 61.7535 50.4995 62.1204 51.0493 62.4873C52.5046 63.4445 52.634 64.1464 51.5991 65.5663C49.8366 68.0071 48.0578 70.4479 46.2953 72.8887C46.1336 73.112 45.988 73.3513 45.794 73.6544C53.3293 73.6704 60.7515 73.6704 68.2706 73.6704ZM8.79655 73.6385C16.3157 73.6385 23.7378 73.6385 31.257 73.6385C31.0306 73.3035 30.8689 73.0642 30.691 72.8408C28.88 70.3362 27.0527 67.8316 25.2578 65.311C24.4817 64.2422 24.6434 63.4286 25.7429 62.6788C26.3736 62.248 27.0366 61.8173 27.7804 61.3228C26.0825 60.6527 24.4978 60.0146 22.9131 59.3925C21.5225 58.8341 21.2153 57.9726 21.9429 56.6805C23.1395 54.5747 24.3685 52.4848 25.5812 50.379C25.7268 50.1238 25.8723 49.8526 26.0825 49.4697C25.6944 49.5814 25.4357 49.6611 25.177 49.725C21.9591 50.6981 18.7412 51.6712 15.5234 52.6284C13.7123 53.1708 12.3702 54.3035 11.3676 55.8509C10.4297 57.2707 10.3166 58.866 10.1548 60.4932C9.73442 64.8484 9.26549 69.2035 8.79655 73.6385Z" fill="white"/>
<path d="M22.4767 17.3404C22.9457 14.2615 24.1423 11.5335 26.1312 9.1725C28.2333 6.66788 30.8529 4.91305 34.0061 3.98778C34.6368 3.79634 35.0572 3.54109 35.3806 2.93488C36.0921 1.61078 37.2725 0.924805 38.8087 0.924805C40.3448 0.924805 41.5414 1.57888 42.2529 2.90297C42.5925 3.52514 43.0453 3.78039 43.6759 4.00373C49.8853 6.07762 53.6853 10.2892 55.0436 16.6225C55.0921 16.8459 55.1568 17.0852 55.2214 17.3723C55.464 17.3723 55.7065 17.3723 55.9491 17.3723C57.0972 17.4042 57.7117 18.0104 57.7278 19.191C57.744 20.9777 57.744 22.7485 57.7278 24.5352C57.7117 25.8274 57.1134 26.4017 55.7874 26.4496C55.6095 26.4496 55.4155 26.4496 55.367 26.4496C54.8495 28.5554 54.51 30.5973 53.847 32.5436C52.3917 36.8509 49.9985 40.5839 45.9559 42.9928C44.5976 43.8064 42.9968 44.2052 41.4929 44.7795C41.3474 44.8274 41.1695 44.8434 41.0078 44.8115C40.3772 44.6998 39.7627 44.62 39.1644 44.971C39.0836 45.0188 38.9542 45.0029 38.841 44.9869C36.8197 44.6998 34.7499 44.6679 32.858 43.6309C30.8206 42.5142 29.0742 41.0944 27.635 39.3077C24.8699 35.8299 23.3176 31.8736 22.784 27.5025C22.7516 27.1834 22.687 26.8643 22.6223 26.4336C22.3474 26.4336 22.0725 26.4336 21.7814 26.4336C20.504 26.4017 19.9057 25.8115 19.8895 24.5671C19.8733 22.8442 19.8895 21.1053 19.8895 19.3824C19.8895 17.9147 20.407 17.4042 21.9431 17.3564C22.121 17.3564 22.2504 17.3404 22.4767 17.3404ZM25.9533 26.4974C26.3091 30.039 27.4087 33.2775 29.3814 36.2128C30.675 38.1272 32.2597 39.7544 34.378 40.7275C35.5099 41.2539 36.7065 41.7325 37.9193 41.9718C38.6955 42.1314 39.5848 41.8761 40.4095 41.6847C41.4282 41.4454 42.4793 41.222 43.3848 40.7275C49.0121 37.6486 51.001 32.4 51.9712 26.4815C43.2231 26.4974 34.6206 26.4974 25.9533 26.4974ZM47.0555 9.28417C46.8129 10.6083 46.1823 11.2145 45.2606 11.1507C44.3065 11.0869 43.7568 10.353 43.7406 9.15654C43.7406 8.78962 43.7082 8.40675 43.7406 8.03983C43.8053 7.43362 43.5304 7.16242 43.1746 7.17837C42.7865 8.42271 42.5763 9.65108 42.0265 10.688C41.4121 11.8207 40.1993 12.411 38.9057 12.3312C38.0487 12.2674 37.1108 11.9643 36.3831 11.4857C34.847 10.4966 34.6691 8.85344 34.8146 7.19433C34.0385 7.17837 33.8121 7.49743 33.8606 8.13555C33.9091 8.662 33.8929 9.2044 33.8444 9.73085C33.7797 10.4966 33.2138 11.0709 32.4538 11.1507C31.7261 11.2464 31.0146 10.7997 30.7559 10.0818C30.675 9.87443 30.6265 9.63513 30.5619 9.41179C28.298 10.8316 26.0989 14.5167 25.8078 17.3245C34.4912 17.3245 43.1585 17.3245 51.8904 17.3245C51.2759 14.0382 49.6912 11.4219 47.0555 9.28417ZM54.4614 20.6108C44.0316 20.6108 33.618 20.6108 23.2206 20.6108C23.2206 21.5042 23.2206 22.3337 23.2206 23.1952C33.6504 23.1952 44.0316 23.1952 54.4614 23.1952C54.4614 22.3178 54.4614 21.4882 54.4614 20.6108ZM39.5363 6.58811C39.5525 5.99785 39.6172 5.40759 39.5202 4.83328C39.4716 4.57804 39.1159 4.14731 38.938 4.16326C38.647 4.17921 38.1457 4.49827 38.1457 4.72161C38.081 5.96595 38.081 7.21028 38.1619 8.45461C38.178 8.67795 38.6631 8.99701 38.938 9.01297C39.1159 9.02892 39.4716 8.59819 39.504 8.32699C39.5848 7.76863 39.5363 7.17837 39.5363 6.58811Z" fill="white"/>
<path d="M7.00154 25.8434C4.30112 25.8434 2.13431 23.7057 2.15048 21.0416C2.16665 18.4412 4.34963 16.2876 7.00154 16.2876C9.66963 16.2876 11.8688 18.4732 11.8526 21.1213C11.8364 23.7217 9.66963 25.8434 7.00154 25.8434ZM6.98537 22.6528C7.87473 22.6528 8.58622 21.9669 8.60239 21.1054C8.61856 20.228 7.84239 19.4622 6.95303 19.4782C6.09601 19.4941 5.36835 20.2439 5.36835 21.0894C5.38452 21.9509 6.09601 22.6528 6.98537 22.6528Z" fill="white"/>
<path d="M68.4161 22.6048C68.4161 21.5998 68.4161 20.5947 68.4161 19.5259C69.5156 19.5259 70.5505 19.5259 71.6339 19.5259C71.6339 20.5309 71.6339 21.536 71.6339 22.5729C70.5667 22.5729 69.4833 22.5729 68.3999 22.5729L68.4161 22.6048Z" fill="white"/>
<path d="M68.4973 25.7635C67.43 25.7635 66.3628 25.7635 65.2471 25.7635C65.2471 24.7744 65.2471 23.7534 65.2471 22.6208C66.3305 22.6208 67.3654 22.6208 68.4164 22.6208C68.4164 22.6208 68.4003 22.5889 68.3841 22.5889C68.4164 23.6577 68.4488 24.7266 68.4649 25.7954L68.4973 25.7635Z" fill="white"/>
<path d="M68.4808 25.7795C69.5157 25.7795 70.5506 25.7795 71.634 25.7795C71.634 26.9281 71.634 27.9172 71.634 28.9382C70.5506 28.9382 69.4672 28.9382 68.3838 28.9382L68.4 28.9541C68.4323 27.8853 68.4646 26.8164 68.497 25.7476C68.497 25.7635 68.4808 25.7795 68.4808 25.7795Z" fill="white"/>
<path d="M68.384 28.9382C68.384 29.9911 68.384 31.044 68.384 32.1607C67.3653 32.1607 66.3466 32.1607 65.2632 32.1607C65.2632 31.1397 65.2632 30.1347 65.2632 28.9542C66.3304 28.9542 67.3653 28.9542 68.4002 28.9542C68.4002 28.9701 68.384 28.9382 68.384 28.9382Z" fill="white"/>
<path d="M10.1871 38.542C10.1871 37.5369 10.1871 36.5319 10.1871 35.479C11.319 35.479 12.3539 35.479 13.4211 35.479C13.4211 36.5 13.4211 37.505 13.4211 38.526C12.3377 38.526 11.2543 38.526 10.1709 38.526L10.1871 38.542Z" fill="white"/>
<path d="M10.1712 38.51C10.2035 39.5789 10.2359 40.6477 10.2682 41.7325L10.2844 41.7166C9.21716 41.7166 8.14993 41.7166 7.03418 41.7166C7.03418 40.7275 7.03418 39.7224 7.03418 38.5419C8.10141 38.5419 9.13631 38.5419 10.1712 38.5419C10.1874 38.5419 10.1712 38.51 10.1712 38.51Z" fill="white"/>
<path d="M10.2679 41.7326C11.3028 41.7326 12.3377 41.7326 13.4211 41.7326C13.4211 42.8812 13.4211 43.8703 13.4211 44.8913C12.3377 44.8913 11.2543 44.8913 10.1709 44.8913L10.1871 44.9072C10.2194 43.8384 10.2517 42.7695 10.2841 41.7007C10.2841 41.7166 10.2679 41.7326 10.2679 41.7326Z" fill="white"/>
<path d="M10.1711 44.8914C10.1711 45.9443 10.1711 46.9971 10.1711 48.1139C9.15242 48.1139 8.1337 48.1139 7.05029 48.1139C7.05029 47.0929 7.05029 46.0878 7.05029 44.9073C8.11753 44.9073 9.15242 44.9073 10.1873 44.9073C10.1873 44.9233 10.1711 44.8914 10.1711 44.8914Z" fill="white"/>
<path d="M38.9216 38.6059C38.1131 38.6059 37.3046 38.6218 36.4961 38.6059C35.5906 38.574 34.9438 37.9678 34.9114 37.1223C34.8629 36.2448 35.4612 35.495 36.3991 35.4631C38.097 35.3993 39.7948 35.3993 41.4927 35.4631C42.4306 35.495 43.0127 36.2608 42.948 37.1382C42.8995 37.9837 42.2689 38.574 41.3472 38.6059C40.5387 38.6218 39.7302 38.6059 38.9216 38.6059Z" fill="white"/>
<path d="M34.0703 32.2244C33.7793 32.2244 33.472 32.2404 33.181 32.2244C32.3563 32.1606 31.758 31.5863 31.6933 30.8206C31.6125 29.991 32.0976 29.2413 32.9384 29.1296C33.6822 29.0339 34.4422 29.0339 35.1861 29.1136C36.0431 29.2253 36.5282 29.9432 36.4797 30.7727C36.4312 31.5863 35.8167 32.1766 34.9597 32.2244C34.6525 32.2404 34.3614 32.2244 34.0703 32.2244Z" fill="white"/>
<path d="M43.7246 32.2245C43.4336 32.2245 43.1263 32.2405 42.8353 32.2245C42.0591 32.1607 41.477 31.6023 41.38 30.8525C41.2829 30.0549 41.7034 29.2892 42.5119 29.1615C43.3204 29.0339 44.1774 29.0339 44.9859 29.1456C45.7944 29.2572 46.231 29.9911 46.1663 30.8047C46.1016 31.5864 45.5195 32.1607 44.6948 32.2245C44.3714 32.2405 44.048 32.2245 43.7246 32.2245Z" fill="white"/>
</svg>
