<svg width="77" height="69" viewBox="0 0 77 69" fill="none" xmlns="http://www.w3.org/2000/svg">
<path d="M60.6225 6.20101C60.5323 3.58374 58.517 1.38524 55.9153 1.02631C54.4264 0.816924 52.8924 0.996394 51.2832 0.996394C51.2832 4.00251 51.2832 7.03853 51.2832 10.1493C50.9825 10.1493 50.7569 10.1493 50.5313 10.1493C42.2147 10.1493 33.8981 10.1493 25.5815 10.1493C19.0996 10.1493 12.6027 10.1493 6.1209 10.1493C3.08301 10.1493 0.872266 11.8842 0.135352 14.8155C0.105273 14.9053 0.0451172 14.9801 0 15.0698C0 30.3247 0 45.5796 0 60.8345C0.0601563 60.999 0.120313 61.1486 0.16543 61.3131C0.782032 63.6013 2.21074 65.1866 4.5418 65.6502C6.09082 65.9494 7.71504 65.8447 9.4295 65.9194C9.4295 62.7189 9.4295 59.6679 9.4295 56.587C9.9709 56.587 10.392 56.587 10.8131 56.587C25.2957 56.587 39.7783 56.587 54.261 56.587C54.8776 56.587 55.5243 56.5571 56.1258 56.4225C58.9231 55.7944 60.6827 53.4613 60.6827 50.3804C60.6977 38.999 60.6977 27.6027 60.6827 16.2214C60.6827 12.8713 60.7428 9.53615 60.6225 6.20101ZM6.94805 63.347C5.38399 63.7209 3.88008 63.1975 3.03789 62.0309C2.22578 60.8943 2.16563 59.3389 2.93262 58.1574C3.88008 56.7216 5.27871 56.4524 6.93301 56.6469C6.94805 58.9351 6.94805 61.1486 6.94805 63.347ZM58.2162 51.3376C58.0057 52.7135 56.8928 53.88 55.5092 54.0894C54.9377 54.1792 54.3662 54.1792 53.7797 54.1792C38.2444 54.1792 22.709 54.1941 7.17364 54.1792C5.53438 54.1792 3.9252 54.2091 2.40625 55.3307C2.40625 54.912 2.40625 54.6577 2.40625 54.3885C2.40625 41.7509 2.40625 29.1133 2.40625 16.4756C2.40625 13.8434 3.72969 12.5123 6.37657 12.5123C21.0547 12.5123 35.7479 12.5123 50.426 12.5123C50.6666 12.5123 50.9223 12.5123 51.2832 12.5123C51.2832 24.133 51.2832 35.6639 51.2832 47.2995C52.5014 47.2995 53.6744 47.2696 54.8475 47.2995C57.0733 47.3892 58.5471 49.154 58.2162 51.3376ZM58.2764 45.3552C58.2764 45.6095 58.2614 45.8787 58.2313 46.2975C56.8477 45.2506 55.419 44.7271 53.7496 44.9813C53.7496 31.0426 53.7496 17.2085 53.7496 3.37436C56.3514 2.86587 58.2764 4.39136 58.2764 7.02357C58.2764 19.7809 58.2764 32.5681 58.2764 45.3552Z" fill="white"/>
<path d="M75.3611 12.4676C71.7818 12.4975 68.1875 12.4676 64.6082 12.4825C63.2547 12.4825 62.9238 12.8116 62.9238 14.1725C62.9238 27.7823 62.9238 41.3771 62.9238 54.9868C62.9238 56.2132 63.2998 56.602 64.548 56.602C68.1574 56.602 71.7668 56.5871 75.3762 56.617C76.098 56.617 76.6394 56.4076 77.0004 55.7645C77.0004 41.6014 77.0004 27.4532 77.0004 13.2902C76.6394 12.6471 76.083 12.4526 75.3611 12.4676ZM74.549 54.1493C74.3234 54.1642 74.1129 54.1941 73.8873 54.1941C71.2855 54.1941 68.6687 54.1792 66.067 54.2091C65.5105 54.2091 65.285 54.0595 65.3451 53.4912C65.3902 53.0276 65.3602 52.549 65.3602 51.9807C66.8941 51.9807 68.383 51.9807 69.917 51.9807C69.917 51.1432 69.917 50.4103 69.917 49.5728C68.4281 49.5728 66.9393 49.5728 65.4053 49.5728C65.4053 48.7951 65.4053 48.1071 65.4053 47.3145C66.1572 47.3145 66.8641 47.3145 67.616 47.3145C67.616 46.477 67.616 45.7441 67.616 44.9066C66.8641 44.9066 66.1572 44.9066 65.3902 44.9066C65.3902 44.1439 65.3902 43.4709 65.3902 42.7081C66.8791 42.7081 68.3529 42.7081 69.9019 42.7081C69.9019 41.8706 69.9019 41.1378 69.9019 40.3002C68.4281 40.3002 66.9393 40.3002 65.4053 40.3002C65.4053 39.5076 65.4053 38.8346 65.4053 38.0569C66.1271 38.0569 66.849 38.0569 67.601 38.0569C67.601 37.2343 67.601 36.5015 67.601 35.664C66.8791 35.664 66.1572 35.664 65.4053 35.664C65.4053 34.8713 65.4053 34.1983 65.4053 33.3907C66.9543 33.3907 68.4281 33.3907 69.917 33.3907C69.917 32.5831 69.917 31.8502 69.917 31.0277C68.4131 31.0277 66.9393 31.0277 65.4053 31.0277C65.4053 30.2649 65.4053 29.5919 65.4053 28.7843C66.1121 28.7843 66.849 28.7843 67.616 28.7843C67.616 27.9468 67.616 27.2289 67.616 26.4063C66.8941 26.4063 66.1723 26.4063 65.4053 26.4063C65.4053 25.6137 65.4053 24.9407 65.4053 24.163C66.8791 24.163 68.368 24.163 69.9019 24.163C69.9019 23.3255 69.9019 22.5926 69.9019 21.7551C68.398 21.7551 66.9092 21.7551 65.3752 21.7551C65.3752 20.9625 65.3752 20.2894 65.3752 19.5117C66.1271 19.5117 66.834 19.5117 67.5859 19.5117C67.5859 18.6892 67.5859 17.9563 67.5859 17.1188C66.834 17.1188 66.1271 17.1188 65.3752 17.1188C65.3752 16.3411 65.3752 15.6532 65.3752 14.9203C68.4432 14.9203 71.466 14.9203 74.534 14.9203C74.549 27.9917 74.549 41.0331 74.549 54.1493Z" fill="white"/>
<path d="M46.3655 58.7856C39.1467 58.8156 31.9279 58.8455 24.7092 58.8903C24.3783 58.8903 24.0174 58.9801 23.7166 59.1296C21.566 60.1915 19.4154 61.2683 17.2648 62.3302C16.7385 62.5845 16.3174 62.9135 16.3174 63.5417C16.3174 64.1848 16.7234 64.4988 17.2648 64.768C19.4305 65.815 21.566 66.8918 23.7316 67.9387C24.0174 68.0733 24.3482 68.1631 24.6641 68.1631C28.3186 68.178 31.9881 68.178 35.6426 68.178C35.6426 68.1631 35.6426 68.1631 35.6426 68.1481C39.2821 68.1481 42.9065 68.1481 46.5459 68.1481C47.9897 68.1481 49.1928 67.6246 50.05 66.4581C51.1028 65.0522 51.0426 61.732 49.9448 60.356C49.0274 59.2044 47.8092 58.7856 46.3655 58.7856ZM23.2805 65.0522C22.2578 64.5437 21.3254 64.095 20.2275 63.5566C21.2953 63.0182 22.2578 62.5396 23.2805 62.0311C23.2805 63.0631 23.2805 64.0053 23.2805 65.0522ZM25.7469 61.2683C31.5219 61.2683 37.2668 61.2683 43.0719 61.2683C43.0719 61.5824 43.0719 61.9114 43.0719 62.2853C37.3119 62.2853 31.567 62.2853 25.7469 62.2853C25.7469 61.9264 25.7469 61.6422 25.7469 61.2683ZM43.0869 65.7103C37.342 65.7103 31.582 65.7103 25.7619 65.7103C25.7619 65.3812 25.7619 65.0821 25.7619 64.7531C31.5369 64.7531 37.2819 64.7531 43.0869 64.7531C43.0869 65.0672 43.0869 65.3513 43.0869 65.7103ZM48.0949 65.0672C47.6889 65.6654 46.8918 65.8598 45.5834 65.6654C45.5834 64.2147 45.5834 62.7639 45.5834 61.2235C46.5309 61.1637 47.4483 61.029 48.0799 61.8815C48.4408 62.3601 48.4258 64.5736 48.0949 65.0672Z" fill="white"/>
<path d="M44.9965 17.1036C37.2965 17.1036 29.6116 17.1036 21.9115 17.1036C21.6408 17.1036 21.3701 17.1036 21.0994 17.1036C21.0994 17.9412 21.0994 18.689 21.0994 19.5115C22.6334 19.5115 24.0922 19.5115 25.6563 19.5115C25.6563 21.8446 25.6563 24.103 25.6563 26.3613C26.4834 26.3613 27.2354 26.3613 28.0625 26.3613C28.0625 24.0731 28.0625 21.8147 28.0625 19.5265C33.5067 19.5265 38.8606 19.5265 44.2446 19.5265C44.2446 24.1179 44.2446 28.6645 44.2446 33.226C41.9436 33.226 39.6727 33.226 37.3567 33.226C37.3567 30.1601 37.3567 27.1539 37.3567 24.088C36.5446 24.088 35.8077 24.088 34.9805 24.088C34.9805 27.139 34.9805 30.175 34.9805 33.2858C33.4014 33.2858 31.9125 33.2858 30.4237 33.2858C30.4237 34.1234 30.4237 34.8861 30.4237 35.7087C35.0557 35.7087 39.6426 35.7087 44.2446 35.7087C44.2446 39.5673 44.2446 43.3661 44.2446 47.1499C43.4926 47.1499 42.8008 47.1499 42.0489 47.1499C42.0489 46.776 42.0489 46.4469 42.0489 46.1329C42.0489 43.9194 42.0489 41.691 42.0489 39.4775C42.0489 38.3409 41.6428 37.9371 40.5149 37.9371C37.6274 37.9371 34.7549 37.9371 31.8674 37.9371C30.7395 37.9371 30.3184 38.3409 30.3184 39.4626C30.3034 41.7359 30.3184 43.9942 30.3184 46.2675C30.3184 46.5516 30.3184 46.8508 30.3184 47.1648C29.5213 47.1648 28.8446 47.1648 28.0625 47.1648C28.0625 41.8256 28.0625 36.5312 28.0625 31.207C27.2203 31.207 26.4684 31.207 25.6262 31.207C25.6262 36.5612 25.6262 41.8555 25.6262 47.1499C20.9641 47.1499 16.3922 47.1499 11.7902 47.1499C11.7902 44.0989 11.7902 41.0928 11.7902 37.982C14.8883 37.982 17.9563 37.982 21.0092 37.982C21.0092 37.1444 21.0092 36.4415 21.0092 35.604C17.9111 35.604 14.8432 35.604 11.8053 35.604C11.8053 30.1601 11.8053 24.8358 11.8053 19.4367C13.3543 19.4367 14.8432 19.4367 16.3471 19.4367C16.3471 18.6142 16.3471 17.8813 16.3471 17.0737C14.5424 17.0737 12.7979 17.0737 11.0383 17.0737C9.68477 17.0737 9.33887 17.4177 9.33887 18.7488C9.33887 28.4401 9.33887 38.1465 9.33887 47.8378C9.33887 49.2736 9.65469 49.5877 11.0984 49.5877C22.4078 49.5877 33.7022 49.5877 45.0116 49.5877C46.335 49.5877 46.711 49.2287 46.711 47.9126C46.711 38.1913 46.711 28.4701 46.711 18.7488C46.696 17.4626 46.335 17.1036 44.9965 17.1036ZM39.5674 47.1798C37.3116 47.1798 35.0707 47.1798 32.7698 47.1798C32.7698 44.9215 32.7698 42.6781 32.7698 40.3749C35.0557 40.3749 37.2815 40.3749 39.5674 40.3749C39.5674 42.6482 39.5674 44.8915 39.5674 47.1798Z" fill="white"/>
</svg>
