<svg width="73" height="59" viewBox="0 0 73 59" fill="none" xmlns="http://www.w3.org/2000/svg">
<g clip-path="url(#clip0)">
<path d="M6.36628 47.9519C6.36628 46.3686 6.36628 44.8638 6.36628 43.2492C5.0515 43.2492 3.73672 43.2492 2.40628 43.2492C0.574979 43.2492 0.136719 42.8259 0.136719 41.0076C0.136719 38.7346 0.136719 36.4616 0.136719 34.1886C0.136719 32.8562 0.700197 32.2919 2.04628 32.2762C2.93846 32.2762 3.81498 32.2762 4.76976 32.2762C4.76976 30.7243 4.76976 29.2038 4.76976 27.5735C3.86193 27.5735 2.93846 27.5735 2.01498 27.5735C0.715849 27.5735 0.152371 26.9935 0.136719 25.7081C0.136719 23.2784 0.136719 20.8486 0.136719 18.4189C0.136719 17.1805 0.731501 16.6162 1.96802 16.6005C2.87585 16.6005 3.79933 16.6005 4.78541 16.6005C4.80106 16.3497 4.83237 16.1303 4.83237 15.9108C4.83237 14.1395 4.83237 12.3524 4.83237 10.5811C4.83237 9.35837 5.42715 8.76269 6.66367 8.76269C8.57324 8.74702 10.4671 8.76269 12.3767 8.76269C12.4237 8.76269 12.4863 8.74702 12.6115 8.73134C12.6271 8.52756 12.6585 8.3081 12.6585 8.07296C12.6585 6.31729 12.6585 4.57729 12.6585 2.82161C12.6741 1.52053 13.2376 0.924855 14.5054 0.924855C19.5454 0.924855 24.5698 0.924855 29.6098 0.924855C30.8776 0.924855 31.4411 1.52053 31.4567 2.82161C31.4567 4.78107 31.4567 6.72486 31.4567 8.71567C36.6845 8.71567 41.8341 8.71567 47.0619 8.71567C47.0776 8.51188 47.1089 8.29242 47.1089 8.05729C47.1089 6.30161 47.1089 4.56161 47.1089 2.80594C47.1089 1.50486 47.6724 0.90918 48.9558 0.90918C53.9958 0.90918 59.0202 0.90918 64.0602 0.90918C65.328 0.90918 65.8915 1.50486 65.8915 2.80594C65.8915 4.7654 65.8915 6.70918 65.8915 8.74702C66.8932 8.74702 67.8167 8.74702 68.7558 8.74702C69.9923 8.76269 70.5871 9.32702 70.5871 10.5654C70.6028 13.0265 70.6028 15.4719 70.5871 17.933C70.5871 19.1086 69.9767 19.7043 68.8028 19.72C67.8636 19.7357 66.9402 19.72 65.9541 19.72C65.9541 21.3032 65.9541 22.8238 65.9541 24.4227C66.9089 24.4227 67.8323 24.4227 68.7715 24.4227C70.008 24.4384 70.6028 25.0184 70.6028 26.2411C70.6184 28.7022 70.6184 31.1476 70.6028 33.6086C70.6028 34.7843 69.9923 35.38 68.8028 35.38C67.8636 35.3957 66.9402 35.38 65.9541 35.38C65.9541 36.9632 65.9541 38.4838 65.9541 40.0827C67.4097 40.0827 68.8341 40.0827 70.2584 40.0827C71.5889 40.0827 72.1523 40.647 72.1523 41.9951C72.1523 44.3778 72.1523 46.7449 72.1523 49.1276C72.1523 50.507 71.5889 51.0557 70.1958 51.0557C68.7871 51.0557 67.3941 51.0557 65.8915 51.0557C65.8915 53.0465 65.8915 54.9589 65.8915 56.887C65.8915 57.1692 65.8915 57.467 65.8289 57.7335C65.6254 58.5016 65.015 58.8778 64.0132 58.8778C58.9263 58.8778 53.8393 58.8778 48.7524 58.8778C33.288 58.8778 17.8237 58.8778 2.35933 58.8778C0.637588 58.8778 0.168023 58.4232 0.168023 56.7146C0.168023 54.4103 0.168023 52.1216 0.168023 49.8173C0.168023 48.4692 0.731501 47.9205 2.06194 47.9049C3.47063 47.9519 4.89498 47.9519 6.36628 47.9519ZM15.8358 8.71567C20.015 8.71567 24.1471 8.71567 28.2637 8.71567C28.2637 7.13242 28.2637 5.61188 28.2637 4.10702C24.1002 4.10702 19.9837 4.10702 15.8358 4.10702C15.8358 5.64323 15.8358 7.1481 15.8358 8.71567ZM50.255 8.71567C54.4497 8.71567 58.5663 8.71567 62.6828 8.71567C62.6828 7.13242 62.6828 5.61188 62.6828 4.10702C58.5037 4.10702 54.4028 4.10702 50.255 4.10702C50.255 5.64323 50.255 7.1481 50.255 8.71567ZM20.4532 11.9605C16.2585 11.9605 12.1419 11.9605 8.02541 11.9605C8.02541 13.5438 8.02541 15.0643 8.02541 16.5692C12.2045 16.5692 16.3054 16.5692 20.4532 16.5692C20.4532 15.0173 20.4532 13.5124 20.4532 11.9605ZM23.6619 11.9449C23.6619 13.5124 23.6619 15.033 23.6619 16.5535C27.8411 16.5535 31.9576 16.5535 36.0741 16.5535C36.0741 14.9703 36.0741 13.4497 36.0741 11.9449C31.9106 11.9449 27.7941 11.9449 23.6619 11.9449ZM51.7419 16.5692C51.7419 14.9703 51.7419 13.4654 51.7419 11.9449C47.5784 11.9449 43.4463 11.9449 39.3141 11.9449C39.3141 13.5124 39.3141 15.033 39.3141 16.5692C43.4932 16.5692 47.5941 16.5692 51.7419 16.5692ZM67.3941 16.5692C67.3941 14.9703 67.3941 13.4654 67.3941 11.9449C63.2306 11.9449 59.0984 11.9449 54.9663 11.9449C54.9663 13.5124 54.9663 15.033 54.9663 16.5692C59.1454 16.5692 63.2463 16.5692 67.3941 16.5692ZM15.7576 19.7984C11.5628 19.7984 7.43063 19.7984 3.31411 19.7984C3.31411 21.3659 3.31411 22.8551 3.31411 24.407C7.47759 24.407 11.6098 24.407 15.7576 24.407C15.7576 22.8551 15.7576 21.3503 15.7576 19.7984ZM31.3941 24.407C31.3941 22.8395 31.3941 21.3189 31.3941 19.7984C27.215 19.7984 23.0828 19.7984 18.9663 19.7984C18.9663 21.3659 18.9663 22.8708 18.9663 24.407C23.0984 24.407 27.215 24.407 31.3941 24.407ZM34.6184 24.3913C38.7976 24.3913 42.9297 24.3913 47.0463 24.3913C47.0463 22.8081 47.0463 21.2876 47.0463 19.7827C42.8828 19.7827 38.7663 19.7827 34.6184 19.7827C34.6184 21.3189 34.6184 22.8238 34.6184 24.3913ZM50.2706 24.3913C54.4654 24.3913 58.5819 24.3913 62.6984 24.3913C62.6984 22.8081 62.6984 21.2876 62.6984 19.7827C58.535 19.7827 54.4184 19.7827 50.2706 19.7827C50.2706 21.3189 50.2706 22.8238 50.2706 24.3913ZM20.4376 32.2449C20.4376 30.693 20.4376 29.1567 20.4376 27.6362C16.2585 27.6362 12.1419 27.6362 8.02541 27.6362C8.02541 29.2038 8.02541 30.74 8.02541 32.2449C12.1889 32.2449 16.3054 32.2449 20.4376 32.2449ZM36.1054 27.6362C31.9106 27.6362 27.7784 27.6362 23.6619 27.6362C23.6619 29.2038 23.6619 30.693 23.6619 32.2449C27.8254 32.2449 31.9576 32.2449 36.1054 32.2449C36.1054 30.693 36.1054 29.1881 36.1054 27.6362ZM39.3297 27.6049C39.3297 29.2038 39.3297 30.7243 39.3297 32.2135C43.5089 32.2135 47.641 32.2135 51.7419 32.2135C51.7419 30.6459 51.7419 29.1411 51.7419 27.6049C47.5941 27.6049 43.4932 27.6049 39.3297 27.6049ZM67.3941 32.2449C67.3941 30.6616 67.3941 29.1411 67.3941 27.6362C63.215 27.6362 59.0828 27.6362 54.9663 27.6362C54.9663 29.2038 54.9663 30.7086 54.9663 32.2449C59.1141 32.2449 63.215 32.2449 67.3941 32.2449ZM3.32976 35.4427C3.32976 37.0259 3.32976 38.5465 3.32976 40.0513C7.50889 40.0513 11.6411 40.0513 15.7576 40.0513C15.7576 38.4838 15.7576 36.9789 15.7576 35.4427C11.5941 35.4427 7.49324 35.4427 3.32976 35.4427ZM18.9506 40.067C23.1454 40.067 27.2619 40.067 31.3784 40.067C31.3784 38.4838 31.3784 36.9632 31.3784 35.4584C27.1993 35.4584 23.0984 35.4584 18.9506 35.4584C18.9506 36.9946 18.9506 38.4995 18.9506 40.067ZM47.0619 35.474C42.8828 35.474 38.7506 35.474 34.6341 35.474C34.6341 37.0573 34.6341 38.5778 34.6341 40.0827C38.7976 40.0827 42.9141 40.0827 47.0619 40.0827C47.0619 38.5308 47.0619 37.0259 47.0619 35.474ZM50.255 40.067C54.4497 40.067 58.5819 40.067 62.6828 40.067C62.6828 38.4838 62.6828 36.9632 62.6828 35.4584C58.5037 35.4584 54.4028 35.4584 50.255 35.4584C50.255 36.9946 50.255 38.4995 50.255 40.067ZM22.0184 43.3119C17.8237 43.3119 13.6915 43.3119 9.59063 43.3119C9.59063 44.8951 9.59063 46.4157 9.59063 47.9205C13.7698 47.9205 17.8706 47.9205 22.0184 47.9205C22.0184 46.3686 22.0184 44.8638 22.0184 43.3119ZM37.6706 43.2962C33.5071 43.2962 29.375 43.2962 25.2428 43.2962C25.2428 44.8638 25.2428 46.3843 25.2428 47.9049C29.4219 47.9049 33.5541 47.9049 37.6706 47.9049C37.6706 46.3373 37.6706 44.8324 37.6706 43.2962ZM53.3228 43.3119C49.128 43.3119 45.0115 43.3119 40.895 43.3119C40.895 44.8951 40.895 46.4157 40.895 47.9205C45.0741 47.9205 49.175 47.9205 53.3228 47.9205C53.3228 46.3686 53.3228 44.8638 53.3228 43.3119ZM68.9593 47.9205C68.9593 46.3373 68.9593 44.8167 68.9593 43.3119C64.7802 43.3119 60.648 43.3119 56.5315 43.3119C56.5315 44.8795 56.5315 46.3843 56.5315 47.9205C60.6793 47.9205 64.7958 47.9205 68.9593 47.9205ZM15.7576 51.1497C11.5785 51.1497 7.44628 51.1497 3.32976 51.1497C3.32976 52.733 3.32976 54.2535 3.32976 55.7584C7.49324 55.7584 11.6098 55.7584 15.7576 55.7584C15.7576 54.2065 15.7576 52.7016 15.7576 51.1497ZM31.3784 55.7584C31.3784 54.1595 31.3784 52.6232 31.3784 51.1184C27.215 51.1184 23.0984 51.1184 18.9663 51.1184C18.9663 52.6859 18.9663 54.2065 18.9663 55.7584C23.1298 55.7584 27.2306 55.7584 31.3784 55.7584ZM34.6184 55.7427C38.8132 55.7427 42.9297 55.7427 47.0463 55.7427C47.0463 54.1595 47.0463 52.6389 47.0463 51.134C42.8828 51.134 38.7663 51.134 34.6184 51.134C34.6184 52.6703 34.6184 54.1751 34.6184 55.7427ZM50.2706 55.7427C54.4497 55.7427 58.5819 55.7427 62.6984 55.7427C62.6984 54.1595 62.6984 52.6389 62.6984 51.134C58.535 51.134 54.4184 51.134 50.2706 51.134C50.2706 52.6703 50.2706 54.1751 50.2706 55.7427Z" fill="white"/>
</g>
<defs>
<clipPath id="clip0">
<rect width="72" height="58" fill="white" transform="translate(0.136719 0.924805)"/>
</clipPath>
</defs>
</svg>
